<svg width="81" height="23" viewBox="0 0 81 23" fill="none" xmlns="http://www.w3.org/2000/svg">
<g clip-path="url(#clip0_13927_9479)">
<path fill-rule="evenodd" clip-rule="evenodd" d="M23.0169 11.4176C23.0169 17.4927 18.058 22.4175 11.9408 22.4175C6.15704 22.4175 1.40841 18.0148 0.908203 12.3997H15.5009V10.239H0.927548C1.51974 4.71809 6.22455 0.417725 11.9408 0.417725C18.058 0.417725 23.0169 5.34253 23.0169 11.4176ZM65.0595 7.0483C64.9624 6.20956 64.5686 5.55821 63.8781 5.09484C63.1876 4.63127 62.3407 4.39949 61.3375 4.39949C60.6038 4.39949 59.9619 4.52088 59.4117 4.76366C58.8669 5.00644 58.4409 5.34037 58.1334 5.76524C57.8313 6.19011 57.6803 6.67293 57.6803 7.21369C57.6803 7.66626 57.7853 8.05538 57.9958 8.38086C58.2126 8.702 58.4936 8.97532 58.8211 9.18385C59.1532 9.39239 59.5055 9.56711 59.8728 9.70536C60.2054 9.82682 60.5428 9.93449 60.8843 10.0281L62.5673 10.4917C62.9988 10.6075 63.4789 10.7676 64.0076 10.9717C64.5415 11.176 65.0514 11.4545 65.5368 11.8077C66.0277 12.1554 66.4322 12.6025 66.7506 13.1487C67.0688 13.695 67.2279 14.3656 67.2279 15.1601C67.2279 16.0763 66.9932 16.904 66.524 17.6433C66.0601 18.3829 65.3805 18.9706 64.4851 19.4065C63.595 19.8425 62.5134 20.0604 61.2404 20.0604C60.0537 20.0604 59.026 19.8645 58.1576 19.4727C57.2946 19.0808 56.615 18.5345 56.1185 17.8337C55.6278 17.1328 55.35 16.319 55.2853 15.3919H57.3566C57.4105 16.0321 57.6209 16.5618 57.9877 16.9812C58.36 17.3951 58.8292 17.704 59.3955 17.9083C59.9674 18.1067 60.5823 18.2063 61.2404 18.2063C62.0063 18.2063 62.6941 18.0794 63.3036 17.8254C63.9132 17.5662 64.396 17.2075 64.7519 16.7494C65.1081 16.2858 65.2859 15.7451 65.2859 15.1269C65.2859 14.5642 65.1323 14.1061 64.8248 13.7529C64.5174 13.3997 64.1128 13.1128 63.6112 12.8922C63.1094 12.6714 62.5673 12.4783 61.9848 12.3127L59.9459 11.7168C58.6511 11.3359 57.6262 10.7924 56.871 10.086C56.1159 9.37968 55.7383 8.4553 55.7383 7.31308C55.7383 6.36395 55.9892 5.53621 56.4908 4.82986C56.9979 4.11801 57.6776 3.56625 58.5297 3.17437C59.3874 2.777 60.345 2.57842 61.4023 2.57842C62.4702 2.57842 63.4197 2.77425 64.2504 3.16612C65.081 3.5523 65.7391 4.08206 66.2245 4.75522C66.7155 5.42857 66.9745 6.19306 67.0013 7.0483H65.0595ZM25.7805 2.8102V19.7624H31.768C33.0734 19.7624 34.1334 19.5638 34.9479 19.1664C35.7623 18.7691 36.3585 18.2311 36.7361 17.5522C37.1135 16.8736 37.3024 16.1093 37.3024 15.2595C37.3024 14.3656 37.1297 13.6095 36.7847 12.9914C36.4394 12.3734 36.0105 11.8989 35.498 11.5677C34.9856 11.2367 34.4759 11.0546 33.9688 11.0214V10.8558C34.4393 10.7253 34.885 10.5184 35.2878 10.2434C35.6976 9.96739 36.0267 9.59222 36.2748 9.11765C36.5284 8.64308 36.6552 8.04163 36.6552 7.31308C36.6552 6.48534 36.4718 5.73204 36.1048 5.05339C35.7381 4.36904 35.1798 3.82572 34.4301 3.42266C33.6802 3.01429 32.7281 2.8102 31.5737 2.8102H25.7805ZM31.768 17.9413H27.787V12.0477H31.8651C32.588 12.0477 33.2137 12.1968 33.7422 12.4948C34.2708 12.7873 34.6782 13.179 34.9641 13.6702C35.2499 14.1558 35.3928 14.6856 35.3928 15.2593C35.3928 16.0044 35.1151 16.639 34.5594 17.1633C34.0092 17.6818 33.0787 17.9413 31.768 17.9413ZM31.5092 10.2599H27.787V4.63127H31.5737C32.6742 4.63127 33.478 4.8933 33.985 5.41757C34.4921 5.93633 34.7455 6.56804 34.7455 7.31308C34.7455 7.90904 34.5999 8.4278 34.3087 8.86937C34.0227 9.31074 33.6344 9.65291 33.1434 9.8957C32.658 10.1385 32.1132 10.2599 31.5092 10.2599ZM39.1756 19.7624H41.2792L42.9453 14.9615H49.6464L51.3124 19.7622H53.4161L47.3315 2.8102H45.2602L39.1756 19.7624ZM49.0145 13.1405L46.3605 5.49201H46.2312L43.5772 13.1405H49.0145ZM70.5271 2.8102V19.7624H80.6574V17.9415H72.5338V12.1803H80.0101V10.3593H72.5338V4.63107H80.5279V2.8102H70.5271Z" fill="black"/>
</g>
<defs>
<clipPath id="clip0_13927_9479">
<rect width="79.7492" height="21.9998" fill="white" transform="translate(0.908203 0.417725)"/>
</clipPath>
</defs>
</svg>
