<svg width="93" height="37" viewBox="0 0 93 37" fill="none" xmlns="http://www.w3.org/2000/svg">
<path d="M34.6589 35.9824C31.7095 35.9824 29.0184 34.8011 27.0989 32.8484C25.1461 30.8956 23.9648 28.2378 23.9648 25.2883C23.9648 22.3389 25.1461 19.6478 27.0989 17.7283C29.0516 15.7755 31.7095 14.5942 34.6589 14.5942C37.6084 14.5942 40.2994 15.7755 42.219 17.7283C44.1717 19.681 45.353 22.3389 45.353 25.2883C45.353 28.2378 44.1717 30.9288 42.219 32.8484C40.2662 34.8011 37.6084 35.9824 34.6589 35.9824ZM28.7969 31.1503C30.3104 32.6638 32.3739 33.583 34.6589 33.583C36.9439 33.583 39.0111 32.6601 40.5209 31.1503C42.0344 29.6368 42.9536 27.5733 42.9536 25.2883C42.9536 23.0033 42.0307 20.9361 40.5209 19.4263C39.0074 17.9128 36.9439 16.9937 34.6589 16.9937C32.3739 16.9937 30.3067 17.9165 28.7969 19.4263C27.2834 20.9398 26.3643 23.0033 26.3643 25.2883C26.3643 27.5733 27.2834 29.6405 28.7969 31.1503Z" fill="black"/>
<path d="M11.3913 35.9829C8.44189 35.9829 5.75083 34.8016 3.83129 32.8489C1.87852 30.8961 0.697266 28.2383 0.697266 25.2888C0.697266 23.0038 1.39864 20.8628 2.65003 19.1315L3.3514 23.3361C3.20375 23.9636 3.12992 24.6281 3.12992 25.2888C3.12992 27.5738 4.05278 29.641 5.56257 31.1508C7.07606 32.6643 9.13957 33.5835 11.4246 33.5835C13.7096 33.5835 15.7768 32.6606 17.2866 31.1508C18.8 29.6373 19.7192 27.5738 19.7192 25.2888C19.7192 23.0038 18.7964 20.9366 17.2866 19.4268C15.7731 17.9133 13.7096 16.9942 11.4246 16.9942C9.25031 16.9942 7.25694 17.8432 5.78406 19.2053L5.34109 16.4774C7.07606 15.2592 9.17648 14.5615 11.4615 14.5615C14.4109 14.5615 17.102 15.7428 19.0215 17.6955C20.9743 19.6483 22.1556 22.3061 22.1556 25.2556C22.1556 28.205 20.9743 30.8961 19.0215 32.8156C17.0688 34.7647 14.4146 35.946 11.4652 35.946L11.3913 35.9829Z" fill="black"/>
<path d="M8.14278 23.558C8.93788 23.558 9.58244 22.9135 9.58244 22.1184C9.58244 21.3233 8.93788 20.6787 8.14278 20.6787C7.34768 20.6787 6.70312 21.3233 6.70312 22.1184C6.70312 22.9135 7.34768 23.558 8.14278 23.558Z" fill="black"/>
<path d="M11.7922 26.7284C12.5873 26.7284 13.2319 26.0839 13.2319 25.2888C13.2319 24.4937 12.5873 23.8491 11.7922 23.8491C10.9971 23.8491 10.3525 24.4937 10.3525 25.2888C10.3525 26.0839 10.9971 26.7284 11.7922 26.7284Z" fill="black"/>
<path d="M12.7522 21.8964C13.5473 21.8964 14.1918 21.2518 14.1918 20.4567C14.1918 19.6616 13.5473 19.0171 12.7522 19.0171C11.9571 19.0171 11.3125 19.6616 11.3125 20.4567C11.3125 21.2518 11.9571 21.8964 12.7522 21.8964Z" fill="black"/>
<path d="M16.2199 25.215C17.015 25.215 17.6596 24.5705 17.6596 23.7754C17.6596 22.9803 17.015 22.3357 16.2199 22.3357C15.4248 22.3357 14.7803 22.9803 14.7803 23.7754C14.7803 24.5705 15.4248 25.215 16.2199 25.215Z" fill="black"/>
<path d="M7.18673 28.2792C7.98183 28.2792 8.62639 27.6347 8.62639 26.8396C8.62639 26.0445 7.98183 25.3999 7.18673 25.3999C6.39163 25.3999 5.74707 26.0445 5.74707 26.8396C5.74707 27.6347 6.39163 28.2792 7.18673 28.2792Z" fill="black"/>
<path d="M15.2951 29.8627C16.0902 29.8627 16.7348 29.2182 16.7348 28.4231C16.7348 27.628 16.0902 26.9834 15.2951 26.9834C14.5 26.9834 13.8555 27.628 13.8555 28.4231C13.8555 29.2182 14.5 29.8627 15.2951 29.8627Z" fill="black"/>
<path d="M10.7639 31.5976C11.559 31.5976 12.2035 30.953 12.2035 30.1579C12.2035 29.3628 11.559 28.7183 10.7639 28.7183C9.96878 28.7183 9.32422 29.3628 9.32422 30.1579C9.32422 30.953 9.96878 31.5976 10.7639 31.5976Z" fill="black"/>
<path d="M58.2615 35.9826C55.312 35.9826 52.621 34.8014 50.7014 32.8486C48.7486 30.8959 47.5674 28.238 47.5674 25.2886C47.5674 23.0036 48.2688 20.8625 49.5202 19.1313L50.2215 23.3358C50.0739 23.9634 50 24.6278 50 25.2886C50 27.5736 50.9229 29.6408 52.4327 31.1506C53.9462 32.6641 56.0097 33.5832 58.2947 33.5832C60.5797 33.5832 62.6469 32.6604 64.1567 31.1506C65.6702 29.6371 66.5893 27.5736 66.5893 25.2886C66.5893 23.0036 65.6665 20.9364 64.1567 19.4266C62.6432 17.9131 60.5797 16.9939 58.2947 16.9939C56.1204 16.9939 54.1271 17.843 52.6542 19.2051L52.2112 16.4771C53.9462 15.259 56.0466 14.5613 58.3316 14.5613C61.281 14.5613 63.9721 15.7425 65.8916 17.6953C67.8444 19.6481 69.0257 22.3059 69.0257 25.2554C69.0257 28.2048 67.8444 30.8959 65.8916 32.8154C63.9389 34.7682 61.281 35.9494 58.3316 35.9494L58.2615 35.9826Z" fill="black"/>
<path d="M55.0149 23.5578C55.81 23.5578 56.4545 22.9132 56.4545 22.1181C56.4545 21.323 55.81 20.6785 55.0149 20.6785C54.2198 20.6785 53.5752 21.323 53.5752 22.1181C53.5752 22.9132 54.2198 23.5578 55.0149 23.5578Z" fill="black"/>
<path d="M58.6672 26.7284C59.4623 26.7284 60.1069 26.0839 60.1069 25.2888C60.1069 24.4937 59.4623 23.8491 58.6672 23.8491C57.8721 23.8491 57.2275 24.4937 57.2275 25.2888C57.2275 26.0839 57.8721 26.7284 58.6672 26.7284Z" fill="black"/>
<path d="M59.6584 21.8959C60.4535 21.8959 61.0981 21.2514 61.0981 20.4563C61.0981 19.6612 60.4535 19.0166 59.6584 19.0166C58.8633 19.0166 58.2188 19.6612 58.2188 20.4563C58.2188 21.2514 58.8633 21.8959 59.6584 21.8959Z" fill="black"/>
<path d="M63.0881 25.215C63.8832 25.215 64.5278 24.5705 64.5278 23.7754C64.5278 22.9803 63.8832 22.3357 63.0881 22.3357C62.293 22.3357 61.6484 22.9803 61.6484 23.7754C61.6484 24.5705 62.293 25.215 63.0881 25.215Z" fill="black"/>
<path d="M54.092 28.2792C54.8871 28.2792 55.5317 27.6347 55.5317 26.8396C55.5317 26.0445 54.8871 25.3999 54.092 25.3999C53.2969 25.3999 52.6523 26.0445 52.6523 26.8396C52.6523 27.6347 53.2969 28.2792 54.092 28.2792Z" fill="black"/>
<path d="M62.1701 29.8627C62.9652 29.8627 63.6098 29.2182 63.6098 28.4231C63.6098 27.628 62.9652 26.9834 62.1701 26.9834C61.375 26.9834 60.7305 27.628 60.7305 28.4231C60.7305 29.2182 61.375 29.8627 62.1701 29.8627Z" fill="black"/>
<path d="M57.634 31.5976C58.4291 31.5976 59.0737 30.953 59.0737 30.1579C59.0737 29.3628 58.4291 28.7183 57.634 28.7183C56.8389 28.7183 56.1943 29.3628 56.1943 30.1579C56.1943 30.953 56.8389 31.5976 57.634 31.5976Z" fill="black"/>
<path d="M81.5661 35.9829C78.6167 35.9829 75.9256 34.8016 74.0061 32.8488C72.0533 30.8961 70.8721 28.2383 70.8721 25.2888C70.8721 22.3393 72.0533 19.6483 74.0061 17.7288C75.9589 15.776 78.6167 14.5947 81.5661 14.5947C84.5156 14.5947 87.2066 15.776 89.1262 17.7288C91.079 19.6815 92.2602 22.3393 92.2602 25.2888C92.2602 27.5369 91.5588 29.6041 90.3813 31.3354L89.643 27.0939C89.7906 26.5033 89.8276 25.9127 89.8276 25.2851C89.8276 23.0001 88.9047 20.9329 87.3949 19.4231C85.8814 17.9096 83.8179 16.9905 81.5329 16.9905C79.2479 16.9905 77.1807 17.9133 75.6709 19.4231C74.1574 20.9366 73.2383 23.0001 73.2383 25.2851C73.2383 27.5701 74.1611 29.6373 75.6709 31.1471C77.1844 32.6606 79.2479 33.5798 81.5329 33.5798C83.7441 33.5798 85.7744 32.6938 87.2472 31.2948L87.7271 34.0227C85.9922 35.2778 83.8179 36.0124 81.5329 36.0124L81.5661 35.9829Z" fill="black"/>
<path d="M5.89397 24.329C6.07855 24.0706 6.15237 23.7753 6.07855 23.4799L2.28006 0.951149C2.24315 0.61892 2.05858 0.36052 1.80018 0.212863C1.54178 0.0282914 1.24646 -0.0455372 0.951149 0.0282914C0.61892 0.0652057 0.36052 0.249777 0.212863 0.508177C0.0282914 0.766577 -0.0455372 1.06189 0.0282914 1.35721L3.82677 23.8897C3.86369 24.2219 4.04826 24.4803 4.30666 24.628C4.56506 24.8126 4.86037 24.8864 5.15569 24.8126C5.48792 24.772 5.74632 24.5874 5.89397 24.329Z" fill="black"/>
<path d="M52.7639 24.329C52.9485 24.0706 53.0223 23.7753 52.9485 23.4799L49.15 0.951149C49.1131 0.61892 48.9285 0.36052 48.6701 0.212863C48.4486 0.0282914 48.1164 -0.0455372 47.8211 0.0282914C47.8211 0.0282914 47.8211 0.0282914 47.7842 0.0282914C47.4888 0.0652057 47.2304 0.249777 47.0459 0.508177C46.8613 0.729663 46.7875 1.06189 46.8613 1.35721C46.8613 1.35721 46.8613 1.35721 46.8613 1.39412L50.6598 23.8897C50.6967 24.2219 50.8813 24.4803 51.1397 24.628C51.3981 24.8126 51.6934 24.8864 51.9887 24.8126C52.3209 24.7756 52.5793 24.5911 52.727 24.3327H52.7639V24.329Z" fill="black"/>
<path d="M90.4527 35.8724C90.6373 35.651 90.7111 35.3187 90.6373 35.0234L89.1607 26.5774C89.1607 26.5774 89.1607 26.5774 89.1607 26.5405C89.1238 26.2452 88.9392 25.9868 88.6808 25.8022C88.4594 25.6176 88.1271 25.5438 87.8318 25.6176C87.8318 25.6176 87.8318 25.6176 87.7949 25.6176C87.4996 25.6546 87.2412 25.8391 87.0566 26.0975C86.872 26.319 86.7982 26.6512 86.872 26.9466C87.2043 28.6077 88.3855 34.0636 88.3855 35.3926C88.4224 35.7248 88.607 35.9832 88.8654 36.1308C89.1238 36.3154 89.4191 36.3892 89.7144 36.3154C90.0467 36.2785 90.3051 36.0939 90.4527 35.8355V35.8724Z" fill="black"/>
</svg>
