<svg width="134" height="21" viewBox="0 0 134 21" fill="none" xmlns="http://www.w3.org/2000/svg">
<path d="M41.407 19.6514C40.0697 19.6514 38.8254 19.4397 37.6743 19.0165C36.5231 18.5763 35.5159 17.95 34.6526 17.1375C33.7892 16.3249 33.1205 15.36 32.6465 14.2427C32.1726 13.1085 31.9355 11.8643 31.9355 10.51C31.9355 9.22345 32.1895 8.03 32.6973 6.92964C33.2052 5.82929 33.8993 4.87284 34.7795 4.06027C35.6598 3.23079 36.6755 2.59597 37.8266 2.15582C38.9778 1.69876 40.2051 1.47022 41.5086 1.47022C42.5243 1.47022 43.5061 1.61411 44.4541 1.9019C45.419 2.17275 46.2824 2.53671 47.0442 2.99378C47.8228 3.45085 48.4493 3.95023 48.9232 4.49195L47.1965 6.62493C46.6379 6.11708 46.0539 5.6854 45.4444 5.3299C44.835 4.95749 44.1917 4.67817 43.5146 4.49195C42.8375 4.28881 42.118 4.18724 41.3562 4.18724C40.4929 4.18724 39.6634 4.33959 38.8677 4.6443C38.0721 4.94901 37.3611 5.38069 36.7348 5.93933C36.1253 6.48104 35.6344 7.14125 35.262 7.91995C34.9065 8.69866 34.7287 9.562 34.7287 10.51C34.7287 11.5257 34.9065 12.4314 35.262 13.227C35.6344 14.0227 36.1423 14.6998 36.7855 15.2584C37.4458 15.8001 38.1906 16.2149 39.0201 16.5027C39.8665 16.7905 40.7637 16.9343 41.7117 16.9343C42.5412 16.9343 43.2945 16.8328 43.9717 16.6296C44.6488 16.4096 45.2667 16.1302 45.8253 15.7917C46.384 15.4362 46.8918 15.0722 47.3489 14.6998L48.6947 16.9597C48.2545 17.3829 47.6536 17.8062 46.8918 18.2294C46.147 18.6356 45.3005 18.9743 44.3525 19.2451C43.4215 19.5159 42.4396 19.6514 41.407 19.6514ZM51.6823 19.3974L59.554 1.62258H62.5757L70.4221 19.3974H67.4511L62.3218 7.81838C62.2034 7.59832 62.0679 7.30206 61.9155 6.92964C61.78 6.55722 61.6277 6.16786 61.4585 5.76158C61.3061 5.33838 61.1537 4.93209 61.0014 4.54273C60.8659 4.13645 60.7475 3.78942 60.6459 3.50163L61.3569 3.47624C61.2214 3.83174 61.0776 4.20416 60.9252 4.59352C60.7897 4.98288 60.6459 5.38069 60.4935 5.78697C60.3412 6.17633 60.1888 6.55722 60.0365 6.92964C59.8841 7.28514 59.7403 7.61524 59.6048 7.91995L54.5263 19.3974H51.6823ZM55.1357 15.1315L56.1768 12.4906H65.6482L66.41 15.1315H55.1357ZM74.6946 19.3974V1.62258H77.31L90.1587 16.1726L89.9048 16.4011C89.8201 15.9271 89.7524 15.4193 89.7016 14.8775C89.6508 14.3358 89.6001 13.7687 89.5493 13.1762C89.5153 12.5668 89.4816 11.9489 89.4477 11.3226C89.4308 10.6793 89.4138 10.036 89.3969 9.39273C89.3969 8.74944 89.3969 8.10617 89.3969 7.46289V1.62258H92.1393V19.3974H89.4731L76.8022 5.38069L76.9291 5.02519C76.9799 5.65154 77.0307 6.24404 77.0815 6.80268C77.1323 7.34439 77.1745 7.86917 77.2084 8.37702C77.2592 8.86795 77.3015 9.32502 77.3354 9.74822C77.3693 10.1714 77.3947 10.5777 77.4116 10.9671C77.4284 11.3395 77.437 11.6865 77.437 12.0082V19.3974H74.6946ZM102.59 19.3974V4.26341H96.5973V1.62258H111.452V4.26341H105.332V19.3974H102.59ZM123.648 19.6514C122.226 19.6514 120.914 19.4228 119.712 18.9658C118.527 18.4918 117.486 17.8399 116.589 17.0105C115.708 16.181 115.023 15.2161 114.532 14.1158C114.058 12.9985 113.821 11.7966 113.821 10.51C113.821 9.22345 114.058 8.03 114.532 6.92964C115.023 5.81236 115.708 4.83897 116.589 4.00949C117.486 3.18 118.527 2.53671 119.712 2.07965C120.914 1.60566 122.226 1.36865 123.648 1.36865C125.087 1.36865 126.399 1.59719 127.584 2.05425C128.786 2.51132 129.827 3.16306 130.707 4.00949C131.604 4.83897 132.29 5.81236 132.764 6.92964C133.255 8.03 133.5 9.22345 133.5 10.51C133.5 11.7966 133.255 12.9985 132.764 14.1158C132.29 15.2161 131.604 16.1895 130.707 17.0359C129.827 17.8653 128.786 18.5087 127.584 18.9658C126.399 19.4228 125.087 19.6514 123.648 19.6514ZM123.673 16.9851C124.706 16.9851 125.645 16.8243 126.492 16.5027C127.355 16.1641 128.1 15.707 128.726 15.1315C129.353 14.539 129.835 13.8534 130.174 13.0747C130.529 12.279 130.707 11.4241 130.707 10.51C130.707 9.59587 130.529 8.74944 130.174 7.97074C129.835 7.1751 129.353 6.4895 128.726 5.91394C128.1 5.32143 127.355 4.86437 126.492 4.54273C125.628 4.20416 124.689 4.03488 123.673 4.03488C122.641 4.03488 121.693 4.20416 120.829 4.54273C119.966 4.86437 119.213 5.31298 118.569 5.88854C117.943 6.4641 117.461 7.1497 117.122 7.94535C116.783 8.72405 116.614 9.57895 116.614 10.51C116.614 11.4241 116.783 12.279 117.122 13.0747C117.461 13.8703 117.943 14.5559 118.569 15.1315C119.213 15.707 119.966 16.1641 120.829 16.5027C121.693 16.8243 122.641 16.9851 123.673 16.9851Z" fill="black"/>
<path d="M37.6746 19.0166L37.5329 19.3871L37.5353 19.3881L37.5377 19.3889L37.6746 19.0166ZM32.6468 14.2428L32.2807 14.3957L32.2816 14.3977L32.6468 14.2428ZM34.7798 4.0603L35.0489 4.35184L35.0504 4.35045L35.0519 4.34907L34.7798 4.0603ZM37.8269 2.15586L37.9686 2.52645L37.971 2.52554L37.9733 2.5246L37.8269 2.15586ZM44.4544 1.90193L44.3391 2.28159L44.3431 2.2828L44.3472 2.28393L44.4544 1.90193ZM47.0444 2.99381L46.8403 3.33403L46.842 3.33501L46.8436 3.33598L47.0444 2.99381ZM48.9235 4.49198L49.2318 4.74162L49.4421 4.48204L49.2221 4.23071L48.9235 4.49198ZM47.1968 6.62496L46.9299 6.91854L47.2408 7.20117L47.5051 6.8746L47.1968 6.62496ZM45.4447 5.32994L45.2378 5.66849L45.2413 5.67059L45.2448 5.67266L45.4447 5.32994ZM43.5149 4.49198L43.4009 4.87201L43.4052 4.87332L43.4097 4.87453L43.5149 4.49198ZM36.735 5.93936L36.9986 6.2359L36.9991 6.23546L36.735 5.93936ZM35.2623 7.91999L34.9043 7.7488L34.9028 7.752L34.9013 7.75521L35.2623 7.91999ZM35.2623 13.227L34.9 13.3889L34.9014 13.3921L34.9029 13.3953L35.2623 13.227ZM36.7858 15.2585L36.5257 15.558L36.5298 15.5617L36.5342 15.5652L36.7858 15.2585ZM39.0204 16.5027L38.8903 16.8775L38.8927 16.8783L39.0204 16.5027ZM43.9719 16.6297L44.0859 17.0097L44.0903 17.0084L44.0946 17.007L43.9719 16.6297ZM45.8256 15.7917L46.0312 16.131L46.0349 16.1288L46.0386 16.1264L45.8256 15.7917ZM47.3492 14.6998L47.69 14.4968L47.4549 14.1019L47.0985 14.3922L47.3492 14.6998ZM48.695 16.9598L48.9699 17.2458L49.1971 17.0274L49.0358 16.7568L48.695 16.9598ZM46.8921 18.2294L47.0821 18.5777L47.0834 18.577L47.0848 18.5762L46.8921 18.2294ZM44.3528 19.2451L44.2438 18.8636L44.242 18.8642L44.3528 19.2451ZM41.4073 19.2546C40.1124 19.2546 38.9149 19.0499 37.8115 18.6442L37.5377 19.3889C38.7364 19.8297 40.0274 20.0481 41.4073 20.0481V19.2546ZM37.8163 18.646C36.7115 18.2236 35.749 17.6243 34.9248 16.8486L34.3809 17.4264C35.2834 18.2758 36.3354 18.9293 37.5329 19.3871L37.8163 18.646ZM34.9248 16.8486C34.1024 16.0746 33.4651 15.1557 33.0121 14.0878L32.2816 14.3977C32.7765 15.5644 33.4765 16.5753 34.3809 17.4264L34.9248 16.8486ZM33.0129 14.0898C32.5611 13.0087 32.3326 11.8171 32.3326 10.51H31.5391C31.5391 11.9115 31.7845 13.2084 32.2807 14.3957L33.0129 14.0898ZM32.3326 10.51C32.3326 9.27728 32.5755 8.14098 33.0578 7.09593L32.3374 6.76341C31.804 7.91905 31.5391 9.16968 31.5391 10.51H32.3326ZM33.0578 7.09593C33.5441 6.04236 34.2074 5.12862 35.0489 4.35184L34.5107 3.76876C33.5916 4.61712 32.8668 5.61628 32.3374 6.76341L33.0578 7.09593ZM35.0519 4.34907C35.8937 3.55578 36.8649 2.94844 37.9686 2.52645L37.6852 1.78526C36.4866 2.24354 35.4264 2.90583 34.5077 3.77154L35.0519 4.34907ZM37.9733 2.5246C39.0755 2.087 40.2528 1.86701 41.5088 1.86701V1.07349C40.1579 1.07349 38.8807 1.31058 37.6805 1.78711L37.9733 2.5246ZM41.5088 1.86701C42.4865 1.86701 43.4295 2.00542 44.3391 2.28159L44.5697 1.52227C43.5833 1.22287 42.5626 1.07349 41.5088 1.07349V1.86701ZM44.3472 2.28393C45.2824 2.54643 46.1124 2.8973 46.8403 3.33403L47.2486 2.65359C46.4529 2.17619 45.5563 1.79913 44.5616 1.51993L44.3472 2.28393ZM46.8436 3.33598C47.5946 3.77674 48.1851 4.25053 48.6249 4.75324L49.2221 4.23071C48.714 3.65001 48.0518 3.12502 47.2453 2.65165L46.8436 3.33598ZM48.6152 4.24234L46.8884 6.37532L47.5051 6.8746L49.2318 4.74162L48.6152 4.24234ZM47.4636 6.33138C46.8859 5.80615 46.2796 5.35765 45.6446 4.98721L45.2448 5.67266C45.8286 6.01322 46.3904 6.42807 46.9299 6.91854L47.4636 6.33138ZM45.6516 4.99138C45.011 4.59994 44.3336 4.30564 43.6201 4.10942L43.4097 4.87453C44.0504 5.05074 44.6595 5.31508 45.2378 5.66849L45.6516 4.99138ZM43.6289 4.11194C42.912 3.89688 42.1539 3.79051 41.3565 3.79051V4.58403C42.0826 4.58403 42.7635 4.68078 43.4009 4.87201L43.6289 4.11194ZM41.3565 3.79051C40.4453 3.79051 39.5677 3.95151 38.7261 4.27382L39.0099 5.01485C39.7596 4.72771 40.541 4.58403 41.3565 4.58403V3.79051ZM38.7261 4.27382C37.8863 4.59545 37.1337 5.05212 36.4709 5.64326L36.9991 6.23546C37.589 5.70932 38.2585 5.30264 39.0099 5.01485L38.7261 4.27382ZM36.4714 5.64282C35.8203 6.22165 35.2982 6.92529 34.9043 7.7488L35.6202 8.09117C35.9712 7.35728 36.431 6.7405 36.9986 6.2359L36.4714 5.64282ZM34.9013 7.75521C34.5198 8.59096 34.3323 9.51135 34.3323 10.51H35.1258C35.1258 9.61274 35.2937 8.80643 35.6232 8.08476L34.9013 7.75521ZM34.3323 10.51C34.3323 11.5724 34.5183 12.5346 34.9 13.3889L35.6245 13.0652C35.2952 12.3282 35.1258 11.4791 35.1258 10.51H34.3323ZM34.9029 13.3953C35.2981 14.2395 35.8392 14.9619 36.5257 15.558L37.046 14.9589C36.4459 14.4378 35.9713 13.8058 35.6216 13.0588L34.9029 13.3953ZM36.5342 15.5652C37.2316 16.1374 38.0178 16.5748 38.8903 16.8775L39.1504 16.1279C38.3639 15.855 37.6605 15.4629 37.0375 14.9517L36.5342 15.5652ZM38.8927 16.8783C39.7826 17.1809 40.7232 17.3311 41.712 17.3311V16.5376C40.8048 16.5376 39.9509 16.4 39.1481 16.1271L38.8927 16.8783ZM41.712 17.3311C42.5736 17.3311 43.3661 17.2257 44.0859 17.0097L43.8579 16.2496C43.2235 16.4399 42.5094 16.5376 41.712 16.5376V17.3311ZM44.0946 17.007C44.7982 16.7783 45.4443 16.4867 46.0312 16.131L45.62 15.4524C45.0896 15.7738 44.5 16.0408 43.8493 16.2523L44.0946 17.007ZM46.0386 16.1264C46.6087 15.7636 47.1293 15.3907 47.5997 15.0074L47.0985 14.3922C46.6548 14.7538 46.1597 15.1088 45.6126 15.457L46.0386 16.1264ZM47.0083 14.9028L48.3541 17.1628L49.0358 16.7568L47.69 14.4968L47.0083 14.9028ZM48.42 16.6738C48.0125 17.0655 47.4428 17.4696 46.6994 17.8826L47.0848 18.5762C47.8649 18.1429 48.4972 17.7005 48.9699 17.2458L48.42 16.6738ZM46.7021 17.881C45.9867 18.2713 45.1681 18.5996 44.2438 18.8636L44.4618 19.6266C45.4335 19.3491 46.3078 19.0001 47.0821 18.5777L46.7021 17.881ZM44.242 18.8642C43.3492 19.1239 42.4049 19.2546 41.4073 19.2546V20.0481C42.475 20.0481 43.4943 19.9081 44.4637 19.626L44.242 18.8642ZM51.6826 19.3975L51.3197 19.2368L51.0729 19.7942H51.6826V19.3975ZM59.5543 1.62261V1.22585H59.296L59.1914 1.46194L59.5543 1.62261ZM62.576 1.62261L62.939 1.46238L62.8345 1.22585H62.576V1.62261ZM70.4223 19.3975V19.7942H71.0312L70.7854 19.2372L70.4223 19.3975ZM67.4514 19.3975L67.0886 19.5581L67.1933 19.7942H67.4514V19.3975ZM62.3221 7.81841L62.6849 7.65773L62.6786 7.64376L62.6714 7.63031L62.3221 7.81841ZM61.9158 6.92967L61.5428 7.06526L61.5456 7.07264L61.5486 7.07991L61.9158 6.92967ZM61.4587 5.76161L61.0854 5.89599L61.0888 5.9052L61.0925 5.9142L61.4587 5.76161ZM61.0017 4.54276L60.6253 4.66822L60.6285 4.67788L60.6323 4.68734L61.0017 4.54276ZM60.6462 3.50167L60.6321 3.10516L60.0923 3.12443L60.272 3.63371L60.6462 3.50167ZM61.3572 3.47627L61.7279 3.61752L61.941 3.05841L61.3431 3.07977L61.3572 3.47627ZM60.9255 4.59355L60.5561 4.44897L60.5533 4.45603L60.5508 4.46321L60.9255 4.59355ZM60.4938 5.787L60.8632 5.93158L60.8644 5.92896L60.8654 5.92631L60.4938 5.787ZM60.0367 6.92967L60.4014 7.08596L60.4028 7.08294L60.4039 7.07991L60.0367 6.92967ZM59.6051 7.91999L59.2424 7.75884L59.2422 7.75944L59.6051 7.91999ZM54.5265 19.3975V19.7942H54.7848L54.8894 19.5579L54.5265 19.3975ZM55.136 15.1315L54.7668 14.986L54.5531 15.5283H55.136V15.1315ZM56.1771 12.4907V12.0939H55.9071L55.8079 12.3451L56.1771 12.4907ZM65.6485 12.4907L66.0298 12.3807L65.9471 12.0939H65.6485V12.4907ZM66.4103 15.1315V15.5283H66.9376L66.7916 15.0215L66.4103 15.1315ZM52.0454 19.5581L59.9171 1.78326L59.1914 1.46194L51.3197 19.2368L52.0454 19.5581ZM59.5543 2.01937H62.576V1.22585H59.5543V2.01937ZM62.213 1.78284L70.0593 19.5577L70.7854 19.2372L62.939 1.46238L62.213 1.78284ZM70.4223 19.0007H67.4514V19.7942H70.4223V19.0007ZM67.8142 19.2368L62.6849 7.65773L61.9592 7.9791L67.0886 19.5581L67.8142 19.2368ZM62.6714 7.63031C62.5623 7.42762 62.4328 7.14571 62.283 6.77944L61.5486 7.07991C61.7035 7.45849 61.845 7.76906 61.9727 8.00652L62.6714 7.63031ZM62.2888 6.79408C62.1509 6.41535 61.9963 6.0203 61.8249 5.60902L61.0925 5.9142C61.2598 6.31549 61.4097 6.69913 61.5428 7.06526L62.2888 6.79408ZM61.8321 5.62723C61.6785 5.20085 61.525 4.79116 61.371 4.39818L60.6323 4.68734C60.783 5.07307 60.9342 5.47594 61.0854 5.89599L61.8321 5.62723ZM61.378 4.41729C61.2421 4.00962 61.1229 3.66025 61.0203 3.36962L60.272 3.63371C60.3726 3.91864 60.4902 4.26335 60.6253 4.66822L61.378 4.41729ZM60.6603 3.89817L61.3712 3.87277L61.3431 3.07977L60.6321 3.10516L60.6603 3.89817ZM60.9864 3.33503C60.8515 3.68931 60.7081 4.06062 60.5561 4.44897L61.2949 4.73813C61.4476 4.34778 61.592 3.97423 61.7279 3.61752L60.9864 3.33503ZM60.5508 4.46321C60.4164 4.8494 60.2736 5.24424 60.1222 5.6477L60.8654 5.92631C61.0187 5.51721 61.1637 5.1164 61.3002 4.72388L60.5508 4.46321ZM60.1244 5.64242C59.9727 6.02996 59.8211 6.40896 59.6695 6.77944L60.4039 7.07991C60.5571 6.70552 60.7102 6.32275 60.8632 5.93158L60.1244 5.64242ZM59.6721 6.77339C59.5204 7.1275 59.3771 7.45597 59.2424 7.75884L59.9677 8.08113C60.1038 7.77457 60.2484 7.44284 60.4014 7.08596L59.6721 6.77339ZM59.2422 7.75944L54.1637 19.237L54.8894 19.5579L59.9679 8.08053L59.2422 7.75944ZM54.5265 19.0007H51.6826V19.7942H54.5265V19.0007ZM55.5051 15.277L56.5462 12.6362L55.8079 12.3451L54.7668 14.986L55.5051 15.277ZM56.1771 12.8874H65.6485V12.0939H56.1771V12.8874ZM65.2672 12.6006L66.029 15.2415L66.7916 15.0215L66.0298 12.3807L65.2672 12.6006ZM66.4103 14.7347H55.136V15.5283H66.4103V14.7347ZM74.6948 19.3975H74.2981V19.7942H74.6948V19.3975ZM74.6948 1.62261V1.22585H74.2981V1.62261H74.6948ZM77.3103 1.62261L77.6077 1.35997L77.4892 1.22585H77.3103V1.62261ZM90.159 16.1726L90.4244 16.4675L90.7166 16.2046L90.4563 15.91L90.159 16.1726ZM89.905 16.4011L89.5144 16.4709L89.64 17.1735L90.1705 16.696L89.905 16.4011ZM89.5495 13.1763L89.1534 13.1983L89.1538 13.2042L89.1542 13.2101L89.5495 13.1763ZM89.448 11.3226L89.0514 11.333V11.3385L89.0518 11.344L89.448 11.3226ZM89.3972 9.39276H89.0004V9.39797L89.0006 9.40319L89.3972 9.39276ZM89.3972 1.62261V1.22585H89.0004V1.62261H89.3972ZM92.1396 1.62261H92.5364V1.22585H92.1396V1.62261ZM92.1396 19.3975V19.7942H92.5364V19.3975H92.1396ZM89.4734 19.3975L89.179 19.6635L89.2972 19.7942H89.4734V19.3975ZM76.8024 5.38072L76.4289 5.24727L76.3489 5.47075L76.508 5.64679L76.8024 5.38072ZM76.9294 5.02522L77.3248 4.99317L76.5558 4.89177L76.9294 5.02522ZM77.0818 6.80271L76.6866 6.83863L76.6868 6.83975L77.0818 6.80271ZM77.2087 8.37705L76.8128 8.40344L76.8133 8.41068L76.8141 8.41788L77.2087 8.37705ZM77.4119 10.9671L77.0155 10.9843V10.9851L77.4119 10.9671ZM77.4372 19.3975V19.7942H77.834V19.3975H77.4372ZM75.0916 19.3975V1.62261H74.2981V19.3975H75.0916ZM74.6948 2.01937H77.3103V1.22585H74.6948V2.01937ZM77.0129 1.88523L89.8616 16.4352L90.4563 15.91L77.6077 1.35997L77.0129 1.88523ZM89.8935 15.8777L89.6396 16.1062L90.1705 16.696L90.4244 16.4675L89.8935 15.8777ZM90.2956 16.3314C90.2131 15.8695 90.1469 15.3727 90.0969 14.8405L89.3069 14.9146C89.3585 15.4659 89.4277 15.9847 89.5144 16.4709L90.2956 16.3314ZM90.0969 14.8405C90.0463 14.3 89.9955 13.7339 89.9449 13.1424L89.1542 13.2101C89.2052 13.8036 89.2559 14.3718 89.3069 14.9146L90.0969 14.8405ZM89.9457 13.1543C89.9118 12.545 89.8781 11.9273 89.8441 11.3012L89.0518 11.344C89.0857 11.9706 89.1195 12.5886 89.1534 13.1983L89.9457 13.1543ZM89.8445 11.3122C89.8277 10.6689 89.8108 10.0256 89.7937 9.38232L89.0006 9.40319C89.0175 10.0465 89.0343 10.6897 89.0514 11.333L89.8445 11.3122ZM89.7939 9.39276C89.7939 9.39151 89.7939 9.39024 89.7939 9.38899C89.7939 9.38774 89.7939 9.38647 89.7939 9.38522C89.7939 9.38397 89.7939 9.3827 89.7939 9.38145C89.7939 9.3802 89.7939 9.37893 89.7939 9.37768C89.7939 9.37643 89.7939 9.37516 89.7939 9.37391C89.7939 9.37266 89.7939 9.37139 89.7939 9.37014C89.7939 9.36889 89.7939 9.36762 89.7939 9.36637C89.7939 9.36512 89.7939 9.36385 89.7939 9.3626C89.7939 9.36135 89.7939 9.36008 89.7939 9.35884C89.7939 9.35758 89.7939 9.35631 89.7939 9.35506C89.7939 9.35382 89.7939 9.35255 89.7939 9.3513C89.7939 9.35005 89.7939 9.34878 89.7939 9.34753C89.7939 9.34628 89.7939 9.34501 89.7939 9.34376C89.7939 9.34251 89.7939 9.34124 89.7939 9.33999C89.7939 9.33874 89.7939 9.33747 89.7939 9.33622C89.7939 9.33497 89.7939 9.3337 89.7939 9.33245C89.7939 9.3312 89.7939 9.32993 89.7939 9.32868C89.7939 9.32743 89.7939 9.32616 89.7939 9.32491C89.7939 9.32366 89.7939 9.32239 89.7939 9.32114C89.7939 9.31989 89.7939 9.31862 89.7939 9.31737C89.7939 9.31612 89.7939 9.31485 89.7939 9.3136C89.7939 9.31235 89.7939 9.31108 89.7939 9.30983C89.7939 9.30859 89.7939 9.30732 89.7939 9.30607C89.7939 9.30482 89.7939 9.30355 89.7939 9.3023C89.7939 9.30105 89.7939 9.29978 89.7939 9.29853C89.7939 9.29728 89.7939 9.29601 89.7939 9.29476C89.7939 9.29351 89.7939 9.29224 89.7939 9.29099C89.7939 9.28974 89.7939 9.28847 89.7939 9.28722C89.7939 9.28597 89.7939 9.2847 89.7939 9.28345C89.7939 9.2822 89.7939 9.28093 89.7939 9.27968C89.7939 9.27843 89.7939 9.27716 89.7939 9.27591C89.7939 9.27466 89.7939 9.27339 89.7939 9.27214C89.7939 9.27089 89.7939 9.26962 89.7939 9.26837C89.7939 9.26712 89.7939 9.26585 89.7939 9.2646C89.7939 9.26336 89.7939 9.26208 89.7939 9.26083C89.7939 9.25958 89.7939 9.25832 89.7939 9.25707C89.7939 9.25582 89.7939 9.25455 89.7939 9.2533C89.7939 9.25205 89.7939 9.25078 89.7939 9.24953C89.7939 9.24828 89.7939 9.24701 89.7939 9.24576C89.7939 9.24451 89.7939 9.24324 89.7939 9.24199C89.7939 9.24074 89.7939 9.23947 89.7939 9.23822C89.7939 9.23697 89.7939 9.2357 89.7939 9.23445C89.7939 9.2332 89.7939 9.23193 89.7939 9.23068C89.7939 9.22943 89.7939 9.22816 89.7939 9.22691C89.7939 9.22566 89.7939 9.22439 89.7939 9.22314C89.7939 9.22189 89.7939 9.22062 89.7939 9.21937C89.7939 9.21812 89.7939 9.21685 89.7939 9.2156C89.7939 9.21435 89.7939 9.21308 89.7939 9.21183C89.7939 9.21058 89.7939 9.20932 89.7939 9.20807C89.7939 9.20682 89.7939 9.20555 89.7939 9.2043C89.7939 9.20305 89.7939 9.20178 89.7939 9.20053C89.7939 9.19928 89.7939 9.19801 89.7939 9.19676C89.7939 9.19551 89.7939 9.19424 89.7939 9.19299C89.7939 9.19174 89.7939 9.19047 89.7939 9.18922C89.7939 9.18797 89.7939 9.1867 89.7939 9.18545C89.7939 9.1842 89.7939 9.18293 89.7939 9.18168C89.7939 9.18043 89.7939 9.17916 89.7939 9.17791C89.7939 9.17666 89.7939 9.17539 89.7939 9.17414C89.7939 9.17289 89.7939 9.17162 89.7939 9.17037C89.7939 9.16912 89.7939 9.16785 89.7939 9.1666C89.7939 9.16535 89.7939 9.16409 89.7939 9.16284C89.7939 9.16159 89.7939 9.16032 89.7939 9.15907C89.7939 9.15782 89.7939 9.15655 89.7939 9.1553C89.7939 9.15405 89.7939 9.15278 89.7939 9.15153C89.7939 9.15028 89.7939 9.14901 89.7939 9.14776C89.7939 9.14651 89.7939 9.14524 89.7939 9.14399C89.7939 9.14274 89.7939 9.14147 89.7939 9.14022C89.7939 9.13897 89.7939 9.1377 89.7939 9.13645C89.7939 9.1352 89.7939 9.13393 89.7939 9.13268C89.7939 9.13143 89.7939 9.13016 89.7939 9.12891C89.7939 9.12766 89.7939 9.12639 89.7939 9.12514C89.7939 9.12389 89.7939 9.12262 89.7939 9.12137C89.7939 9.12012 89.7939 9.11885 89.7939 9.1176C89.7939 9.11635 89.7939 9.11509 89.7939 9.11384C89.7939 9.11259 89.7939 9.11132 89.7939 9.11007C89.7939 9.10882 89.7939 9.10755 89.7939 9.1063C89.7939 9.10505 89.7939 9.10378 89.7939 9.10253C89.7939 9.10128 89.7939 9.10001 89.7939 9.09876C89.7939 9.09751 89.7939 9.09624 89.7939 9.09499C89.7939 9.09374 89.7939 9.09247 89.7939 9.09122C89.7939 9.08997 89.7939 9.0887 89.7939 9.08745C89.7939 9.0862 89.7939 9.08493 89.7939 9.08368C89.7939 9.08243 89.7939 9.08116 89.7939 9.07991C89.7939 9.07866 89.7939 9.07739 89.7939 9.07614C89.7939 9.07489 89.7939 9.07362 89.7939 9.07237C89.7939 9.07112 89.7939 9.06985 89.7939 9.0686C89.7939 9.06735 89.7939 9.06608 89.7939 9.06484C89.7939 9.06359 89.7939 9.06232 89.7939 9.06107C89.7939 9.05982 89.7939 9.05855 89.7939 9.0573C89.7939 9.05605 89.7939 9.05478 89.7939 9.05353C89.7939 9.05228 89.7939 9.05101 89.7939 9.04976C89.7939 9.04851 89.7939 9.04724 89.7939 9.04599C89.7939 9.04474 89.7939 9.04347 89.7939 9.04222C89.7939 9.04097 89.7939 9.0397 89.7939 9.03845C89.7939 9.0372 89.7939 9.03593 89.7939 9.03468C89.7939 9.03343 89.7939 9.03216 89.7939 9.03091C89.7939 9.02966 89.7939 9.02839 89.7939 9.02714C89.7939 9.02589 89.7939 9.02462 89.7939 9.02337C89.7939 9.02212 89.7939 9.02085 89.7939 9.01961C89.7939 9.01836 89.7939 9.01709 89.7939 9.01583C89.7939 9.01459 89.7939 9.01332 89.7939 9.01207C89.7939 9.01082 89.7939 9.00955 89.7939 9.0083C89.7939 9.00705 89.7939 9.00578 89.7939 9.00453C89.7939 9.00328 89.7939 9.00201 89.7939 9.00076C89.7939 8.99951 89.7939 8.99824 89.7939 8.99699C89.7939 8.99574 89.7939 8.99447 89.7939 8.99322C89.7939 8.99197 89.7939 8.9907 89.7939 8.98945C89.7939 8.9882 89.7939 8.98693 89.7939 8.98568C89.7939 8.98443 89.7939 8.98316 89.7939 8.98191C89.7939 8.98066 89.7939 8.97939 89.7939 8.97814C89.7939 8.97689 89.7939 8.97562 89.7939 8.97437C89.7939 8.97312 89.7939 8.97185 89.7939 8.9706C89.7939 8.96936 89.7939 8.96809 89.7939 8.96684C89.7939 8.96559 89.7939 8.96432 89.7939 8.96307C89.7939 8.96182 89.7939 8.96055 89.7939 8.9593C89.7939 8.95805 89.7939 8.95678 89.7939 8.95553C89.7939 8.95428 89.7939 8.95301 89.7939 8.95176C89.7939 8.95051 89.7939 8.94924 89.7939 8.94799C89.7939 8.94674 89.7939 8.94547 89.7939 8.94422C89.7939 8.94297 89.7939 8.9417 89.7939 8.94045C89.7939 8.9392 89.7939 8.93793 89.7939 8.93668C89.7939 8.93543 89.7939 8.93416 89.7939 8.93291C89.7939 8.93166 89.7939 8.93039 89.7939 8.92914C89.7939 8.92789 89.7939 8.92662 89.7939 8.92537C89.7939 8.92413 89.7939 8.92285 89.7939 8.92161C89.7939 8.92036 89.7939 8.91909 89.7939 8.91784C89.7939 8.91659 89.7939 8.91532 89.7939 8.91407C89.7939 8.91282 89.7939 8.91155 89.7939 8.9103C89.7939 8.90905 89.7939 8.90778 89.7939 8.90653C89.7939 8.90528 89.7939 8.90401 89.7939 8.90276C89.7939 8.90151 89.7939 8.90024 89.7939 8.89899C89.7939 8.89774 89.7939 8.89647 89.7939 8.89522C89.7939 8.89397 89.7939 8.8927 89.7939 8.89145C89.7939 8.8902 89.7939 8.88893 89.7939 8.88768C89.7939 8.88643 89.7939 8.88516 89.7939 8.88391C89.7939 8.88266 89.7939 8.88139 89.7939 8.88014C89.7939 8.87889 89.7939 8.87762 89.7939 8.87637C89.7939 8.87512 89.7939 8.87385 89.7939 8.8726C89.7939 8.87136 89.7939 8.87009 89.7939 8.86884C89.7939 8.86759 89.7939 8.86632 89.7939 8.86507C89.7939 8.86382 89.7939 8.86255 89.7939 8.8613C89.7939 8.86005 89.7939 8.85878 89.7939 8.85753C89.7939 8.85628 89.7939 8.85501 89.7939 8.85376C89.7939 8.85251 89.7939 8.85124 89.7939 8.84999C89.7939 8.84874 89.7939 8.84747 89.7939 8.84622C89.7939 8.84497 89.7939 8.8437 89.7939 8.84245C89.7939 8.8412 89.7939 8.83993 89.7939 8.83868C89.7939 8.83743 89.7939 8.83616 89.7939 8.83491C89.7939 8.83366 89.7939 8.83239 89.7939 8.83114C89.7939 8.82989 89.7939 8.82862 89.7939 8.82737C89.7939 8.82613 89.7939 8.82486 89.7939 8.82361C89.7939 8.82236 89.7939 8.82109 89.7939 8.81984C89.7939 8.81859 89.7939 8.81732 89.7939 8.81607C89.7939 8.81482 89.7939 8.81355 89.7939 8.8123C89.7939 8.81105 89.7939 8.80978 89.7939 8.80853C89.7939 8.80728 89.7939 8.80601 89.7939 8.80476C89.7939 8.80351 89.7939 8.80224 89.7939 8.80099C89.7939 8.79974 89.7939 8.79847 89.7939 8.79722C89.7939 8.79597 89.7939 8.7947 89.7939 8.79345C89.7939 8.7922 89.7939 8.79093 89.7939 8.78968C89.7939 8.78843 89.7939 8.78716 89.7939 8.78591C89.7939 8.78466 89.7939 8.78339 89.7939 8.78214C89.7939 8.78089 89.7939 8.77962 89.7939 8.77837C89.7939 8.77712 89.7939 8.77586 89.7939 8.77461C89.7939 8.77336 89.7939 8.77209 89.7939 8.77084C89.7939 8.76959 89.7939 8.76832 89.7939 8.76707C89.7939 8.76582 89.7939 8.76455 89.7939 8.7633C89.7939 8.76205 89.7939 8.76078 89.7939 8.75953C89.7939 8.75828 89.7939 8.75701 89.7939 8.75576C89.7939 8.75451 89.7939 8.75324 89.7939 8.75199C89.7939 8.75074 89.7939 8.74947 89.7939 8.74822C89.7939 8.74697 89.7939 8.7457 89.7939 8.74445C89.7939 8.7432 89.7939 8.74193 89.7939 8.74068C89.7939 8.73943 89.7939 8.73816 89.7939 8.73691C89.7939 8.73566 89.7939 8.73439 89.7939 8.73314C89.7939 8.73189 89.7939 8.73062 89.7939 8.72937C89.7939 8.72812 89.7939 8.72686 89.7939 8.72561C89.7939 8.72436 89.7939 8.72309 89.7939 8.72184C89.7939 8.72059 89.7939 8.71932 89.7939 8.71807C89.7939 8.71682 89.7939 8.71555 89.7939 8.7143C89.7939 8.71305 89.7939 8.71178 89.7939 8.71053C89.7939 8.70928 89.7939 8.70801 89.7939 8.70676C89.7939 8.70551 89.7939 8.70424 89.7939 8.70299C89.7939 8.70174 89.7939 8.70047 89.7939 8.69922C89.7939 8.69797 89.7939 8.6967 89.7939 8.69545C89.7939 8.6942 89.7939 8.69293 89.7939 8.69168C89.7939 8.69043 89.7939 8.68916 89.7939 8.68791C89.7939 8.68666 89.7939 8.68539 89.7939 8.68414C89.7939 8.68289 89.7939 8.68163 89.7939 8.68038C89.7939 8.67913 89.7939 8.67786 89.7939 8.67661C89.7939 8.67536 89.7939 8.67409 89.7939 8.67284C89.7939 8.67159 89.7939 8.67032 89.7939 8.66907C89.7939 8.66782 89.7939 8.66655 89.7939 8.6653C89.7939 8.66405 89.7939 8.66278 89.7939 8.66153C89.7939 8.66028 89.7939 8.65901 89.7939 8.65776C89.7939 8.65651 89.7939 8.65524 89.7939 8.65399C89.7939 8.65274 89.7939 8.65147 89.7939 8.65022C89.7939 8.64897 89.7939 8.6477 89.7939 8.64645C89.7939 8.6452 89.7939 8.64393 89.7939 8.64268C89.7939 8.64143 89.7939 8.64016 89.7939 8.63891C89.7939 8.63766 89.7939 8.63639 89.7939 8.63514C89.7939 8.63389 89.7939 8.63263 89.7939 8.63138C89.7939 8.63013 89.7939 8.62886 89.7939 8.62761C89.7939 8.62636 89.7939 8.62509 89.7939 8.62384C89.7939 8.62259 89.7939 8.62132 89.7939 8.62007C89.7939 8.61882 89.7939 8.61755 89.7939 8.6163C89.7939 8.61505 89.7939 8.61378 89.7939 8.61253C89.7939 8.61128 89.7939 8.61001 89.7939 8.60876C89.7939 8.60751 89.7939 8.60624 89.7939 8.60499C89.7939 8.60374 89.7939 8.60247 89.7939 8.60122C89.7939 8.59997 89.7939 8.5987 89.7939 8.59745C89.7939 8.5962 89.7939 8.59493 89.7939 8.59368C89.7939 8.59243 89.7939 8.59116 89.7939 8.58991C89.7939 8.58866 89.7939 8.58739 89.7939 8.58614C89.7939 8.58489 89.7939 8.58363 89.7939 8.58238C89.7939 8.58113 89.7939 8.57986 89.7939 8.57861C89.7939 8.57736 89.7939 8.57609 89.7939 8.57484C89.7939 8.57359 89.7939 8.57232 89.7939 8.57107C89.7939 8.56982 89.7939 8.56855 89.7939 8.5673C89.7939 8.56605 89.7939 8.56478 89.7939 8.56353C89.7939 8.56228 89.7939 8.56101 89.7939 8.55976C89.7939 8.55851 89.7939 8.55724 89.7939 8.55599C89.7939 8.55474 89.7939 8.55347 89.7939 8.55222C89.7939 8.55097 89.7939 8.5497 89.7939 8.54845C89.7939 8.5472 89.7939 8.54593 89.7939 8.54468C89.7939 8.54343 89.7939 8.54216 89.7939 8.54091C89.7939 8.53966 89.7939 8.53839 89.7939 8.53715C89.7939 8.5359 89.7939 8.53463 89.7939 8.53338C89.7939 8.53213 89.7939 8.53086 89.7939 8.52961C89.7939 8.52836 89.7939 8.52709 89.7939 8.52584C89.7939 8.52459 89.7939 8.52332 89.7939 8.52207C89.7939 8.52082 89.7939 8.51955 89.7939 8.5183C89.7939 8.51705 89.7939 8.51578 89.7939 8.51453C89.7939 8.51328 89.7939 8.51201 89.7939 8.51076C89.7939 8.50951 89.7939 8.50824 89.7939 8.50699C89.7939 8.50574 89.7939 8.50447 89.7939 8.50322C89.7939 8.50197 89.7939 8.5007 89.7939 8.49945C89.7939 8.4982 89.7939 8.49693 89.7939 8.49568C89.7939 8.49443 89.7939 8.49316 89.7939 8.49191C89.7939 8.49066 89.7939 8.4894 89.7939 8.48815C89.7939 8.4869 89.7939 8.48562 89.7939 8.48438C89.7939 8.48313 89.7939 8.48186 89.7939 8.48061C89.7939 8.47936 89.7939 8.47809 89.7939 8.47684C89.7939 8.47559 89.7939 8.47432 89.7939 8.47307C89.7939 8.47182 89.7939 8.47055 89.7939 8.4693C89.7939 8.46805 89.7939 8.46678 89.7939 8.46553C89.7939 8.46428 89.7939 8.46301 89.7939 8.46176C89.7939 8.46051 89.7939 8.45924 89.7939 8.45799C89.7939 8.45674 89.7939 8.45547 89.7939 8.45422C89.7939 8.45297 89.7939 8.4517 89.7939 8.45045C89.7939 8.4492 89.7939 8.44793 89.7939 8.44668C89.7939 8.44543 89.7939 8.44416 89.7939 8.44291C89.7939 8.44166 89.7939 8.44039 89.7939 8.43915C89.7939 8.4379 89.7939 8.43663 89.7939 8.43538C89.7939 8.43413 89.7939 8.43286 89.7939 8.43161C89.7939 8.43036 89.7939 8.42909 89.7939 8.42784C89.7939 8.42659 89.7939 8.42532 89.7939 8.42407C89.7939 8.42282 89.7939 8.42155 89.7939 8.4203C89.7939 8.41905 89.7939 8.41778 89.7939 8.41653C89.7939 8.41528 89.7939 8.41401 89.7939 8.41276C89.7939 8.41151 89.7939 8.41024 89.7939 8.40899C89.7939 8.40774 89.7939 8.40647 89.7939 8.40522C89.7939 8.40397 89.7939 8.4027 89.7939 8.40145C89.7939 8.4002 89.7939 8.39893 89.7939 8.39768C89.7939 8.39643 89.7939 8.39516 89.7939 8.39391C89.7939 8.39266 89.7939 8.39139 89.7939 8.39014C89.7939 8.3889 89.7939 8.38763 89.7939 8.38638C89.7939 8.38513 89.7939 8.38386 89.7939 8.38261C89.7939 8.38136 89.7939 8.38009 89.7939 8.37884C89.7939 8.37759 89.7939 8.37632 89.7939 8.37507C89.7939 8.37382 89.7939 8.37255 89.7939 8.3713C89.7939 8.37005 89.7939 8.36878 89.7939 8.36753C89.7939 8.36628 89.7939 8.36501 89.7939 8.36376C89.7939 8.36251 89.7939 8.36124 89.7939 8.35999C89.7939 8.35874 89.7939 8.35747 89.7939 8.35622C89.7939 8.35497 89.7939 8.3537 89.7939 8.35245C89.7939 8.3512 89.7939 8.34993 89.7939 8.34868C89.7939 8.34743 89.7939 8.34616 89.7939 8.34491C89.7939 8.34367 89.7939 8.34239 89.7939 8.34114C89.7939 8.33989 89.7939 8.33863 89.7939 8.33738C89.7939 8.33613 89.7939 8.33486 89.7939 8.33361C89.7939 8.33236 89.7939 8.33109 89.7939 8.32984C89.7939 8.32859 89.7939 8.32732 89.7939 8.32607C89.7939 8.32482 89.7939 8.32355 89.7939 8.3223C89.7939 8.32105 89.7939 8.31978 89.7939 8.31853C89.7939 8.31728 89.7939 8.31601 89.7939 8.31476C89.7939 8.31351 89.7939 8.31224 89.7939 8.31099C89.7939 8.30974 89.7939 8.30847 89.7939 8.30722C89.7939 8.30597 89.7939 8.3047 89.7939 8.30345C89.7939 8.3022 89.7939 8.30093 89.7939 8.29968C89.7939 8.29843 89.7939 8.29716 89.7939 8.29591C89.7939 8.29466 89.7939 8.2934 89.7939 8.29215C89.7939 8.2909 89.7939 8.28963 89.7939 8.28838C89.7939 8.28713 89.7939 8.28586 89.7939 8.28461C89.7939 8.28336 89.7939 8.28209 89.7939 8.28084C89.7939 8.27959 89.7939 8.27832 89.7939 8.27707C89.7939 8.27582 89.7939 8.27455 89.7939 8.2733C89.7939 8.27205 89.7939 8.27078 89.7939 8.26953C89.7939 8.26828 89.7939 8.26701 89.7939 8.26576C89.7939 8.26451 89.7939 8.26324 89.7939 8.26199C89.7939 8.26074 89.7939 8.25947 89.7939 8.25822C89.7939 8.25697 89.7939 8.2557 89.7939 8.25445C89.7939 8.2532 89.7939 8.25193 89.7939 8.25068C89.7939 8.24943 89.7939 8.24816 89.7939 8.24691C89.7939 8.24566 89.7939 8.2444 89.7939 8.24315C89.7939 8.2419 89.7939 8.24063 89.7939 8.23938C89.7939 8.23813 89.7939 8.23686 89.7939 8.23561C89.7939 8.23436 89.7939 8.23309 89.7939 8.23184C89.7939 8.23059 89.7939 8.22932 89.7939 8.22807C89.7939 8.22682 89.7939 8.22555 89.7939 8.2243C89.7939 8.22305 89.7939 8.22178 89.7939 8.22053C89.7939 8.21928 89.7939 8.21801 89.7939 8.21676C89.7939 8.21551 89.7939 8.21424 89.7939 8.21299C89.7939 8.21174 89.7939 8.21047 89.7939 8.20922C89.7939 8.20797 89.7939 8.2067 89.7939 8.20545C89.7939 8.2042 89.7939 8.20293 89.7939 8.20168C89.7939 8.20043 89.7939 8.19916 89.7939 8.19791C89.7939 8.19666 89.7939 8.1954 89.7939 8.19415C89.7939 8.1929 89.7939 8.19163 89.7939 8.19038C89.7939 8.18913 89.7939 8.18786 89.7939 8.18661C89.7939 8.18536 89.7939 8.18409 89.7939 8.18284C89.7939 8.18159 89.7939 8.18032 89.7939 8.17907C89.7939 8.17782 89.7939 8.17655 89.7939 8.1753C89.7939 8.17405 89.7939 8.17278 89.7939 8.17153C89.7939 8.17028 89.7939 8.16901 89.7939 8.16776C89.7939 8.16651 89.7939 8.16524 89.7939 8.16399C89.7939 8.16274 89.7939 8.16147 89.7939 8.16022C89.7939 8.15897 89.7939 8.1577 89.7939 8.15645C89.7939 8.1552 89.7939 8.15393 89.7939 8.15268C89.7939 8.15143 89.7939 8.15017 89.7939 8.14892C89.7939 8.14767 89.7939 8.1464 89.7939 8.14515C89.7939 8.1439 89.7939 8.14263 89.7939 8.14138C89.7939 8.14013 89.7939 8.13886 89.7939 8.13761C89.7939 8.13636 89.7939 8.13509 89.7939 8.13384C89.7939 8.13259 89.7939 8.13132 89.7939 8.13007C89.7939 8.12882 89.7939 8.12755 89.7939 8.1263C89.7939 8.12505 89.7939 8.12378 89.7939 8.12253C89.7939 8.12128 89.7939 8.12001 89.7939 8.11876C89.7939 8.11751 89.7939 8.11624 89.7939 8.11499C89.7939 8.11374 89.7939 8.11247 89.7939 8.11122C89.7939 8.10997 89.7939 8.1087 89.7939 8.10745C89.7939 8.1062 89.7939 8.10493 89.7939 8.10368C89.7939 8.10243 89.7939 8.10117 89.7939 8.09992C89.7939 8.09867 89.7939 8.0974 89.7939 8.09615C89.7939 8.0949 89.7939 8.09363 89.7939 8.09238C89.7939 8.09113 89.7939 8.08986 89.7939 8.08861C89.7939 8.08736 89.7939 8.08609 89.7939 8.08484C89.7939 8.08359 89.7939 8.08232 89.7939 8.08107C89.7939 8.07982 89.7939 8.07855 89.7939 8.0773C89.7939 8.07605 89.7939 8.07478 89.7939 8.07353C89.7939 8.07228 89.7939 8.07101 89.7939 8.06976C89.7939 8.06851 89.7939 8.06724 89.7939 8.06599C89.7939 8.06474 89.7939 8.06347 89.7939 8.06222C89.7939 8.06097 89.7939 8.0597 89.7939 8.05845C89.7939 8.0572 89.7939 8.05593 89.7939 8.05469C89.7939 8.05344 89.7939 8.05217 89.7939 8.05092C89.7939 8.04967 89.7939 8.0484 89.7939 8.04715C89.7939 8.0459 89.7939 8.04463 89.7939 8.04338C89.7939 8.04213 89.7939 8.04086 89.7939 8.03961C89.7939 8.03836 89.7939 8.03709 89.7939 8.03584C89.7939 8.03459 89.7939 8.03332 89.7939 8.03207C89.7939 8.03082 89.7939 8.02955 89.7939 8.0283C89.7939 8.02705 89.7939 8.02578 89.7939 8.02453C89.7939 8.02328 89.7939 8.02201 89.7939 8.02076C89.7939 8.01951 89.7939 8.01824 89.7939 8.01699C89.7939 8.01574 89.7939 8.01447 89.7939 8.01322C89.7939 8.01197 89.7939 8.0107 89.7939 8.00945C89.7939 8.0082 89.7939 8.00694 89.7939 8.00569C89.7939 8.00444 89.7939 8.00316 89.7939 8.00191C89.7939 8.00067 89.7939 7.9994 89.7939 7.99815C89.7939 7.9969 89.7939 7.99563 89.7939 7.99438C89.7939 7.99313 89.7939 7.99186 89.7939 7.99061C89.7939 7.98936 89.7939 7.98809 89.7939 7.98684C89.7939 7.98559 89.7939 7.98432 89.7939 7.98307C89.7939 7.98182 89.7939 7.98055 89.7939 7.9793C89.7939 7.97805 89.7939 7.97678 89.7939 7.97553C89.7939 7.97428 89.7939 7.97301 89.7939 7.97176C89.7939 7.97051 89.7939 7.96924 89.7939 7.96799C89.7939 7.96674 89.7939 7.96547 89.7939 7.96422C89.7939 7.96297 89.7939 7.9617 89.7939 7.96045C89.7939 7.9592 89.7939 7.95793 89.7939 7.95669C89.7939 7.95544 89.7939 7.95417 89.7939 7.95292C89.7939 7.95167 89.7939 7.9504 89.7939 7.94915C89.7939 7.9479 89.7939 7.94663 89.7939 7.94538C89.7939 7.94413 89.7939 7.94286 89.7939 7.94161C89.7939 7.94036 89.7939 7.93909 89.7939 7.93784C89.7939 7.93659 89.7939 7.93532 89.7939 7.93407C89.7939 7.93282 89.7939 7.93155 89.7939 7.9303C89.7939 7.92905 89.7939 7.92778 89.7939 7.92653C89.7939 7.92528 89.7939 7.92401 89.7939 7.92276C89.7939 7.92151 89.7939 7.92024 89.7939 7.91899C89.7939 7.91774 89.7939 7.91647 89.7939 7.91522C89.7939 7.91397 89.7939 7.9127 89.7939 7.91146C89.7939 7.91021 89.7939 7.90893 89.7939 7.90768C89.7939 7.90644 89.7939 7.90517 89.7939 7.90392C89.7939 7.90267 89.7939 7.9014 89.7939 7.90015C89.7939 7.8989 89.7939 7.89763 89.7939 7.89638C89.7939 7.89513 89.7939 7.89386 89.7939 7.89261C89.7939 7.89136 89.7939 7.89009 89.7939 7.88884C89.7939 7.88759 89.7939 7.88632 89.7939 7.88507C89.7939 7.88382 89.7939 7.88255 89.7939 7.8813C89.7939 7.88005 89.7939 7.87878 89.7939 7.87753C89.7939 7.87628 89.7939 7.87501 89.7939 7.87376C89.7939 7.87251 89.7939 7.87124 89.7939 7.86999C89.7939 7.86874 89.7939 7.86747 89.7939 7.86622C89.7939 7.86497 89.7939 7.8637 89.7939 7.86245C89.7939 7.86121 89.7939 7.85993 89.7939 7.85868C89.7939 7.85743 89.7939 7.85617 89.7939 7.85492C89.7939 7.85367 89.7939 7.8524 89.7939 7.85115C89.7939 7.8499 89.7939 7.84863 89.7939 7.84738C89.7939 7.84613 89.7939 7.84486 89.7939 7.84361C89.7939 7.84236 89.7939 7.84109 89.7939 7.83984C89.7939 7.83859 89.7939 7.83732 89.7939 7.83607C89.7939 7.83482 89.7939 7.83355 89.7939 7.8323C89.7939 7.83105 89.7939 7.82978 89.7939 7.82853C89.7939 7.82728 89.7939 7.82601 89.7939 7.82476C89.7939 7.82351 89.7939 7.82224 89.7939 7.82099C89.7939 7.81974 89.7939 7.81847 89.7939 7.81722C89.7939 7.81597 89.7939 7.8147 89.7939 7.81345C89.7939 7.8122 89.7939 7.81094 89.7939 7.80969C89.7939 7.80844 89.7939 7.80717 89.7939 7.80592C89.7939 7.80467 89.7939 7.8034 89.7939 7.80215C89.7939 7.8009 89.7939 7.79963 89.7939 7.79838C89.7939 7.79713 89.7939 7.79586 89.7939 7.79461C89.7939 7.79336 89.7939 7.79209 89.7939 7.79084C89.7939 7.78959 89.7939 7.78832 89.7939 7.78707C89.7939 7.78582 89.7939 7.78455 89.7939 7.7833C89.7939 7.78205 89.7939 7.78078 89.7939 7.77953C89.7939 7.77828 89.7939 7.77701 89.7939 7.77576C89.7939 7.77451 89.7939 7.77324 89.7939 7.77199C89.7939 7.77074 89.7939 7.76947 89.7939 7.76822C89.7939 7.76697 89.7939 7.7657 89.7939 7.76445C89.7939 7.7632 89.7939 7.76194 89.7939 7.76069C89.7939 7.75944 89.7939 7.75817 89.7939 7.75692C89.7939 7.75567 89.7939 7.7544 89.7939 7.75315C89.7939 7.7519 89.7939 7.75063 89.7939 7.74938C89.7939 7.74813 89.7939 7.74686 89.7939 7.74561C89.7939 7.74436 89.7939 7.74309 89.7939 7.74184C89.7939 7.74059 89.7939 7.73932 89.7939 7.73807C89.7939 7.73682 89.7939 7.73555 89.7939 7.7343C89.7939 7.73305 89.7939 7.73178 89.7939 7.73053C89.7939 7.72928 89.7939 7.72801 89.7939 7.72676C89.7939 7.72551 89.7939 7.72424 89.7939 7.72299C89.7939 7.72174 89.7939 7.72047 89.7939 7.71922C89.7939 7.71797 89.7939 7.7167 89.7939 7.71545C89.7939 7.7142 89.7939 7.71294 89.7939 7.71169C89.7939 7.71044 89.7939 7.70917 89.7939 7.70792C89.7939 7.70667 89.7939 7.7054 89.7939 7.70415C89.7939 7.7029 89.7939 7.70163 89.7939 7.70038C89.7939 7.69913 89.7939 7.69786 89.7939 7.69661C89.7939 7.69536 89.7939 7.69409 89.7939 7.69284C89.7939 7.69159 89.7939 7.69032 89.7939 7.68907C89.7939 7.68782 89.7939 7.68655 89.7939 7.6853C89.7939 7.68405 89.7939 7.68278 89.7939 7.68153C89.7939 7.68028 89.7939 7.67901 89.7939 7.67776C89.7939 7.67651 89.7939 7.67524 89.7939 7.67399C89.7939 7.67274 89.7939 7.67147 89.7939 7.67022C89.7939 7.66897 89.7939 7.66771 89.7939 7.66646C89.7939 7.66521 89.7939 7.66394 89.7939 7.66269C89.7939 7.66144 89.7939 7.66017 89.7939 7.65892C89.7939 7.65767 89.7939 7.6564 89.7939 7.65515C89.7939 7.6539 89.7939 7.65263 89.7939 7.65138C89.7939 7.65013 89.7939 7.64886 89.7939 7.64761C89.7939 7.64636 89.7939 7.64509 89.7939 7.64384C89.7939 7.64259 89.7939 7.64132 89.7939 7.64007C89.7939 7.63882 89.7939 7.63755 89.7939 7.6363C89.7939 7.63505 89.7939 7.63378 89.7939 7.63253C89.7939 7.63128 89.7939 7.63001 89.7939 7.62876C89.7939 7.62751 89.7939 7.62624 89.7939 7.62499C89.7939 7.62374 89.7939 7.62247 89.7939 7.62122C89.7939 7.61997 89.7939 7.61871 89.7939 7.61746C89.7939 7.61621 89.7939 7.61493 89.7939 7.61369C89.7939 7.61244 89.7939 7.61117 89.7939 7.60992C89.7939 7.60867 89.7939 7.6074 89.7939 7.60615C89.7939 7.6049 89.7939 7.60363 89.7939 7.60238C89.7939 7.60113 89.7939 7.59986 89.7939 7.59861C89.7939 7.59736 89.7939 7.59609 89.7939 7.59484C89.7939 7.59359 89.7939 7.59232 89.7939 7.59107C89.7939 7.58982 89.7939 7.58855 89.7939 7.5873C89.7939 7.58605 89.7939 7.58478 89.7939 7.58353C89.7939 7.58228 89.7939 7.58101 89.7939 7.57976C89.7939 7.57851 89.7939 7.57724 89.7939 7.57599C89.7939 7.57474 89.7939 7.57347 89.7939 7.57222C89.7939 7.57097 89.7939 7.56971 89.7939 7.56846C89.7939 7.56721 89.7939 7.56594 89.7939 7.56469C89.7939 7.56344 89.7939 7.56217 89.7939 7.56092C89.7939 7.55967 89.7939 7.5584 89.7939 7.55715C89.7939 7.5559 89.7939 7.55463 89.7939 7.55338C89.7939 7.55213 89.7939 7.55086 89.7939 7.54961C89.7939 7.54836 89.7939 7.54709 89.7939 7.54584C89.7939 7.54459 89.7939 7.54332 89.7939 7.54207C89.7939 7.54082 89.7939 7.53955 89.7939 7.5383C89.7939 7.53705 89.7939 7.53578 89.7939 7.53453C89.7939 7.53328 89.7939 7.53201 89.7939 7.53076C89.7939 7.52951 89.7939 7.52824 89.7939 7.52699C89.7939 7.52574 89.7939 7.52448 89.7939 7.52323C89.7939 7.52198 89.7939 7.5207 89.7939 7.51945C89.7939 7.51821 89.7939 7.51694 89.7939 7.51569C89.7939 7.51444 89.7939 7.51317 89.7939 7.51192C89.7939 7.51067 89.7939 7.5094 89.7939 7.50815C89.7939 7.5069 89.7939 7.50563 89.7939 7.50438C89.7939 7.50313 89.7939 7.50186 89.7939 7.50061C89.7939 7.49936 89.7939 7.49809 89.7939 7.49684C89.7939 7.49559 89.7939 7.49432 89.7939 7.49307C89.7939 7.49182 89.7939 7.49055 89.7939 7.4893C89.7939 7.48805 89.7939 7.48678 89.7939 7.48553C89.7939 7.48428 89.7939 7.48301 89.7939 7.48176C89.7939 7.48051 89.7939 7.47924 89.7939 7.47799C89.7939 7.47674 89.7939 7.47547 89.7939 7.47423C89.7939 7.47298 89.7939 7.4717 89.7939 7.47045C89.7939 7.4692 89.7939 7.46794 89.7939 7.46669C89.7939 7.46544 89.7939 7.46417 89.7939 7.46292H89.0004C89.0004 7.46417 89.0004 7.46544 89.0004 7.46669C89.0004 7.46794 89.0004 7.4692 89.0004 7.47045C89.0004 7.4717 89.0004 7.47298 89.0004 7.47423C89.0004 7.47547 89.0004 7.47674 89.0004 7.47799C89.0004 7.47924 89.0004 7.48051 89.0004 7.48176C89.0004 7.48301 89.0004 7.48428 89.0004 7.48553C89.0004 7.48678 89.0004 7.48805 89.0004 7.4893C89.0004 7.49055 89.0004 7.49182 89.0004 7.49307C89.0004 7.49432 89.0004 7.49559 89.0004 7.49684C89.0004 7.49809 89.0004 7.49936 89.0004 7.50061C89.0004 7.50186 89.0004 7.50313 89.0004 7.50438C89.0004 7.50563 89.0004 7.5069 89.0004 7.50815C89.0004 7.5094 89.0004 7.51067 89.0004 7.51192C89.0004 7.51317 89.0004 7.51444 89.0004 7.51569C89.0004 7.51694 89.0004 7.51821 89.0004 7.51945C89.0004 7.5207 89.0004 7.52198 89.0004 7.52323C89.0004 7.52448 89.0004 7.52574 89.0004 7.52699C89.0004 7.52824 89.0004 7.52951 89.0004 7.53076C89.0004 7.53201 89.0004 7.53328 89.0004 7.53453C89.0004 7.53578 89.0004 7.53705 89.0004 7.5383C89.0004 7.53955 89.0004 7.54082 89.0004 7.54207C89.0004 7.54332 89.0004 7.54459 89.0004 7.54584C89.0004 7.54709 89.0004 7.54836 89.0004 7.54961C89.0004 7.55086 89.0004 7.55213 89.0004 7.55338C89.0004 7.55463 89.0004 7.5559 89.0004 7.55715C89.0004 7.5584 89.0004 7.55967 89.0004 7.56092C89.0004 7.56217 89.0004 7.56344 89.0004 7.56469C89.0004 7.56594 89.0004 7.56721 89.0004 7.56846C89.0004 7.56971 89.0004 7.57097 89.0004 7.57222C89.0004 7.57347 89.0004 7.57474 89.0004 7.57599C89.0004 7.57724 89.0004 7.57851 89.0004 7.57976C89.0004 7.58101 89.0004 7.58228 89.0004 7.58353C89.0004 7.58478 89.0004 7.58605 89.0004 7.5873C89.0004 7.58855 89.0004 7.58982 89.0004 7.59107C89.0004 7.59232 89.0004 7.59359 89.0004 7.59484C89.0004 7.59609 89.0004 7.59736 89.0004 7.59861C89.0004 7.59986 89.0004 7.60113 89.0004 7.60238C89.0004 7.60363 89.0004 7.6049 89.0004 7.60615C89.0004 7.6074 89.0004 7.60867 89.0004 7.60992C89.0004 7.61117 89.0004 7.61244 89.0004 7.61369C89.0004 7.61493 89.0004 7.61621 89.0004 7.61746C89.0004 7.61871 89.0004 7.61997 89.0004 7.62122C89.0004 7.62247 89.0004 7.62374 89.0004 7.62499C89.0004 7.62624 89.0004 7.62751 89.0004 7.62876C89.0004 7.63001 89.0004 7.63128 89.0004 7.63253C89.0004 7.63378 89.0004 7.63505 89.0004 7.6363C89.0004 7.63755 89.0004 7.63882 89.0004 7.64007C89.0004 7.64132 89.0004 7.64259 89.0004 7.64384C89.0004 7.64509 89.0004 7.64636 89.0004 7.64761C89.0004 7.64886 89.0004 7.65013 89.0004 7.65138C89.0004 7.65263 89.0004 7.6539 89.0004 7.65515C89.0004 7.6564 89.0004 7.65767 89.0004 7.65892C89.0004 7.66017 89.0004 7.66144 89.0004 7.66269C89.0004 7.66394 89.0004 7.66521 89.0004 7.66646C89.0004 7.66771 89.0004 7.66897 89.0004 7.67022C89.0004 7.67147 89.0004 7.67274 89.0004 7.67399C89.0004 7.67524 89.0004 7.67651 89.0004 7.67776C89.0004 7.67901 89.0004 7.68028 89.0004 7.68153C89.0004 7.68278 89.0004 7.68405 89.0004 7.6853C89.0004 7.68655 89.0004 7.68782 89.0004 7.68907C89.0004 7.69032 89.0004 7.69159 89.0004 7.69284C89.0004 7.69409 89.0004 7.69536 89.0004 7.69661C89.0004 7.69786 89.0004 7.69913 89.0004 7.70038C89.0004 7.70163 89.0004 7.7029 89.0004 7.70415C89.0004 7.7054 89.0004 7.70667 89.0004 7.70792C89.0004 7.70917 89.0004 7.71044 89.0004 7.71169C89.0004 7.71294 89.0004 7.7142 89.0004 7.71545C89.0004 7.7167 89.0004 7.71797 89.0004 7.71922C89.0004 7.72047 89.0004 7.72174 89.0004 7.72299C89.0004 7.72424 89.0004 7.72551 89.0004 7.72676C89.0004 7.72801 89.0004 7.72928 89.0004 7.73053C89.0004 7.73178 89.0004 7.73305 89.0004 7.7343C89.0004 7.73555 89.0004 7.73682 89.0004 7.73807C89.0004 7.73932 89.0004 7.74059 89.0004 7.74184C89.0004 7.74309 89.0004 7.74436 89.0004 7.74561C89.0004 7.74686 89.0004 7.74813 89.0004 7.74938C89.0004 7.75063 89.0004 7.7519 89.0004 7.75315C89.0004 7.7544 89.0004 7.75567 89.0004 7.75692C89.0004 7.75817 89.0004 7.75944 89.0004 7.76069C89.0004 7.76194 89.0004 7.7632 89.0004 7.76445C89.0004 7.7657 89.0004 7.76697 89.0004 7.76822C89.0004 7.76947 89.0004 7.77074 89.0004 7.77199C89.0004 7.77324 89.0004 7.77451 89.0004 7.77576C89.0004 7.77701 89.0004 7.77828 89.0004 7.77953C89.0004 7.78078 89.0004 7.78205 89.0004 7.7833C89.0004 7.78455 89.0004 7.78582 89.0004 7.78707C89.0004 7.78832 89.0004 7.78959 89.0004 7.79084C89.0004 7.79209 89.0004 7.79336 89.0004 7.79461C89.0004 7.79586 89.0004 7.79713 89.0004 7.79838C89.0004 7.79963 89.0004 7.8009 89.0004 7.80215C89.0004 7.8034 89.0004 7.80467 89.0004 7.80592C89.0004 7.80717 89.0004 7.80844 89.0004 7.80969C89.0004 7.81094 89.0004 7.8122 89.0004 7.81345C89.0004 7.8147 89.0004 7.81597 89.0004 7.81722C89.0004 7.81847 89.0004 7.81974 89.0004 7.82099C89.0004 7.82224 89.0004 7.82351 89.0004 7.82476C89.0004 7.82601 89.0004 7.82728 89.0004 7.82853C89.0004 7.82978 89.0004 7.83105 89.0004 7.8323C89.0004 7.83355 89.0004 7.83482 89.0004 7.83607C89.0004 7.83732 89.0004 7.83859 89.0004 7.83984C89.0004 7.84109 89.0004 7.84236 89.0004 7.84361C89.0004 7.84486 89.0004 7.84613 89.0004 7.84738C89.0004 7.84863 89.0004 7.8499 89.0004 7.85115C89.0004 7.8524 89.0004 7.85367 89.0004 7.85492C89.0004 7.85617 89.0004 7.85743 89.0004 7.85868C89.0004 7.85993 89.0004 7.86121 89.0004 7.86245C89.0004 7.8637 89.0004 7.86497 89.0004 7.86622C89.0004 7.86747 89.0004 7.86874 89.0004 7.86999C89.0004 7.87124 89.0004 7.87251 89.0004 7.87376C89.0004 7.87501 89.0004 7.87628 89.0004 7.87753C89.0004 7.87878 89.0004 7.88005 89.0004 7.8813C89.0004 7.88255 89.0004 7.88382 89.0004 7.88507C89.0004 7.88632 89.0004 7.88759 89.0004 7.88884C89.0004 7.89009 89.0004 7.89136 89.0004 7.89261C89.0004 7.89386 89.0004 7.89513 89.0004 7.89638C89.0004 7.89763 89.0004 7.8989 89.0004 7.90015C89.0004 7.9014 89.0004 7.90267 89.0004 7.90392C89.0004 7.90517 89.0004 7.90644 89.0004 7.90768C89.0004 7.90893 89.0004 7.91021 89.0004 7.91146C89.0004 7.9127 89.0004 7.91397 89.0004 7.91522C89.0004 7.91647 89.0004 7.91774 89.0004 7.91899C89.0004 7.92024 89.0004 7.92151 89.0004 7.92276C89.0004 7.92401 89.0004 7.92528 89.0004 7.92653C89.0004 7.92778 89.0004 7.92905 89.0004 7.9303C89.0004 7.93155 89.0004 7.93282 89.0004 7.93407C89.0004 7.93532 89.0004 7.93659 89.0004 7.93784C89.0004 7.93909 89.0004 7.94036 89.0004 7.94161C89.0004 7.94286 89.0004 7.94413 89.0004 7.94538C89.0004 7.94663 89.0004 7.9479 89.0004 7.94915C89.0004 7.9504 89.0004 7.95167 89.0004 7.95292C89.0004 7.95417 89.0004 7.95544 89.0004 7.95669C89.0004 7.95793 89.0004 7.9592 89.0004 7.96045C89.0004 7.9617 89.0004 7.96297 89.0004 7.96422C89.0004 7.96547 89.0004 7.96674 89.0004 7.96799C89.0004 7.96924 89.0004 7.97051 89.0004 7.97176C89.0004 7.97301 89.0004 7.97428 89.0004 7.97553C89.0004 7.97678 89.0004 7.97805 89.0004 7.9793C89.0004 7.98055 89.0004 7.98182 89.0004 7.98307C89.0004 7.98432 89.0004 7.98559 89.0004 7.98684C89.0004 7.98809 89.0004 7.98936 89.0004 7.99061C89.0004 7.99186 89.0004 7.99313 89.0004 7.99438C89.0004 7.99563 89.0004 7.9969 89.0004 7.99815C89.0004 7.9994 89.0004 8.00067 89.0004 8.00191C89.0004 8.00316 89.0004 8.00444 89.0004 8.00569C89.0004 8.00694 89.0004 8.0082 89.0004 8.00945C89.0004 8.0107 89.0004 8.01197 89.0004 8.01322C89.0004 8.01447 89.0004 8.01574 89.0004 8.01699C89.0004 8.01824 89.0004 8.01951 89.0004 8.02076C89.0004 8.02201 89.0004 8.02328 89.0004 8.02453C89.0004 8.02578 89.0004 8.02705 89.0004 8.0283C89.0004 8.02955 89.0004 8.03082 89.0004 8.03207C89.0004 8.03332 89.0004 8.03459 89.0004 8.03584C89.0004 8.03709 89.0004 8.03836 89.0004 8.03961C89.0004 8.04086 89.0004 8.04213 89.0004 8.04338C89.0004 8.04463 89.0004 8.0459 89.0004 8.04715C89.0004 8.0484 89.0004 8.04967 89.0004 8.05092C89.0004 8.05217 89.0004 8.05344 89.0004 8.05469C89.0004 8.05593 89.0004 8.0572 89.0004 8.05845C89.0004 8.0597 89.0004 8.06097 89.0004 8.06222C89.0004 8.06347 89.0004 8.06474 89.0004 8.06599C89.0004 8.06724 89.0004 8.06851 89.0004 8.06976C89.0004 8.07101 89.0004 8.07228 89.0004 8.07353C89.0004 8.07478 89.0004 8.07605 89.0004 8.0773C89.0004 8.07855 89.0004 8.07982 89.0004 8.08107C89.0004 8.08232 89.0004 8.08359 89.0004 8.08484C89.0004 8.08609 89.0004 8.08736 89.0004 8.08861C89.0004 8.08986 89.0004 8.09113 89.0004 8.09238C89.0004 8.09363 89.0004 8.0949 89.0004 8.09615C89.0004 8.0974 89.0004 8.09867 89.0004 8.09992C89.0004 8.10117 89.0004 8.10243 89.0004 8.10368C89.0004 8.10493 89.0004 8.1062 89.0004 8.10745C89.0004 8.1087 89.0004 8.10997 89.0004 8.11122C89.0004 8.11247 89.0004 8.11374 89.0004 8.11499C89.0004 8.11624 89.0004 8.11751 89.0004 8.11876C89.0004 8.12001 89.0004 8.12128 89.0004 8.12253C89.0004 8.12378 89.0004 8.12505 89.0004 8.1263C89.0004 8.12755 89.0004 8.12882 89.0004 8.13007C89.0004 8.13132 89.0004 8.13259 89.0004 8.13384C89.0004 8.13509 89.0004 8.13636 89.0004 8.13761C89.0004 8.13886 89.0004 8.14013 89.0004 8.14138C89.0004 8.14263 89.0004 8.1439 89.0004 8.14515C89.0004 8.1464 89.0004 8.14767 89.0004 8.14892C89.0004 8.15017 89.0004 8.15143 89.0004 8.15268C89.0004 8.15393 89.0004 8.1552 89.0004 8.15645C89.0004 8.1577 89.0004 8.15897 89.0004 8.16022C89.0004 8.16147 89.0004 8.16274 89.0004 8.16399C89.0004 8.16524 89.0004 8.16651 89.0004 8.16776C89.0004 8.16901 89.0004 8.17028 89.0004 8.17153C89.0004 8.17278 89.0004 8.17405 89.0004 8.1753C89.0004 8.17655 89.0004 8.17782 89.0004 8.17907C89.0004 8.18032 89.0004 8.18159 89.0004 8.18284C89.0004 8.18409 89.0004 8.18536 89.0004 8.18661C89.0004 8.18786 89.0004 8.18913 89.0004 8.19038C89.0004 8.19163 89.0004 8.1929 89.0004 8.19415C89.0004 8.1954 89.0004 8.19666 89.0004 8.19791C89.0004 8.19916 89.0004 8.20043 89.0004 8.20168C89.0004 8.20293 89.0004 8.2042 89.0004 8.20545C89.0004 8.2067 89.0004 8.20797 89.0004 8.20922C89.0004 8.21047 89.0004 8.21174 89.0004 8.21299C89.0004 8.21424 89.0004 8.21551 89.0004 8.21676C89.0004 8.21801 89.0004 8.21928 89.0004 8.22053C89.0004 8.22178 89.0004 8.22305 89.0004 8.2243C89.0004 8.22555 89.0004 8.22682 89.0004 8.22807C89.0004 8.22932 89.0004 8.23059 89.0004 8.23184C89.0004 8.23309 89.0004 8.23436 89.0004 8.23561C89.0004 8.23686 89.0004 8.23813 89.0004 8.23938C89.0004 8.24063 89.0004 8.2419 89.0004 8.24315C89.0004 8.2444 89.0004 8.24566 89.0004 8.24691C89.0004 8.24816 89.0004 8.24943 89.0004 8.25068C89.0004 8.25193 89.0004 8.2532 89.0004 8.25445C89.0004 8.2557 89.0004 8.25697 89.0004 8.25822C89.0004 8.25947 89.0004 8.26074 89.0004 8.26199C89.0004 8.26324 89.0004 8.26451 89.0004 8.26576C89.0004 8.26701 89.0004 8.26828 89.0004 8.26953C89.0004 8.27078 89.0004 8.27205 89.0004 8.2733C89.0004 8.27455 89.0004 8.27582 89.0004 8.27707C89.0004 8.27832 89.0004 8.27959 89.0004 8.28084C89.0004 8.28209 89.0004 8.28336 89.0004 8.28461C89.0004 8.28586 89.0004 8.28713 89.0004 8.28838C89.0004 8.28963 89.0004 8.2909 89.0004 8.29215C89.0004 8.2934 89.0004 8.29466 89.0004 8.29591C89.0004 8.29716 89.0004 8.29843 89.0004 8.29968C89.0004 8.30093 89.0004 8.3022 89.0004 8.30345C89.0004 8.3047 89.0004 8.30597 89.0004 8.30722C89.0004 8.30847 89.0004 8.30974 89.0004 8.31099C89.0004 8.31224 89.0004 8.31351 89.0004 8.31476C89.0004 8.31601 89.0004 8.31728 89.0004 8.31853C89.0004 8.31978 89.0004 8.32105 89.0004 8.3223C89.0004 8.32355 89.0004 8.32482 89.0004 8.32607C89.0004 8.32732 89.0004 8.32859 89.0004 8.32984C89.0004 8.33109 89.0004 8.33236 89.0004 8.33361C89.0004 8.33486 89.0004 8.33613 89.0004 8.33738C89.0004 8.33863 89.0004 8.33989 89.0004 8.34114C89.0004 8.34239 89.0004 8.34367 89.0004 8.34491C89.0004 8.34616 89.0004 8.34743 89.0004 8.34868C89.0004 8.34993 89.0004 8.3512 89.0004 8.35245C89.0004 8.3537 89.0004 8.35497 89.0004 8.35622C89.0004 8.35747 89.0004 8.35874 89.0004 8.35999C89.0004 8.36124 89.0004 8.36251 89.0004 8.36376C89.0004 8.36501 89.0004 8.36628 89.0004 8.36753C89.0004 8.36878 89.0004 8.37005 89.0004 8.3713C89.0004 8.37255 89.0004 8.37382 89.0004 8.37507C89.0004 8.37632 89.0004 8.37759 89.0004 8.37884C89.0004 8.38009 89.0004 8.38136 89.0004 8.38261C89.0004 8.38386 89.0004 8.38513 89.0004 8.38638C89.0004 8.38763 89.0004 8.3889 89.0004 8.39014C89.0004 8.39139 89.0004 8.39266 89.0004 8.39391C89.0004 8.39516 89.0004 8.39643 89.0004 8.39768C89.0004 8.39893 89.0004 8.4002 89.0004 8.40145C89.0004 8.4027 89.0004 8.40397 89.0004 8.40522C89.0004 8.40647 89.0004 8.40774 89.0004 8.40899C89.0004 8.41024 89.0004 8.41151 89.0004 8.41276C89.0004 8.41401 89.0004 8.41528 89.0004 8.41653C89.0004 8.41778 89.0004 8.41905 89.0004 8.4203C89.0004 8.42155 89.0004 8.42282 89.0004 8.42407C89.0004 8.42532 89.0004 8.42659 89.0004 8.42784C89.0004 8.42909 89.0004 8.43036 89.0004 8.43161C89.0004 8.43286 89.0004 8.43413 89.0004 8.43538C89.0004 8.43663 89.0004 8.4379 89.0004 8.43915C89.0004 8.44039 89.0004 8.44166 89.0004 8.44291C89.0004 8.44416 89.0004 8.44543 89.0004 8.44668C89.0004 8.44793 89.0004 8.4492 89.0004 8.45045C89.0004 8.4517 89.0004 8.45297 89.0004 8.45422C89.0004 8.45547 89.0004 8.45674 89.0004 8.45799C89.0004 8.45924 89.0004 8.46051 89.0004 8.46176C89.0004 8.46301 89.0004 8.46428 89.0004 8.46553C89.0004 8.46678 89.0004 8.46805 89.0004 8.4693C89.0004 8.47055 89.0004 8.47182 89.0004 8.47307C89.0004 8.47432 89.0004 8.47559 89.0004 8.47684C89.0004 8.47809 89.0004 8.47936 89.0004 8.48061C89.0004 8.48186 89.0004 8.48313 89.0004 8.48438C89.0004 8.48562 89.0004 8.4869 89.0004 8.48815C89.0004 8.4894 89.0004 8.49066 89.0004 8.49191C89.0004 8.49316 89.0004 8.49443 89.0004 8.49568C89.0004 8.49693 89.0004 8.4982 89.0004 8.49945C89.0004 8.5007 89.0004 8.50197 89.0004 8.50322C89.0004 8.50447 89.0004 8.50574 89.0004 8.50699C89.0004 8.50824 89.0004 8.50951 89.0004 8.51076C89.0004 8.51201 89.0004 8.51328 89.0004 8.51453C89.0004 8.51578 89.0004 8.51705 89.0004 8.5183C89.0004 8.51955 89.0004 8.52082 89.0004 8.52207C89.0004 8.52332 89.0004 8.52459 89.0004 8.52584C89.0004 8.52709 89.0004 8.52836 89.0004 8.52961C89.0004 8.53086 89.0004 8.53213 89.0004 8.53338C89.0004 8.53463 89.0004 8.5359 89.0004 8.53715C89.0004 8.53839 89.0004 8.53966 89.0004 8.54091C89.0004 8.54216 89.0004 8.54343 89.0004 8.54468C89.0004 8.54593 89.0004 8.5472 89.0004 8.54845C89.0004 8.5497 89.0004 8.55097 89.0004 8.55222C89.0004 8.55347 89.0004 8.55474 89.0004 8.55599C89.0004 8.55724 89.0004 8.55851 89.0004 8.55976C89.0004 8.56101 89.0004 8.56228 89.0004 8.56353C89.0004 8.56478 89.0004 8.56605 89.0004 8.5673C89.0004 8.56855 89.0004 8.56982 89.0004 8.57107C89.0004 8.57232 89.0004 8.57359 89.0004 8.57484C89.0004 8.57609 89.0004 8.57736 89.0004 8.57861C89.0004 8.57986 89.0004 8.58113 89.0004 8.58238C89.0004 8.58363 89.0004 8.58489 89.0004 8.58614C89.0004 8.58739 89.0004 8.58866 89.0004 8.58991C89.0004 8.59116 89.0004 8.59243 89.0004 8.59368C89.0004 8.59493 89.0004 8.5962 89.0004 8.59745C89.0004 8.5987 89.0004 8.59997 89.0004 8.60122C89.0004 8.60247 89.0004 8.60374 89.0004 8.60499C89.0004 8.60624 89.0004 8.60751 89.0004 8.60876C89.0004 8.61001 89.0004 8.61128 89.0004 8.61253C89.0004 8.61378 89.0004 8.61505 89.0004 8.6163C89.0004 8.61755 89.0004 8.61882 89.0004 8.62007C89.0004 8.62132 89.0004 8.62259 89.0004 8.62384C89.0004 8.62509 89.0004 8.62636 89.0004 8.62761C89.0004 8.62886 89.0004 8.63013 89.0004 8.63138C89.0004 8.63263 89.0004 8.63389 89.0004 8.63514C89.0004 8.63639 89.0004 8.63766 89.0004 8.63891C89.0004 8.64016 89.0004 8.64143 89.0004 8.64268C89.0004 8.64393 89.0004 8.6452 89.0004 8.64645C89.0004 8.6477 89.0004 8.64897 89.0004 8.65022C89.0004 8.65147 89.0004 8.65274 89.0004 8.65399C89.0004 8.65524 89.0004 8.65651 89.0004 8.65776C89.0004 8.65901 89.0004 8.66028 89.0004 8.66153C89.0004 8.66278 89.0004 8.66405 89.0004 8.6653C89.0004 8.66655 89.0004 8.66782 89.0004 8.66907C89.0004 8.67032 89.0004 8.67159 89.0004 8.67284C89.0004 8.67409 89.0004 8.67536 89.0004 8.67661C89.0004 8.67786 89.0004 8.67913 89.0004 8.68038C89.0004 8.68163 89.0004 8.68289 89.0004 8.68414C89.0004 8.68539 89.0004 8.68666 89.0004 8.68791C89.0004 8.68916 89.0004 8.69043 89.0004 8.69168C89.0004 8.69293 89.0004 8.6942 89.0004 8.69545C89.0004 8.6967 89.0004 8.69797 89.0004 8.69922C89.0004 8.70047 89.0004 8.70174 89.0004 8.70299C89.0004 8.70424 89.0004 8.70551 89.0004 8.70676C89.0004 8.70801 89.0004 8.70928 89.0004 8.71053C89.0004 8.71178 89.0004 8.71305 89.0004 8.7143C89.0004 8.71555 89.0004 8.71682 89.0004 8.71807C89.0004 8.71932 89.0004 8.72059 89.0004 8.72184C89.0004 8.72309 89.0004 8.72436 89.0004 8.72561C89.0004 8.72686 89.0004 8.72812 89.0004 8.72937C89.0004 8.73062 89.0004 8.73189 89.0004 8.73314C89.0004 8.73439 89.0004 8.73566 89.0004 8.73691C89.0004 8.73816 89.0004 8.73943 89.0004 8.74068C89.0004 8.74193 89.0004 8.7432 89.0004 8.74445C89.0004 8.7457 89.0004 8.74697 89.0004 8.74822C89.0004 8.74947 89.0004 8.75074 89.0004 8.75199C89.0004 8.75324 89.0004 8.75451 89.0004 8.75576C89.0004 8.75701 89.0004 8.75828 89.0004 8.75953C89.0004 8.76078 89.0004 8.76205 89.0004 8.7633C89.0004 8.76455 89.0004 8.76582 89.0004 8.76707C89.0004 8.76832 89.0004 8.76959 89.0004 8.77084C89.0004 8.77209 89.0004 8.77336 89.0004 8.77461C89.0004 8.77586 89.0004 8.77712 89.0004 8.77837C89.0004 8.77962 89.0004 8.78089 89.0004 8.78214C89.0004 8.78339 89.0004 8.78466 89.0004 8.78591C89.0004 8.78716 89.0004 8.78843 89.0004 8.78968C89.0004 8.79093 89.0004 8.7922 89.0004 8.79345C89.0004 8.7947 89.0004 8.79597 89.0004 8.79722C89.0004 8.79847 89.0004 8.79974 89.0004 8.80099C89.0004 8.80224 89.0004 8.80351 89.0004 8.80476C89.0004 8.80601 89.0004 8.80728 89.0004 8.80853C89.0004 8.80978 89.0004 8.81105 89.0004 8.8123C89.0004 8.81355 89.0004 8.81482 89.0004 8.81607C89.0004 8.81732 89.0004 8.81859 89.0004 8.81984C89.0004 8.82109 89.0004 8.82236 89.0004 8.82361C89.0004 8.82486 89.0004 8.82613 89.0004 8.82737C89.0004 8.82862 89.0004 8.82989 89.0004 8.83114C89.0004 8.83239 89.0004 8.83366 89.0004 8.83491C89.0004 8.83616 89.0004 8.83743 89.0004 8.83868C89.0004 8.83993 89.0004 8.8412 89.0004 8.84245C89.0004 8.8437 89.0004 8.84497 89.0004 8.84622C89.0004 8.84747 89.0004 8.84874 89.0004 8.84999C89.0004 8.85124 89.0004 8.85251 89.0004 8.85376C89.0004 8.85501 89.0004 8.85628 89.0004 8.85753C89.0004 8.85878 89.0004 8.86005 89.0004 8.8613C89.0004 8.86255 89.0004 8.86382 89.0004 8.86507C89.0004 8.86632 89.0004 8.86759 89.0004 8.86884C89.0004 8.87009 89.0004 8.87136 89.0004 8.8726C89.0004 8.87385 89.0004 8.87512 89.0004 8.87637C89.0004 8.87762 89.0004 8.87889 89.0004 8.88014C89.0004 8.88139 89.0004 8.88266 89.0004 8.88391C89.0004 8.88516 89.0004 8.88643 89.0004 8.88768C89.0004 8.88893 89.0004 8.8902 89.0004 8.89145C89.0004 8.8927 89.0004 8.89397 89.0004 8.89522C89.0004 8.89647 89.0004 8.89774 89.0004 8.89899C89.0004 8.90024 89.0004 8.90151 89.0004 8.90276C89.0004 8.90401 89.0004 8.90528 89.0004 8.90653C89.0004 8.90778 89.0004 8.90905 89.0004 8.9103C89.0004 8.91155 89.0004 8.91282 89.0004 8.91407C89.0004 8.91532 89.0004 8.91659 89.0004 8.91784C89.0004 8.91909 89.0004 8.92036 89.0004 8.92161C89.0004 8.92285 89.0004 8.92413 89.0004 8.92537C89.0004 8.92662 89.0004 8.92789 89.0004 8.92914C89.0004 8.93039 89.0004 8.93166 89.0004 8.93291C89.0004 8.93416 89.0004 8.93543 89.0004 8.93668C89.0004 8.93793 89.0004 8.9392 89.0004 8.94045C89.0004 8.9417 89.0004 8.94297 89.0004 8.94422C89.0004 8.94547 89.0004 8.94674 89.0004 8.94799C89.0004 8.94924 89.0004 8.95051 89.0004 8.95176C89.0004 8.95301 89.0004 8.95428 89.0004 8.95553C89.0004 8.95678 89.0004 8.95805 89.0004 8.9593C89.0004 8.96055 89.0004 8.96182 89.0004 8.96307C89.0004 8.96432 89.0004 8.96559 89.0004 8.96684C89.0004 8.96809 89.0004 8.96936 89.0004 8.9706C89.0004 8.97185 89.0004 8.97312 89.0004 8.97437C89.0004 8.97562 89.0004 8.97689 89.0004 8.97814C89.0004 8.97939 89.0004 8.98066 89.0004 8.98191C89.0004 8.98316 89.0004 8.98443 89.0004 8.98568C89.0004 8.98693 89.0004 8.9882 89.0004 8.98945C89.0004 8.9907 89.0004 8.99197 89.0004 8.99322C89.0004 8.99447 89.0004 8.99574 89.0004 8.99699C89.0004 8.99824 89.0004 8.99951 89.0004 9.00076C89.0004 9.00201 89.0004 9.00328 89.0004 9.00453C89.0004 9.00578 89.0004 9.00705 89.0004 9.0083C89.0004 9.00955 89.0004 9.01082 89.0004 9.01207C89.0004 9.01332 89.0004 9.01459 89.0004 9.01583C89.0004 9.01709 89.0004 9.01836 89.0004 9.01961C89.0004 9.02085 89.0004 9.02212 89.0004 9.02337C89.0004 9.02462 89.0004 9.02589 89.0004 9.02714C89.0004 9.02839 89.0004 9.02966 89.0004 9.03091C89.0004 9.03216 89.0004 9.03343 89.0004 9.03468C89.0004 9.03593 89.0004 9.0372 89.0004 9.03845C89.0004 9.0397 89.0004 9.04097 89.0004 9.04222C89.0004 9.04347 89.0004 9.04474 89.0004 9.04599C89.0004 9.04724 89.0004 9.04851 89.0004 9.04976C89.0004 9.05101 89.0004 9.05228 89.0004 9.05353C89.0004 9.05478 89.0004 9.05605 89.0004 9.0573C89.0004 9.05855 89.0004 9.05982 89.0004 9.06107C89.0004 9.06232 89.0004 9.06359 89.0004 9.06484C89.0004 9.06608 89.0004 9.06735 89.0004 9.0686C89.0004 9.06985 89.0004 9.07112 89.0004 9.07237C89.0004 9.07362 89.0004 9.07489 89.0004 9.07614C89.0004 9.07739 89.0004 9.07866 89.0004 9.07991C89.0004 9.08116 89.0004 9.08243 89.0004 9.08368C89.0004 9.08493 89.0004 9.0862 89.0004 9.08745C89.0004 9.0887 89.0004 9.08997 89.0004 9.09122C89.0004 9.09247 89.0004 9.09374 89.0004 9.09499C89.0004 9.09624 89.0004 9.09751 89.0004 9.09876C89.0004 9.10001 89.0004 9.10128 89.0004 9.10253C89.0004 9.10378 89.0004 9.10505 89.0004 9.1063C89.0004 9.10755 89.0004 9.10882 89.0004 9.11007C89.0004 9.11132 89.0004 9.11259 89.0004 9.11384C89.0004 9.11509 89.0004 9.11635 89.0004 9.1176C89.0004 9.11885 89.0004 9.12012 89.0004 9.12137C89.0004 9.12262 89.0004 9.12389 89.0004 9.12514C89.0004 9.12639 89.0004 9.12766 89.0004 9.12891C89.0004 9.13016 89.0004 9.13143 89.0004 9.13268C89.0004 9.13393 89.0004 9.1352 89.0004 9.13645C89.0004 9.1377 89.0004 9.13897 89.0004 9.14022C89.0004 9.14147 89.0004 9.14274 89.0004 9.14399C89.0004 9.14524 89.0004 9.14651 89.0004 9.14776C89.0004 9.14901 89.0004 9.15028 89.0004 9.15153C89.0004 9.15278 89.0004 9.15405 89.0004 9.1553C89.0004 9.15655 89.0004 9.15782 89.0004 9.15907C89.0004 9.16032 89.0004 9.16159 89.0004 9.16284C89.0004 9.16409 89.0004 9.16535 89.0004 9.1666C89.0004 9.16785 89.0004 9.16912 89.0004 9.17037C89.0004 9.17162 89.0004 9.17289 89.0004 9.17414C89.0004 9.17539 89.0004 9.17666 89.0004 9.17791C89.0004 9.17916 89.0004 9.18043 89.0004 9.18168C89.0004 9.18293 89.0004 9.1842 89.0004 9.18545C89.0004 9.1867 89.0004 9.18797 89.0004 9.18922C89.0004 9.19047 89.0004 9.19174 89.0004 9.19299C89.0004 9.19424 89.0004 9.19551 89.0004 9.19676C89.0004 9.19801 89.0004 9.19928 89.0004 9.20053C89.0004 9.20178 89.0004 9.20305 89.0004 9.2043C89.0004 9.20555 89.0004 9.20682 89.0004 9.20807C89.0004 9.20932 89.0004 9.21058 89.0004 9.21183C89.0004 9.21308 89.0004 9.21435 89.0004 9.2156C89.0004 9.21685 89.0004 9.21812 89.0004 9.21937C89.0004 9.22062 89.0004 9.22189 89.0004 9.22314C89.0004 9.22439 89.0004 9.22566 89.0004 9.22691C89.0004 9.22816 89.0004 9.22943 89.0004 9.23068C89.0004 9.23193 89.0004 9.2332 89.0004 9.23445C89.0004 9.2357 89.0004 9.23697 89.0004 9.23822C89.0004 9.23947 89.0004 9.24074 89.0004 9.24199C89.0004 9.24324 89.0004 9.24451 89.0004 9.24576C89.0004 9.24701 89.0004 9.24828 89.0004 9.24953C89.0004 9.25078 89.0004 9.25205 89.0004 9.2533C89.0004 9.25455 89.0004 9.25582 89.0004 9.25707C89.0004 9.25832 89.0004 9.25958 89.0004 9.26083C89.0004 9.26208 89.0004 9.26336 89.0004 9.2646C89.0004 9.26585 89.0004 9.26712 89.0004 9.26837C89.0004 9.26962 89.0004 9.27089 89.0004 9.27214C89.0004 9.27339 89.0004 9.27466 89.0004 9.27591C89.0004 9.27716 89.0004 9.27843 89.0004 9.27968C89.0004 9.28093 89.0004 9.2822 89.0004 9.28345C89.0004 9.2847 89.0004 9.28597 89.0004 9.28722C89.0004 9.28847 89.0004 9.28974 89.0004 9.29099C89.0004 9.29224 89.0004 9.29351 89.0004 9.29476C89.0004 9.29601 89.0004 9.29728 89.0004 9.29853C89.0004 9.29978 89.0004 9.30105 89.0004 9.3023C89.0004 9.30355 89.0004 9.30482 89.0004 9.30607C89.0004 9.30732 89.0004 9.30859 89.0004 9.30983C89.0004 9.31108 89.0004 9.31235 89.0004 9.3136C89.0004 9.31485 89.0004 9.31612 89.0004 9.31737C89.0004 9.31862 89.0004 9.31989 89.0004 9.32114C89.0004 9.32239 89.0004 9.32366 89.0004 9.32491C89.0004 9.32616 89.0004 9.32743 89.0004 9.32868C89.0004 9.32993 89.0004 9.3312 89.0004 9.33245C89.0004 9.3337 89.0004 9.33497 89.0004 9.33622C89.0004 9.33747 89.0004 9.33874 89.0004 9.33999C89.0004 9.34124 89.0004 9.34251 89.0004 9.34376C89.0004 9.34501 89.0004 9.34628 89.0004 9.34753C89.0004 9.34878 89.0004 9.35005 89.0004 9.3513C89.0004 9.35255 89.0004 9.35382 89.0004 9.35506C89.0004 9.35631 89.0004 9.35758 89.0004 9.35884C89.0004 9.36008 89.0004 9.36135 89.0004 9.3626C89.0004 9.36385 89.0004 9.36512 89.0004 9.36637C89.0004 9.36762 89.0004 9.36889 89.0004 9.37014C89.0004 9.37139 89.0004 9.37266 89.0004 9.37391C89.0004 9.37516 89.0004 9.37643 89.0004 9.37768C89.0004 9.37893 89.0004 9.3802 89.0004 9.38145C89.0004 9.3827 89.0004 9.38397 89.0004 9.38522C89.0004 9.38647 89.0004 9.38774 89.0004 9.38899C89.0004 9.39024 89.0004 9.39151 89.0004 9.39276H89.7939ZM89.7939 7.46292V1.62261H89.0004V7.46292H89.7939ZM89.3972 2.01937H92.1396V1.22585H89.3972V2.01937ZM91.7428 1.62261V19.3975H92.5364V1.62261H91.7428ZM92.1396 19.0007H89.4734V19.7942H92.1396V19.0007ZM89.7678 19.1314L77.0968 5.11465L76.508 5.64679L89.179 19.6635L89.7678 19.1314ZM77.176 5.51417L77.3029 5.15867L76.5558 4.89177L76.4289 5.24727L77.176 5.51417ZM76.534 5.05728C76.5848 5.68478 76.6358 6.27857 76.6866 6.83863L77.4769 6.76678C77.4261 6.20957 77.3756 5.61838 77.3248 4.99317L76.534 5.05728ZM76.6868 6.83975C76.7372 7.37815 76.7792 7.89937 76.8128 8.40344L77.6047 8.35067C77.5706 7.83903 77.5279 7.31068 77.4767 6.76567L76.6868 6.83975ZM76.8141 8.41788C76.8645 8.90621 76.9066 9.36018 76.9401 9.7799L77.7313 9.71661C77.6971 9.2899 77.6545 8.82974 77.6033 8.33623L76.8141 8.41788ZM76.9401 9.7799C76.9736 10.1987 76.9988 10.6002 77.0155 10.9843L77.8082 10.9499C77.7912 10.5553 77.7654 10.1442 77.7313 9.71661L76.9401 9.7799ZM77.0155 10.9851C77.0322 11.3525 77.0405 11.6934 77.0405 12.0082H77.834C77.834 11.6797 77.8253 11.3266 77.8082 10.9491L77.0155 10.9851ZM77.0405 12.0082V19.3975H77.834V12.0082H77.0405ZM77.4372 19.0007H74.6948V19.7942H77.4372V19.0007ZM102.59 19.3975H102.193V19.7942H102.59V19.3975ZM102.59 4.26344H102.987V3.86668H102.59V4.26344ZM96.5976 4.26344H96.2008V4.6602H96.5976V4.26344ZM96.5976 1.62261V1.22585H96.2008V1.62261H96.5976ZM111.452 1.62261H111.849V1.22585H111.452V1.62261ZM111.452 4.26344V4.6602H111.849V4.26344H111.452ZM105.333 4.26344V3.86668H104.936V4.26344H105.333ZM105.333 19.3975V19.7942H105.729V19.3975H105.333ZM102.987 19.3975V4.26344H102.193V19.3975H102.987ZM102.59 3.86668H96.5976V4.6602H102.59V3.86668ZM96.9943 4.26344V1.62261H96.2008V4.26344H96.9943ZM96.5976 2.01937H111.452V1.22585H96.5976V2.01937ZM111.056 1.62261V4.26344H111.849V1.62261H111.056ZM111.452 3.86668H105.333V4.6602H111.452V3.86668ZM104.936 4.26344V19.3975H105.729V4.26344H104.936ZM105.333 19.0007H102.59V19.7942H105.333V19.0007ZM119.712 18.9658L119.565 19.3342L119.568 19.3354L119.571 19.3366L119.712 18.9658ZM116.589 17.0105L116.317 17.2993L116.318 17.3006L116.32 17.3019L116.589 17.0105ZM114.532 14.1158L114.167 14.2707L114.168 14.2741L114.17 14.2774L114.532 14.1158ZM114.532 6.92967L114.169 6.77006L114.168 6.77138L114.168 6.77269L114.532 6.92967ZM116.589 4.00952L116.32 3.7182L116.318 3.71947L116.317 3.72076L116.589 4.00952ZM119.712 2.07968L119.855 2.44985L119.856 2.44932L119.858 2.44876L119.712 2.07968ZM127.584 2.05428L127.441 2.42446L127.443 2.42514L127.584 2.05428ZM130.707 4.00952L130.432 4.29552L130.435 4.2982L130.438 4.30084L130.707 4.00952ZM132.764 6.92967L132.399 7.08463L132.4 7.088L132.402 7.09133L132.764 6.92967ZM132.764 14.1158L132.401 13.9562L132.4 13.9575L132.4 13.9588L132.764 14.1158ZM127.584 18.9658L127.443 18.595L127.441 18.5956L127.584 18.9658ZM126.492 16.5027L126.633 16.8736L126.635 16.8728L126.637 16.8721L126.492 16.5027ZM128.727 15.1315L128.995 15.4236L128.997 15.4217L128.999 15.4197L128.727 15.1315ZM130.174 13.0747L129.812 12.9128L129.811 12.9147L129.81 12.9165L130.174 13.0747ZM130.174 7.97077L129.809 8.12612L129.811 8.13086L129.813 8.13554L130.174 7.97077ZM128.727 5.91397L128.454 6.20219L128.456 6.20418L128.458 6.20612L128.727 5.91397ZM126.492 4.54276L126.347 4.91213L126.35 4.91338L126.354 4.91457L126.492 4.54276ZM120.83 4.54276L120.968 4.91457L120.971 4.91338L120.974 4.91213L120.83 4.54276ZM118.57 5.88857L118.305 5.59289L118.303 5.59465L118.301 5.59642L118.57 5.88857ZM117.122 7.94538L117.486 8.10357L117.487 8.10216L117.487 8.10073L117.122 7.94538ZM118.57 15.1315L118.301 15.4236L118.303 15.4254L118.305 15.4272L118.57 15.1315ZM120.83 16.5027L120.685 16.8721L120.688 16.8733L120.691 16.8745L120.83 16.5027ZM123.648 19.2546C122.269 19.2546 121.006 19.0332 119.853 18.595L119.571 19.3366C120.823 19.8125 122.183 20.0481 123.648 20.0481V19.2546ZM119.86 18.5974C118.718 18.1405 117.718 17.5142 116.858 16.7192L116.32 17.3019C117.254 18.1657 118.337 18.843 119.565 19.3342L119.86 18.5974ZM116.861 16.7218C116.019 15.9281 115.364 15.0064 114.894 13.9541L114.17 14.2774C114.682 15.4259 115.398 16.434 116.317 17.2993L116.861 16.7218ZM114.897 13.9608C114.445 12.8955 114.218 11.7466 114.218 10.51H113.424C113.424 11.8466 113.671 13.1016 114.167 14.2707L114.897 13.9608ZM114.218 10.51C114.218 9.27341 114.445 8.13384 114.897 7.08663L114.168 6.77269C113.671 7.92621 113.424 9.17353 113.424 10.51H114.218ZM114.895 7.08927C115.365 6.02028 116.02 5.09093 116.861 4.29828L116.317 3.72076C115.397 4.58708 114.681 5.60451 114.169 6.77006L114.895 7.08927ZM116.858 4.30084C117.717 3.50674 118.715 2.8896 119.855 2.44985L119.569 1.7095C118.34 2.18389 117.255 2.85332 116.32 3.7182L116.858 4.30084ZM119.858 2.44876C121.009 1.99481 122.271 1.76544 123.648 1.76544V0.971924C122.181 0.971924 120.819 1.21655 119.567 1.71057L119.858 2.44876ZM123.648 1.76544C125.045 1.76544 126.307 1.98713 127.441 2.42446L127.727 1.68411C126.49 1.20728 125.129 0.971924 123.648 0.971924V1.76544ZM127.443 2.42514C128.598 2.86425 129.593 3.48806 130.432 4.29552L130.982 3.72351C130.062 2.83814 128.974 2.15845 127.725 1.68343L127.443 2.42514ZM130.438 4.30084C131.294 5.09245 131.947 6.01944 132.399 7.08463L133.129 6.77472C132.633 5.60535 131.915 4.58557 130.977 3.7182L130.438 4.30084ZM132.402 7.09133C132.868 8.13741 133.104 9.27534 133.104 10.51H133.897C133.897 9.1716 133.641 7.92262 133.126 6.76801L132.402 7.09133ZM133.104 10.51C133.104 11.7447 132.868 12.8919 132.401 13.9562L133.127 14.2754C133.641 13.1051 133.897 11.8485 133.897 10.51H133.104ZM132.4 13.9588C131.948 15.008 131.294 15.9369 130.435 16.7473L130.979 17.3247C131.915 16.4423 132.632 15.4243 133.128 14.2727L132.4 13.9588ZM130.435 16.7473C129.595 17.539 128.599 18.1552 127.443 18.595L127.725 19.3366C128.972 18.8622 130.059 18.1921 130.979 17.3247L130.435 16.7473ZM127.441 18.5956C126.307 19.0328 125.045 19.2546 123.648 19.2546V20.0481C125.129 20.0481 126.49 19.8129 127.727 19.336L127.441 18.5956ZM123.673 17.3819C124.748 17.3819 125.736 17.2146 126.633 16.8736L126.351 16.1318C125.556 16.4341 124.665 16.5884 123.673 16.5884V17.3819ZM126.637 16.8721C127.542 16.5172 128.329 16.0352 128.995 15.4236L128.458 14.8393C127.871 15.3789 127.169 15.811 126.347 16.1333L126.637 16.8721ZM128.999 15.4197C129.664 14.7911 130.178 14.0614 130.538 13.2329L129.81 12.9165C129.493 13.6454 129.042 14.2869 128.454 14.8433L128.999 15.4197ZM130.536 13.2365C130.916 12.3875 131.104 11.4772 131.104 10.51H130.31C130.31 11.3712 130.143 12.1706 129.812 12.9128L130.536 13.2365ZM131.104 10.51C131.104 9.54297 130.916 8.63989 130.535 7.806L129.813 8.13554C130.143 8.85908 130.31 9.64883 130.31 10.51H131.104ZM130.539 7.81542C130.179 6.96871 129.664 6.23623 128.995 5.62181L128.458 6.20612C129.042 6.74284 129.492 7.38156 129.809 8.12612L130.539 7.81542ZM128.999 5.62574C128.332 4.99422 127.54 4.50989 126.631 4.17096L126.354 4.91457C127.171 5.21892 127.869 5.64873 128.454 6.20219L128.999 5.62574ZM126.637 4.17338C125.723 3.81507 124.734 3.63815 123.673 3.63815V4.43167C124.644 4.43167 125.534 4.59331 126.347 4.91213L126.637 4.17338ZM123.673 3.63815C122.597 3.63815 121.599 3.81479 120.685 4.17338L120.974 4.91213C121.787 4.59361 122.685 4.43167 123.673 4.43167V3.63815ZM120.691 4.17096C119.784 4.50872 118.988 4.98214 118.305 5.59289L118.834 6.18426C119.438 5.64387 120.148 5.22009 120.968 4.91457L120.691 4.17096ZM118.301 5.59642C117.632 6.21084 117.117 6.94332 116.757 7.79003L117.487 8.10073C117.804 7.35617 118.254 6.71744 118.838 6.18073L118.301 5.59642ZM116.758 7.78717C116.396 8.62044 116.218 9.52984 116.218 10.51H117.011C117.011 9.62811 117.171 8.82773 117.486 8.10357L116.758 7.78717ZM116.218 10.51C116.218 11.4745 116.396 12.3825 116.757 13.23L117.487 12.9193C117.171 12.1756 117.011 11.3739 117.011 10.51H116.218ZM116.757 13.23C117.117 14.0767 117.632 14.8092 118.301 15.4236L118.838 14.8393C118.254 14.3026 117.804 13.6639 117.487 12.9193L116.757 13.23ZM118.305 15.4272C118.986 16.0365 119.781 16.5176 120.685 16.8721L120.974 16.1333C120.152 15.8107 119.44 15.3776 118.834 14.8358L118.305 15.4272ZM120.691 16.8745C121.604 17.2145 122.599 17.3819 123.673 17.3819V16.5884C122.682 16.5884 121.782 16.4342 120.968 16.1309L120.691 16.8745Z" fill="black"/>
<g clip-path="url(#clip0_13927_9618)">
<path fill-rule="evenodd" clip-rule="evenodd" d="M0.970703 4.48831C0.970703 4.32199 0.970703 4.23883 1.00307 4.1753C1.03154 4.11942 1.07697 4.07399 1.13285 4.04552C1.19638 4.01316 1.27954 4.01316 1.44586 4.01316H4.5384C4.70471 4.01316 4.78787 4.01316 4.8514 3.98079C4.90728 3.95231 4.95271 3.90689 4.98118 3.85101C5.01355 3.78748 5.01355 3.70432 5.01355 3.538V0.754697C5.01355 0.588376 5.01355 0.505216 5.04591 0.44169C5.07439 0.385812 5.11982 0.340381 5.17569 0.311909C5.23922 0.279541 5.32238 0.279541 5.4887 0.279541H20.7306C20.8969 0.279541 20.9801 0.279541 21.0436 0.311909C21.0994 0.340381 21.1449 0.385812 21.1733 0.44169C21.2057 0.505216 21.2057 0.588377 21.2057 0.754697V21.1879C21.2057 21.3543 21.2057 21.4374 21.1733 21.501C21.1449 21.5568 21.0994 21.6022 21.0436 21.6307C20.9801 21.6631 20.8969 21.6631 20.7306 21.6631H5.49267C5.32634 21.6631 5.24318 21.6631 5.17966 21.6307C5.12378 21.6022 5.07835 21.5568 5.04988 21.501C5.01751 21.4374 5.01751 21.3543 5.01751 21.1879V18.4033C5.01751 18.237 5.01751 18.1538 4.98514 18.0903C4.95667 18.0344 4.91124 17.9889 4.85536 17.9605C4.79184 17.9282 4.70868 17.9282 4.54235 17.9282H1.44586C1.27954 17.9282 1.19638 17.9282 1.13285 17.8958C1.07697 17.8673 1.03154 17.8218 1.00307 17.766C0.970703 17.7025 0.970703 17.6193 0.970703 17.453V4.48831ZM8.14878 4.19159C8.14878 4.02527 8.14878 3.94211 8.18115 3.87858C8.20962 3.8227 8.25505 3.77727 8.31093 3.7488C8.37445 3.71644 8.45761 3.71644 8.62395 3.71644H17.0007C17.167 3.71644 17.2502 3.71644 17.3137 3.7488C17.3696 3.77727 17.415 3.8227 17.4435 3.87858C17.4758 3.94211 17.4758 4.02527 17.4758 4.19159V7.01484C17.4758 7.18117 17.4758 7.26433 17.4435 7.32785C17.415 7.38373 17.3696 7.42916 17.3137 7.45764C17.2502 7.49 17.167 7.49 17.0007 7.49H8.62395C8.45761 7.49 8.37445 7.49 8.31093 7.45764C8.25505 7.42916 8.20962 7.38373 8.18115 7.32785C8.14878 7.26433 8.14878 7.18117 8.14878 7.01484V4.19159ZM17.4758 14.8834C17.4758 14.717 17.4758 14.6339 17.4435 14.5703C17.415 14.5145 17.3696 14.4691 17.3137 14.4406C17.2502 14.4082 17.167 14.4082 17.0007 14.4082H8.62395C8.45761 14.4082 8.37445 14.4082 8.31093 14.3758C8.25505 14.3474 8.20962 14.302 8.18115 14.2461C8.14878 14.1825 8.14878 14.0994 8.14878 13.933V7.96609C8.14878 7.79976 8.14878 7.7166 8.11641 7.65307C8.08794 7.59719 8.0425 7.55176 7.98663 7.52329C7.9231 7.49092 7.83994 7.49092 7.67362 7.49092H4.8931C4.72678 7.49092 4.64362 7.49092 4.58009 7.52329C4.52421 7.55176 4.47878 7.59719 4.45031 7.65307C4.41795 7.7166 4.41795 7.79976 4.41795 7.96609V13.934C4.41795 14.1003 4.41795 14.1834 4.45031 14.247C4.47878 14.3029 4.52421 14.3483 4.58009 14.3767C4.64362 14.4091 4.72678 14.4091 4.8931 14.4091H7.67362C7.83994 14.4091 7.9231 14.4091 7.98663 14.4415C8.0425 14.47 8.08794 14.5154 8.11641 14.5713C8.14878 14.6348 8.14878 14.7179 8.14878 14.8843V17.7066C8.14878 17.8729 8.14878 17.9561 8.18115 18.0196C8.20962 18.0755 8.25505 18.1209 8.31093 18.1494C8.37445 18.1818 8.45761 18.1818 8.62395 18.1818H17.0007C17.167 18.1818 17.2502 18.1818 17.3137 18.1494C17.3696 18.1209 17.415 18.0755 17.4435 18.0196C17.4758 17.9561 17.4758 17.8729 17.4758 17.7066V14.8834Z" fill="black"/>
</g>
<defs>
<clipPath id="clip0_13927_9618">
<rect width="19.8562" height="20.6199" fill="white" transform="translate(0.970703 0.279541)"/>
</clipPath>
</defs>
</svg>
