<svg width="85" height="26" viewBox="0 0 85 26" fill="none" xmlns="http://www.w3.org/2000/svg">
<path d="M64.731 22.4581L67.0187 21.7379V2.88574L64.731 3.60593V22.4581ZM38.4439 11.0197C39.8843 11.0197 41.1976 11.6552 42.0449 12.7143L42.9769 10.5749C41.7483 9.40985 40.1385 8.85911 38.4439 8.85911C34.5252 8.85911 31.8139 11.9517 31.8351 15.3832C31.8563 19.0901 34.7794 22.1191 38.4439 22.1191C40.3079 22.1191 41.706 21.5684 42.7651 20.7847V18.1369C41.6424 19.2596 40.0326 19.9162 38.6346 19.9162C36.5163 19.9162 34.1228 18.2004 34.1228 15.362C34.1228 12.7354 36.1774 11.0197 38.4439 11.0197ZM53.6103 8.83793C49.6916 8.83793 47.404 11.9305 47.404 15.362C47.404 19.0689 50.3483 22.098 54.0128 22.098C55.8768 22.098 57.2749 21.5472 58.334 20.7635V18.1369C57.2113 19.2596 55.6015 19.9162 54.2034 19.9162C52.3182 19.9162 50.2636 18.7512 49.8399 16.2941H59.8379V15.4256C59.7955 11.7611 57.402 8.83793 53.6103 8.83793ZM78.224 8.83793C74.5595 8.83793 71.594 11.8034 71.594 15.4679C71.594 19.1325 74.5595 22.098 78.224 22.098C81.8885 22.098 84.854 19.1325 84.854 15.4679C84.854 11.8034 81.8885 8.83793 78.224 8.83793ZM53.6315 11.0197C55.4108 11.0197 57.296 12.1423 57.4443 14.2817H49.8187C49.967 12.1212 51.8522 11.0197 53.6315 11.0197ZM78.224 19.9162C75.7669 19.9162 73.7758 17.9251 73.7758 15.4679C73.7758 13.0108 75.7669 11.0197 78.224 11.0197C80.6812 11.0197 82.6723 13.0108 82.6723 15.4679C82.6723 17.9251 80.7023 19.9162 78.224 19.9162Z" fill="#1D1D1B"/>
<path d="M15.2704 17.4589C19.295 17.4589 22.557 14.1968 22.557 10.1722C22.557 6.14761 19.295 2.88556 15.2704 2.88556C11.2458 2.88556 7.98371 6.14761 7.98371 10.1722C7.98371 14.1968 11.2458 17.4589 15.2704 17.4589ZM15.2704 20.1067C9.78419 20.1067 5.33594 15.6584 5.33594 10.1722C5.33594 4.68605 9.78419 0.237793 15.2704 0.237793C20.7566 0.237793 25.2048 4.68605 25.2048 10.1722C25.2048 15.6584 20.7566 20.1067 15.2704 20.1067Z" fill="#35D07F"/>
<path d="M9.97545 22.7545C14.0001 22.7545 17.2621 19.4925 17.2621 15.4679C17.2621 11.4433 14.0001 8.18122 9.97545 8.18122C5.95084 8.18122 2.68879 11.4433 2.68879 15.4679C2.68879 19.4925 5.95084 22.7545 9.97545 22.7545ZM9.97545 25.4023C4.48927 25.4023 0.0410156 20.9541 0.0410156 15.4679C0.0410156 9.9817 4.48927 5.53345 9.97545 5.53345C15.4616 5.53345 19.9099 9.9817 19.9099 15.4679C19.9099 20.9541 15.4616 25.4023 9.97545 25.4023Z" fill="#FBCC5C"/>
<path d="M15.5881 20.1068C16.2871 19.2807 16.7743 18.2851 17.0285 17.2472C18.0876 16.993 19.062 16.4846 19.8881 15.8068C19.8457 17.0142 19.5915 18.2216 19.1255 19.3442C18.0029 19.8102 16.8167 20.0644 15.5881 20.1068ZM8.19553 8.39304C7.13642 8.64722 6.16204 9.1556 5.33594 9.83343C5.3783 8.62604 5.63249 7.41866 6.09849 6.29601C7.22115 5.83 8.40735 5.55463 9.63592 5.53345C8.95809 6.35955 8.4709 7.35511 8.19553 8.39304Z" fill="#ECFF8F"/>
</svg>
