<svg width="102" height="34" viewBox="0 0 102 34" fill="none" xmlns="http://www.w3.org/2000/svg">
<path d="M28.4348 25.154L14.9139 32.974C14.7827 33.0497 14.6339 33.0896 14.4823 33.0896C14.3308 33.0896 14.182 33.0497 14.0508 32.974L0.568693 25.1756C0.437611 25.0999 0.328735 24.9911 0.252987 24.86C0.177239 24.729 0.137284 24.5803 0.137128 24.429L0.132812 8.74591C0.132968 8.59455 0.172924 8.44589 0.248671 8.31484C0.324419 8.1838 0.433295 8.07498 0.564377 7.9993L14.0594 0.205237C14.1906 0.129482 14.3395 0.0895996 14.491 0.0895996C14.6425 0.0895996 14.7913 0.129482 14.9225 0.205237L28.4305 8.02519C28.5616 8.10087 28.6705 8.20969 28.7462 8.34074C28.822 8.47178 28.8619 8.62044 28.8621 8.7718L28.8664 24.4074C28.8663 24.5588 28.8263 24.7074 28.7505 24.8385C28.6748 24.9695 28.5659 25.0783 28.4348 25.154ZM3.18398 22.8279C3.18447 22.9198 3.20903 23.01 3.25522 23.0895C3.30141 23.169 3.36761 23.235 3.44723 23.281L14.2277 29.5042C14.3078 29.5504 14.3986 29.5747 14.491 29.5747C14.5834 29.5747 14.6742 29.5504 14.7542 29.5042L25.4743 23.3069C25.5539 23.2609 25.6201 23.1949 25.6663 23.1154C25.7125 23.0359 25.7371 22.9457 25.7376 22.8538L25.7505 10.347C25.75 10.2551 25.7255 10.1649 25.6793 10.0854C25.6331 10.0059 25.5669 9.93984 25.4873 9.89387L14.7499 3.66207C14.6699 3.61586 14.5791 3.59153 14.4867 3.59153C14.3942 3.59153 14.3034 3.61586 14.2234 3.66207L3.44723 9.91113C3.36761 9.9571 3.30141 10.0231 3.25522 10.1026C3.20903 10.1821 3.18447 10.2723 3.18398 10.3643V22.8279Z" fill="#FC9406"/>
<path d="M7.28754 12.5526L7.27891 20.6401C7.27873 20.6812 7.28942 20.7216 7.30988 20.7572C7.33034 20.7929 7.35986 20.8224 7.39543 20.843L14.3738 24.8522C14.4094 24.8727 14.4389 24.9023 14.4594 24.9379C14.4799 24.9736 14.4905 25.014 14.4904 25.055L14.486 26.1728C14.4862 26.2138 14.4756 26.2541 14.4552 26.2897C14.4348 26.3252 14.4054 26.3548 14.37 26.3754C14.3345 26.396 14.2942 26.4068 14.2533 26.4069C14.2123 26.4069 14.172 26.3961 14.1365 26.3756L5.96695 21.6327C5.93138 21.6122 5.90186 21.5826 5.8814 21.547C5.86094 21.5114 5.85025 21.471 5.85043 21.4299L5.8418 11.7369C5.84162 11.6959 5.8523 11.6555 5.87277 11.6199C5.89323 11.5842 5.92275 11.5547 5.95832 11.5341L14.3782 6.68332C14.4136 6.66287 14.4538 6.6521 14.4947 6.6521C14.5356 6.6521 14.5758 6.66287 14.6112 6.68332L22.8325 11.4305C22.8696 11.452 22.9001 11.4834 22.9205 11.5211C22.941 11.5588 22.9506 11.6014 22.9484 11.6443C22.9461 11.6871 22.9321 11.7285 22.9079 11.7639C22.8836 11.7993 22.8501 11.8273 22.8109 11.8448L21.7061 12.3325C21.6724 12.3472 21.6356 12.3537 21.5988 12.3515C21.5621 12.3492 21.5264 12.3383 21.4947 12.3196L14.5939 8.30601C14.5585 8.28555 14.5183 8.27478 14.4774 8.27478C14.4365 8.27478 14.3963 8.28555 14.3609 8.30601L7.40406 12.3498C7.36849 12.3703 7.33897 12.3999 7.31851 12.4355C7.29805 12.4711 7.28736 12.5115 7.28754 12.5526Z" fill="#FC9406"/>
<path d="M39.2498 12.0991C37.6444 13.4412 37.8127 18.059 38.24 19.6083C39.3707 23.6995 47.4237 23.7858 47.5186 19.4098C47.5272 19.0099 47.733 18.8041 48.1357 18.7926L49.6505 18.7495C50.0389 18.738 50.213 18.9279 50.1727 19.3191C49.8735 22.1934 48.3357 23.9585 45.5593 24.6144C42.8707 25.2532 39.8195 25.0029 37.6703 23.1342C35.5858 21.3259 35.2708 18.9739 35.3096 16.0436C35.3585 12.1566 37.1179 9.73553 40.5877 8.78033C44.5667 7.68415 49.7714 9.11695 50.0951 13.8426C50.1209 14.231 49.9397 14.4367 49.5513 14.4597L48.0365 14.5504C47.8769 14.5598 47.72 14.5056 47.6003 14.3996C47.4806 14.2937 47.4078 14.1446 47.3978 13.985C47.1302 9.82472 41.4638 10.2563 39.2498 12.0991Z" fill="#111111"/>
<path d="M68.37 17.8012C68.3535 19.6931 67.5861 21.501 66.2366 22.8271C64.8872 24.1532 63.0662 24.889 61.1743 24.8725L59.3186 24.8563C58.3818 24.8481 57.4558 24.6555 56.5935 24.2895C55.7311 23.9234 54.9493 23.3911 54.2927 22.7229C53.6361 22.0547 53.1175 21.2638 52.7665 20.3952C52.4156 19.5265 52.2392 18.5973 52.2473 17.6605L52.2659 15.5373C52.2824 13.6454 53.0498 11.8375 54.3993 10.5114C55.7487 9.18531 57.5697 8.44958 59.4616 8.46609L61.3173 8.48228C62.2541 8.49045 63.1801 8.68305 64.0424 9.04909C64.9048 9.41514 65.6866 9.94745 66.3432 10.6156C66.9998 11.2838 67.5184 12.0748 67.8694 12.9434C68.2203 13.812 68.3967 14.7412 68.3886 15.678L68.37 17.8012ZM65.7199 15.5976C65.7308 14.9726 65.6185 14.3515 65.3894 13.7699C65.1603 13.1883 64.8188 12.6575 64.3846 12.2078C63.9504 11.7581 63.4318 11.3984 62.8585 11.1491C62.2853 10.8998 61.6685 10.7659 61.0435 10.755L59.8698 10.7346C58.6075 10.7125 57.3882 11.1928 56.4801 12.0698C55.5719 12.9468 55.0493 14.1486 55.0273 15.4109L54.9851 17.8273C54.9742 18.4523 55.0865 19.0734 55.3156 19.655C55.5447 20.2366 55.8861 20.7674 56.3204 21.2171C56.7546 21.6667 57.2732 22.0265 57.8464 22.2758C58.4197 22.525 59.0364 22.6589 59.6615 22.6698L60.8351 22.6903C62.0974 22.7123 63.3168 22.232 64.2249 21.355C65.133 20.4781 65.6556 19.2762 65.6776 18.0139L65.7199 15.5976Z" fill="#111111"/>
<path d="M74.2589 18.5124C74.2287 18.5118 74.1987 18.5173 74.1706 18.5286C74.1426 18.5399 74.1172 18.5567 74.0958 18.5781C74.0745 18.5994 74.0576 18.6249 74.0464 18.6529C74.0351 18.6809 74.0296 18.7109 74.0301 18.7411L74.1035 24.0407C74.1093 24.4551 73.905 24.6636 73.4907 24.6665L72.1054 24.6708C71.6738 24.6737 71.458 24.4579 71.458 24.0235L71.4623 9.3287C71.4635 9.17722 71.524 9.03234 71.6307 8.92563C71.7374 8.81892 71.8816 8.75904 72.032 8.75903C74.092 8.75903 76.1621 8.76047 78.2422 8.76335C80.3741 8.76623 81.7983 8.92878 82.5147 9.25102C85.8377 10.7529 85.7255 15.9403 82.6485 17.8176C82.5497 17.8778 82.4757 17.9714 82.4401 18.0815C82.4045 18.1916 82.4095 18.3108 82.4543 18.4175C83.2253 20.2847 84.1417 22.0771 85.2034 23.7948C85.5544 24.3644 85.3961 24.6449 84.7286 24.6363L83.5936 24.6234C82.9175 24.6176 82.437 24.3083 82.1522 23.6955L80.072 19.2676C79.9762 19.0621 79.8245 18.8879 79.6343 18.765C79.4442 18.642 79.2235 18.5754 78.9974 18.5728L74.2589 18.5124ZM74.0215 11.3096L74.0388 16.0568C74.0388 16.1346 74.0697 16.2093 74.1247 16.2643C74.1798 16.3193 74.2544 16.3503 74.3322 16.3503L79.6836 16.333C80.4045 16.3304 81.095 16.0753 81.6032 15.6237C82.1114 15.1721 82.3958 14.5611 82.3939 13.9249V13.3897C82.3929 13.0745 82.3216 12.7626 82.184 12.4719C82.0463 12.1811 81.8451 11.9172 81.5919 11.6952C81.3386 11.4731 81.0382 11.2974 80.7078 11.1779C80.3774 11.0584 80.0235 10.9976 79.6664 10.9989L74.315 11.0161C74.2371 11.0161 74.1625 11.047 74.1075 11.1021C74.0524 11.1571 74.0215 11.2318 74.0215 11.3096Z" fill="#111111"/>
<path d="M90.9895 11.4132L90.9809 14.9434C90.9809 15.0613 91.0277 15.1744 91.1111 15.2578C91.1944 15.3411 91.3075 15.388 91.4254 15.388L99.4223 15.3966C99.4814 15.3966 99.5399 15.4083 99.5944 15.4312C99.6489 15.4541 99.6983 15.4876 99.7397 15.5298C99.7811 15.572 99.8136 15.622 99.8355 15.677C99.8573 15.7319 99.8679 15.7906 99.8668 15.8497L99.8495 17.1617C99.8472 17.2788 99.7988 17.3903 99.7148 17.472C99.6307 17.5536 99.5178 17.5987 99.4007 17.5976L91.4728 17.5242C91.3557 17.523 91.2428 17.5682 91.1588 17.6498C91.0747 17.7314 91.0263 17.8429 91.024 17.9601L90.9506 21.8701C90.9495 21.9292 90.9601 21.9879 90.982 22.0428C91.0038 22.0977 91.0364 22.1478 91.0778 22.19C91.1191 22.2322 91.1685 22.2657 91.223 22.2886C91.2775 22.3114 91.336 22.3232 91.3952 22.3232L100.501 22.3016C100.61 22.3008 100.715 22.3398 100.797 22.4114C100.879 22.483 100.932 22.5821 100.946 22.69L101.123 24.0538C101.131 24.1166 101.126 24.1806 101.108 24.2414C101.09 24.3023 101.059 24.3585 101.017 24.4063C100.976 24.4541 100.924 24.4925 100.866 24.5188C100.809 24.5451 100.746 24.5587 100.682 24.5587L88.8317 24.6105C88.7726 24.6111 88.7139 24.5999 88.6592 24.5775C88.6045 24.5552 88.5548 24.5221 88.513 24.4803C88.4712 24.4385 88.4382 24.3888 88.4158 24.3341C88.3935 24.2794 88.3823 24.2208 88.3828 24.1617L88.3958 9.22952C88.3958 9.11163 88.4426 8.99856 88.526 8.9152C88.6093 8.83184 88.7224 8.78501 88.8403 8.78501L100.454 8.76343C100.512 8.76343 100.57 8.77493 100.624 8.79726C100.678 8.8196 100.727 8.85235 100.768 8.89362C100.809 8.9349 100.842 8.9839 100.864 9.03783C100.887 9.09176 100.898 9.14957 100.898 9.20794L100.903 10.5415C100.903 10.6594 100.856 10.7724 100.772 10.8558C100.689 10.9392 100.576 10.986 100.458 10.986L91.434 10.9687C91.3161 10.9687 91.203 11.0156 91.1197 11.0989C91.0363 11.1823 90.9895 11.2953 90.9895 11.4132Z" fill="#111111"/>
<path d="M15.7342 16.678L22.7644 12.9406C22.7898 12.9274 22.8183 12.9209 22.847 12.9217C22.8756 12.9225 22.9036 12.9307 22.9283 12.9454C22.953 12.9601 22.9734 12.9809 22.9878 13.0057C23.0022 13.0306 23.0099 13.0587 23.0104 13.0874L23.0061 22.215C23.0057 22.2437 22.998 22.2719 22.9836 22.2969C22.9693 22.3218 22.9488 22.3426 22.9241 22.3574L15.9068 26.4141C15.8812 26.4284 15.8523 26.4357 15.823 26.4354C15.7937 26.4351 15.765 26.4271 15.7397 26.4123C15.7144 26.3975 15.6934 26.3763 15.6788 26.3509C15.6642 26.3255 15.6565 26.2967 15.6565 26.2674L15.6436 16.8247C15.644 16.7944 15.6527 16.7647 15.6686 16.7389C15.6846 16.713 15.7072 16.692 15.7342 16.678Z" fill="#FC9406"/>
</svg>
