<svg width="106" height="30" viewBox="0 0 106 30" fill="none" xmlns="http://www.w3.org/2000/svg">
<path d="M13.1968 0.320801L0.634766 7.57245V22.0716L13.1968 29.3191L25.7463 22.0716V7.57245L13.1968 0.320801ZM22.0265 19.9257L13.1968 25.0232L4.3587 19.9257V9.71413L13.1968 4.61669L22.0307 9.71413V19.9257H22.0265Z" fill="#002D74"/>
<path d="M19.0525 18.2098L13.1869 21.5914L7.32129 18.2098V11.4383L13.1869 8.04834L19.0525 11.4383L16.6103 12.8452L13.1869 10.8663L9.76773 12.8452V16.7946L13.1869 18.7734L16.6103 16.7946L19.0525 18.2098Z" fill="#002D74"/>
<path d="M35.0394 15.9183V15.8808C35.0311 15.1126 35.1772 14.3486 35.4652 13.6389C35.7575 12.9292 36.1833 12.2821 36.7302 11.7394C37.2729 11.1966 37.92 10.7666 38.6297 10.4786C39.3395 10.1863 40.1035 10.0444 40.8716 10.0527C41.7149 10.0235 42.5541 10.1821 43.3264 10.5203C44.0987 10.8585 44.7876 11.3594 45.3387 11.9982L43.7314 13.714C42.9507 12.9083 42.1241 12.3155 40.8549 12.3155C38.993 12.3155 37.6194 13.9228 37.6194 15.8724V15.9142C37.6194 17.9014 38.993 19.4878 40.9593 19.4878C41.5145 19.4795 42.0614 19.35 42.5666 19.1121C43.0676 18.8741 43.5143 18.536 43.8775 18.1143L45.4222 19.6423C44.654 20.5607 43.6228 21.2204 42.4706 21.5335C41.3183 21.8466 40.0951 21.8007 38.9679 21.3999C37.8407 20.9991 36.8638 20.2602 36.1666 19.2874C35.4694 18.3147 35.0895 17.1499 35.0728 15.9559L35.0394 15.9183Z" fill="#002D74"/>
<path d="M47.7139 10.2697H50.2939V12.7871C50.9953 11.1172 52.2811 9.97328 54.2516 10.0568V12.7704H54.1055C51.8595 12.7704 50.2939 14.2274 50.2939 17.1874V21.4415H47.7139V10.2697Z" fill="#002D74"/>
<path d="M55.4835 15.9183V15.8807C55.5211 14.3319 56.164 12.854 57.2703 11.7685C58.3766 10.6831 59.867 10.0736 61.4159 10.0652C62.9689 10.061 64.4593 10.658 65.574 11.7351C66.6887 12.8122 67.3441 14.2818 67.3942 15.8348V15.8765C67.3942 16.6572 67.2398 17.4254 66.935 18.1435C66.6302 18.8615 66.1877 19.5128 65.6283 20.0555C65.0689 20.5983 64.4092 21.0241 63.6828 21.308C62.9564 21.5919 62.1841 21.7296 61.4034 21.7088C60.631 21.7296 59.8629 21.5919 59.1448 21.308C58.4267 21.0241 57.7713 20.6024 57.216 20.0597C56.665 19.5212 56.2266 18.8741 55.926 18.1602C55.6338 17.4588 55.4793 16.6906 55.4835 15.9183ZM64.8351 15.9183V15.8807C64.8559 15.4173 64.7808 14.9539 64.618 14.5197C64.4552 14.0856 64.2047 13.6889 63.8874 13.3508C63.5701 13.0126 63.1818 12.7454 62.756 12.5617C62.3302 12.3781 61.8709 12.282 61.4075 12.2779C59.3535 12.2779 58.0385 13.8852 58.0385 15.8348V15.8765C58.0218 16.3358 58.0969 16.795 58.2597 17.225C58.4226 17.655 58.6689 18.0475 58.9861 18.3814C59.3034 18.7154 59.6833 18.9826 60.105 19.1663C60.5267 19.35 60.9817 19.446 61.4409 19.4502C63.5242 19.4544 64.8351 17.8429 64.8351 15.9183Z" fill="#002D74"/>
<path d="M69.9783 10.2697H72.55V11.9855C72.9132 11.3885 73.4267 10.8917 74.0404 10.5536C74.6541 10.2112 75.343 10.0359 76.0444 10.0442C78.5618 10.0442 80.0188 11.735 80.0188 14.3151V21.4457H77.4554V15.0916C77.4554 13.3549 76.5913 12.3654 75.0633 12.3654C73.5353 12.3654 72.5459 13.405 72.5459 15.1375V21.4582H69.9658L69.9783 10.2697Z" fill="#002D74"/>
<path d="M82.5128 15.9185V15.881C82.5504 14.3321 83.1933 12.8542 84.2996 11.7688C85.4059 10.6833 86.8963 10.0738 88.4452 10.0655C89.9982 10.0613 91.4886 10.6583 92.6033 11.7354C93.718 12.8125 94.3734 14.282 94.4235 15.835V15.8768C94.4235 16.6575 94.2691 17.4256 93.9643 18.1437C93.6595 18.8618 93.217 19.5131 92.6576 20.0558C92.0982 20.5985 91.4385 21.0243 90.7121 21.3082C89.9857 21.5921 89.2092 21.7299 88.4327 21.709C87.6603 21.7299 86.8922 21.5921 86.1741 21.3082C85.456 21.0243 84.8006 20.6027 84.2453 20.06C83.6943 19.5214 83.2559 18.8743 82.9553 18.1604C82.6631 17.459 82.5086 16.6909 82.5128 15.9185ZM91.8644 15.9185V15.881C91.8852 15.4176 91.8101 14.9542 91.6473 14.52C91.4845 14.0858 91.234 13.6892 90.9167 13.351C90.5952 13.0129 90.2111 12.7457 89.7853 12.562C89.3595 12.3783 88.9003 12.2823 88.4368 12.2781C86.3828 12.2781 85.0678 13.8854 85.0678 15.835V15.8768C85.0511 16.336 85.1262 16.7953 85.289 17.2253C85.4518 17.6553 85.6982 18.0477 86.0154 18.3817C86.3327 18.7157 86.7126 18.9829 87.1343 19.1665C87.556 19.3502 88.011 19.4463 88.4702 19.4504C90.5368 19.4546 91.8644 17.8431 91.8644 15.9185Z" fill="#002D74"/>
<path d="M96.1123 19.9805L97.2562 18.2438C98.2999 19.0788 99.5816 19.5589 100.918 19.6215C102.02 19.6215 102.654 19.1372 102.654 18.415V18.3732C102.654 17.509 101.473 17.2126 100.162 16.8077C98.5086 16.3234 96.6676 15.6638 96.6676 13.5513V13.5096C96.6676 11.372 98.4252 10.082 100.65 10.082C102.112 10.1113 103.531 10.5496 104.754 11.3512L103.74 13.1714C102.8 12.5493 101.715 12.1861 100.592 12.1152C99.6192 12.1152 99.0263 12.6036 99.0263 13.2131V13.2549C99.0263 14.0815 100.233 14.4155 101.544 14.8413C103.172 15.3506 105.013 16.0896 105.013 18.1018V18.1394C105.013 20.494 103.189 21.6546 100.863 21.6546C99.1307 21.6421 97.4649 21.0534 96.1123 19.9805Z" fill="#002D74"/>
</svg>
