<svg width="118" height="32" viewBox="0 0 118 32" fill="none" xmlns="http://www.w3.org/2000/svg">
<g clip-path="url(#clip0_10385_13458)">
<mask id="mask0_10385_13458" style="mask-type:luminance" maskUnits="userSpaceOnUse" x="36" y="7" width="82" height="16">
<path d="M118 7.82422H36V22.8242H118V7.82422Z" fill="white"/>
</mask>
<g mask="url(#mask0_10385_13458)">
<path d="M106.109 7.82422C105.3 7.82422 104.643 8.50617 104.643 9.34651C104.643 10.1868 105.3 10.8688 106.109 10.8688C106.919 10.8688 107.576 10.1868 107.576 9.34651C107.576 8.50617 106.919 7.82422 106.109 7.82422Z" fill="black"/>
<path d="M91.1082 12.1492C89.4331 11.4833 87.8831 11.6977 86.4575 12.7922C86.3762 12.8539 86.3378 12.833 86.3405 12.7287C86.3808 11.3117 86.3771 9.89561 86.3287 8.47955C86.3268 8.42833 86.2875 8.3885 86.2391 8.38755L84.0943 8.35815C84.044 8.35815 84.002 8.40083 84.002 8.45299V22.5368C84.0011 22.5889 84.0422 22.6316 84.0934 22.6316H86.2437C86.2939 22.6316 86.336 22.5889 86.3351 22.5368C86.3305 20.6161 86.3378 18.6955 86.3552 16.7748C86.3698 15.2914 86.919 14.1286 88.4516 13.9664C89.7794 13.826 90.8386 14.5848 91.0287 15.9961C91.0789 16.3679 91.1036 16.7938 91.1045 17.2728C91.1072 19.6781 91.1045 21.4309 91.0972 22.532C91.0972 22.5842 91.1383 22.6269 91.1886 22.6278L93.359 22.6458C93.4093 22.6458 93.4513 22.6032 93.4513 22.551C93.4467 20.3648 93.433 18.1852 93.4111 16.0123C93.3946 14.4501 92.5868 12.7372 91.1082 12.1492Z" fill="black"/>
<path d="M82.7531 18.5343L80.1751 18.5277C80.1422 18.5277 80.1112 18.5457 80.0947 18.5761C79.9055 18.9261 79.7502 19.1765 79.6296 19.3273C78.4306 20.8211 76.1487 20.9368 74.6179 19.9789C71.8334 18.2365 71.922 12.9005 75.1142 11.584C76.6348 10.957 78.5996 11.1648 79.6753 12.5865C79.7602 12.6984 79.8992 12.9251 80.0901 13.2656C80.1066 13.295 80.1368 13.313 80.1687 13.313H82.7513C82.7623 13.313 82.7733 13.3111 82.7842 13.3064C82.8317 13.2874 82.8546 13.2334 82.8363 13.185C82.2926 11.6997 81.3723 10.6004 80.0774 9.88625C78.299 8.90553 76.0436 8.80784 74.2012 9.59317C69.0516 11.7879 68.8332 19.5388 73.8338 22.0645C76.1953 23.2568 79.4642 22.9134 81.3878 20.9804C82.0285 20.3364 82.5119 19.5644 82.8381 18.6633C82.8418 18.6529 82.8445 18.6415 82.8445 18.6292C82.8445 18.577 82.8043 18.5343 82.7531 18.5343ZM82.4132 12.928C82.4132 12.9223 82.415 12.9175 82.415 12.9118C82.415 12.9118 82.415 12.9137 82.415 12.9147C82.415 12.9194 82.4141 12.9232 82.4132 12.928ZM82.4004 12.964C82.4031 12.9593 82.4068 12.9536 82.4095 12.9479C82.4077 12.9536 82.404 12.9583 82.4004 12.964ZM72.3963 16.9428C72.3982 16.9352 72.4 16.9276 72.3991 16.9191C72.3991 16.9229 72.3991 16.9267 72.3991 16.9295C72.3991 16.9343 72.3963 16.9381 72.3963 16.9428Z" fill="black"/>
<path d="M40.6379 9.26216C39.1245 9.25552 37.6102 9.25457 36.096 9.25931C36.0457 9.25931 36.0046 9.30199 36.0046 9.35416L36 22.5331C36 22.5852 36.0411 22.6279 36.0914 22.6279C37.125 22.6308 38.1595 22.6327 39.193 22.6355C40.1499 22.6374 41.1578 22.6725 42.0086 22.4876C44.8188 21.8758 46.6712 20.0557 47.0596 17.0585C47.6243 12.7022 44.9184 9.28018 40.6379 9.26216ZM38.0608 11.0974C38.0608 11.0908 38.0626 11.0851 38.0635 11.0794C38.0626 11.086 38.0598 11.0917 38.0608 11.0984C38.0608 11.0984 38.0608 11.0984 38.0608 11.0974ZM38.132 11.0045C38.1266 11.0054 38.1202 11.0064 38.1147 11.0092C38.1202 11.0064 38.1266 11.0064 38.132 11.0045ZM38.1001 11.0196C38.0955 11.0234 38.09 11.0263 38.0854 11.0301C38.0891 11.0253 38.0946 11.0234 38.1001 11.0196ZM38.0553 17.3478C38.0553 17.3545 38.0525 17.3592 38.0516 17.3649C38.0525 17.3582 38.0553 17.3526 38.0553 17.3459C38.0553 17.3459 38.0553 17.3469 38.0553 17.3478ZM42.2718 20.2463C41.8304 20.4208 41.2328 20.5299 40.4807 20.5736C39.809 20.6124 39.1364 20.6124 38.4619 20.5754C38.4135 20.5726 38.376 20.5318 38.376 20.4816C38.376 17.4493 38.4464 14.4133 38.3623 11.3839C38.3605 11.3326 38.3998 11.289 38.4492 11.2862C39.3429 11.2416 40.2422 11.2653 41.146 11.3573C42.7315 11.5176 44.0155 12.5638 44.4569 14.1638C45.0911 16.4648 44.6424 19.3073 42.2718 20.2463ZM44.9001 17.4019C44.9029 17.4066 44.9056 17.4123 44.9102 17.4171C44.9065 17.4123 44.9038 17.4076 44.9001 17.4019ZM44.9687 17.4474C44.9641 17.4474 44.9595 17.4446 44.9549 17.4436C44.9623 17.4455 44.9687 17.4484 44.9769 17.4484C44.9741 17.4484 44.9714 17.4484 44.9687 17.4484V17.4474Z" fill="black"/>
<path d="M55.4586 9.25935L47.901 9.25366C47.8507 9.25366 47.8096 9.29634 47.8096 9.34946L47.8416 22.5369C47.8416 22.5891 47.8827 22.6318 47.9329 22.6318H50.0979C50.1481 22.6318 50.1893 22.5891 50.1893 22.5369V17.0121C50.1884 16.9599 50.2295 16.9173 50.2797 16.9173H54.2779C54.3282 16.9173 54.3693 16.8746 54.3693 16.8224V14.9492C54.3693 14.897 54.3282 14.8543 54.2779 14.8543H50.3126C50.2642 14.8543 50.224 14.8155 50.2213 14.7652C50.1801 13.9988 50.1737 13.2325 50.2021 12.4652C50.2149 12.1076 50.1783 11.7291 50.1874 11.3659C50.1893 11.3147 50.2295 11.2739 50.2788 11.2739H55.4522C55.5025 11.2739 55.5436 11.2312 55.5436 11.179L55.55 9.3542C55.55 9.30204 55.5089 9.25935 55.4586 9.25935ZM49.9051 11.0832C49.9041 11.0899 49.9014 11.0956 49.9014 11.1032C49.9014 11.1032 49.9014 11.1022 49.9014 11.1013C49.9014 11.0946 49.9041 11.0899 49.9051 11.0832ZM49.8703 11.64C49.8703 11.64 49.8703 11.6409 49.8703 11.6419C49.8703 11.6476 49.8685 11.6533 49.8667 11.659C49.8676 11.6523 49.8712 11.6466 49.8703 11.64ZM49.8164 11.7291C49.8109 11.732 49.8045 11.732 49.7991 11.7339C49.8054 11.7329 49.8109 11.732 49.8164 11.7291ZM55.2822 10.9248C55.2831 10.9182 55.2859 10.9125 55.2859 10.9059C55.2859 10.9126 55.2831 10.9192 55.2822 10.9248Z" fill="black"/>
<path d="M58.8414 9.25732H56.5458C56.5293 9.25732 56.5156 9.27154 56.5156 9.28861V22.607C56.5156 22.624 56.5293 22.6383 56.5458 22.6383H58.8414C58.8579 22.6383 58.8716 22.624 58.8716 22.607V9.28861C58.8716 9.27154 58.8579 9.25732 58.8414 9.25732Z" fill="black"/>
<path d="M62.1781 16.0161C62.148 15.98 62.1471 15.9269 62.1772 15.8909L67.5992 9.3958C67.6778 9.3019 67.6567 9.24973 67.537 9.2393C67.4155 9.22887 67.2921 9.22697 67.1669 9.23361C66.3353 9.2725 65.5 9.26206 64.6629 9.25732C64.6364 9.25732 64.6108 9.26965 64.5935 9.29052L59.071 15.8852C59.0408 15.9212 59.0418 15.9753 59.0719 16.0104L64.6913 22.5994C64.7086 22.6202 64.7333 22.6316 64.7598 22.6316H67.6174C67.7527 22.6316 67.7755 22.5795 67.686 22.4742L62.1781 16.0161Z" fill="black"/>
<path d="M94.7229 15.8121C94.7229 15.8121 94.7229 15.8207 94.7229 15.8254C94.7229 15.8776 94.764 15.9203 94.8142 15.9203L96.9499 15.9278C96.9947 15.9278 97.0331 15.8946 97.0404 15.8482C97.1144 15.3654 97.2981 14.9576 97.5915 14.6256C98.3536 13.7634 99.8103 13.6705 100.645 14.4938C101.036 14.8798 101.257 15.3768 101.308 15.9857C101.308 15.9885 101.308 15.9914 101.308 15.9942C101.308 16.0464 101.266 16.0881 101.216 16.0881C99.9684 16.072 98.9394 16.0815 98.127 16.1185C96.334 16.1991 94.6991 17.2045 94.5017 19.1725C94.2952 21.2402 95.7738 22.7046 97.7112 22.8156C99.0335 22.8905 100.196 22.4798 101.198 21.5817C101.302 21.4897 101.352 21.5143 101.349 21.6556L101.334 22.5349C101.334 22.5349 101.334 22.5358 101.334 22.5368C101.334 22.5889 101.374 22.6316 101.424 22.6316H103.648C103.698 22.6316 103.739 22.5889 103.739 22.5368C103.745 20.4577 103.744 18.3787 103.735 16.3006C103.713 10.5263 95.5143 10.1327 94.7229 15.8121ZM95.0582 15.5257C95.0582 15.5323 95.0601 15.538 95.0619 15.5447C95.0601 15.538 95.0592 15.5323 95.0582 15.5257ZM95.0884 15.5892C95.0884 15.5892 95.0975 15.5959 95.1021 15.5987C95.0975 15.5959 95.0921 15.593 95.0884 15.5892ZM95.1259 15.6101C95.1259 15.6101 95.1213 15.6073 95.1195 15.6073C95.1286 15.6101 95.1377 15.613 95.1478 15.613C95.1405 15.613 95.1332 15.612 95.1259 15.6101ZM100.18 20.1229C99.4466 20.5924 98.4121 20.8219 97.5906 20.4767C96.8768 20.177 96.6685 19.3148 97.1327 18.6898C97.3868 18.3474 97.7752 18.1719 98.2988 18.1634C99.2794 18.1473 100.26 18.1444 101.24 18.1529C101.243 18.1529 101.246 18.1529 101.25 18.1529C101.3 18.1596 101.336 18.2061 101.329 18.2582C101.237 19.0701 100.854 19.6923 100.18 20.1229Z" fill="black"/>
<path d="M117.998 16.3945C117.994 14.3942 117.207 12.6633 115.258 12.0363C113.711 11.5384 112.313 11.7793 111.064 12.7591C110.968 12.8349 110.918 12.8103 110.917 12.6841L110.913 12.0373V12.0354C110.911 11.9832 110.869 11.9415 110.819 11.9434C110.206 11.9633 109.549 11.9975 108.924 11.9377C108.826 11.9292 108.728 11.9386 108.628 11.968C108.589 11.9794 108.562 12.0174 108.562 12.0591L108.561 22.5349C108.561 22.5871 108.602 22.6288 108.652 22.6298L110.817 22.6364C110.867 22.6364 110.908 22.5947 110.909 22.5425C110.916 20.6513 110.919 18.76 110.916 16.8697C110.915 15.2535 111.538 13.9987 113.248 13.9541C114.689 13.9162 115.662 14.9927 115.664 16.496C115.667 18.5115 115.668 20.5261 115.667 22.5397C115.667 22.589 115.703 22.6298 115.751 22.6345C115.909 22.6487 116.112 22.6506 116.358 22.6411C116.836 22.6222 117.349 22.6298 117.897 22.6639C117.897 22.6639 117.9 22.6639 117.902 22.6639C117.952 22.6639 117.993 22.6212 117.993 22.5691C118 20.4758 118.001 18.4176 117.998 16.3945ZM110.521 17.4104C110.527 17.4104 110.534 17.4104 110.539 17.4085C110.533 17.4094 110.527 17.4104 110.521 17.4104ZM110.584 17.3828C110.584 17.3828 110.591 17.3743 110.595 17.3696C110.591 17.3743 110.587 17.3791 110.584 17.3828ZM110.608 17.343C110.608 17.343 110.604 17.3487 110.603 17.3525C110.606 17.344 110.609 17.3364 110.61 17.3269C110.61 17.3326 110.609 17.3373 110.608 17.343Z" fill="black"/>
<path d="M107.226 11.9558H104.976C104.945 11.9558 104.92 11.9814 104.92 12.0136V22.5758C104.92 22.608 104.945 22.6336 104.976 22.6336H107.226C107.257 22.6336 107.281 22.608 107.281 22.5758V12.0136C107.281 11.9814 107.257 11.9558 107.226 11.9558ZM106.989 12.3124C106.985 12.3077 106.983 12.301 106.979 12.2972C106.983 12.302 106.985 12.3077 106.989 12.3124ZM106.916 12.2697C106.922 12.2697 106.928 12.2726 106.933 12.2735C106.927 12.2726 106.922 12.2697 106.916 12.2697ZM106.924 17.4104C106.919 17.4123 106.912 17.4142 106.906 17.4152C106.912 17.4152 106.918 17.4123 106.924 17.4104ZM106.966 17.3801C106.966 17.3801 106.972 17.3706 106.975 17.3649C106.972 17.3706 106.97 17.3753 106.966 17.3801ZM106.984 17.3402C106.984 17.3402 106.983 17.345 106.982 17.3469C106.984 17.3374 106.986 17.3279 106.986 17.3175C106.986 17.3251 106.986 17.3326 106.984 17.3402Z" fill="black"/>
</g>
<path d="M21.9217 0.824219H9.07587L0 9.91724V22.7544L9.07587 31.8242H21.9217L30.9976 22.7544V9.91724L21.9217 0.824219ZM29.0661 21.9405L21.1072 29.8707H9.8671L1.90826 21.9405V10.7079L9.8671 2.77771H21.1072L29.0661 10.7079V21.9405Z" fill="#FEC526"/>
<path d="M19.8974 5.3128H10.7517L4.28223 11.7779V20.9174L9.89065 26.5221L9.98373 26.5919L10.775 27.3825H19.9207L20.6653 26.6384L20.805 26.5686V26.5221L26.3901 20.9174V14.6151H24.6913V20.2198L20.037 24.8709L18.8036 22.1267L21.922 19.0105V18.4058H19.8741L17.4073 20.8709H13.6606L11.0077 18.2198V14.4756L13.6606 11.8244H17.4073L19.8974 14.3128H21.922V13.6849L18.8967 10.6617L20.0603 7.87095L21.7591 9.56862C21.7126 9.73141 21.6893 9.91746 21.6893 10.0803C21.6893 11.1035 22.5271 11.9407 23.551 11.9407C24.575 11.9407 25.4127 11.1035 25.4127 10.0803C25.4127 9.057 24.575 8.21978 23.551 8.21978C23.3416 8.21978 23.1321 8.26629 22.9459 8.31281L19.9207 5.28955L19.8974 5.3128ZM12.5669 7.01048H18.3382L17.1048 9.94071H13.8701L12.5669 7.01048ZM9.12269 17.9407L5.98104 19.336V13.2198L9.12269 14.6849V17.9407ZM13.8468 22.7314H16.9652L18.2684 25.6849H12.4272L13.8235 22.7314H13.8468ZM12.1014 21.9407L10.7052 24.8942L6.88863 21.057L9.91392 19.7081L12.148 21.9407H12.1014ZM9.89065 12.9407L6.93517 11.5453L10.775 7.70816L12.1247 10.7082L9.91392 12.9174L9.89065 12.9407Z" fill="#80BC00"/>
</g>
<defs>
<clipPath id="clip0_10385_13458">
<rect width="118" height="31" fill="white" transform="translate(0 0.824219)"/>
</clipPath>
</defs>
</svg>
