<svg width="851" height="275" viewBox="0 0 851 275" fill="none" xmlns="http://www.w3.org/2000/svg">
<path d="M263.636 147.777C263.636 149.2 262.444 150.359 261.02 150.359H210.627C211.885 162.808 221.255 174.165 234.433 174.165C243.439 174.165 250.127 170.722 255.16 163.537C255.888 162.544 256.981 161.914 258.371 162.51C259.133 162.842 259.663 163.537 259.795 164.331C259.927 165.159 259.696 165.623 259.464 166.086C254.398 174.926 244.3 179.264 234.4 179.264C217.448 179.264 205.363 164.1 205.363 147.876C205.363 131.652 217.448 116.488 234.4 116.488C251.352 116.455 263.603 131.586 263.636 147.777ZM258.239 145.327C257.146 132.877 247.611 121.521 234.433 121.521C221.255 121.521 211.885 132.877 210.627 145.327H258.239ZM324.789 117.713C326.246 117.713 327.305 118.971 327.305 120.229C327.305 121.686 326.213 122.746 324.789 122.746H311.28V175.754C311.28 177.012 310.188 178.271 308.764 178.271C307.307 178.271 306.248 177.012 306.248 175.754V122.746H293.269C291.812 122.746 290.752 121.653 290.752 120.229C290.752 118.971 291.845 117.713 293.269 117.713H306.248V98.3109C306.248 97.0859 307.075 95.9602 308.267 95.7615C309.956 95.4966 311.28 96.6555 311.28 98.2447V117.713H324.789ZM407.199 143.34V175.456C407.199 176.913 405.941 177.973 404.683 177.973C403.226 177.973 402.166 176.88 402.166 175.456V143.34C402.166 132.513 396.041 121.686 383.956 121.686C368.461 121.686 361.772 135.228 362.666 149.101C362.666 149.465 362.832 151.088 362.832 151.253V175.357C362.832 176.582 362.004 177.708 360.812 177.906C359.124 178.171 357.799 177.012 357.799 175.423V69.936C357.799 68.6778 358.892 67.4197 360.316 67.4197C361.772 67.4197 362.832 68.6778 362.832 69.936V129.633C367.169 121.885 374.917 116.654 383.923 116.654C398.723 116.654 407.199 129.633 407.199 143.34ZM497.555 147.777C497.555 149.2 496.363 150.359 494.939 150.359H444.513C445.772 162.808 455.142 174.165 468.319 174.165C477.325 174.165 484.013 170.722 489.046 163.537C489.774 162.544 490.867 161.914 492.257 162.51C493.019 162.842 493.549 163.537 493.681 164.331C493.814 165.159 493.582 165.623 493.35 166.086C488.284 174.926 478.186 179.264 468.286 179.264C451.334 179.264 439.249 164.1 439.249 147.876C439.249 131.652 451.334 116.488 468.286 116.488C485.271 116.455 497.522 131.586 497.555 147.777ZM492.125 145.327C491.032 132.877 481.497 121.521 468.319 121.521C455.142 121.521 445.772 132.877 444.513 145.327H492.125ZM559.404 120.064C559.404 121.686 558.51 122.58 557.053 122.779C542.253 124.931 535.598 137.016 535.598 151.088V175.191C535.598 176.416 534.77 177.542 533.578 177.741C531.89 178.006 530.565 176.847 530.565 175.258V120.329C530.565 119.104 531.393 117.978 532.585 117.779C534.273 117.514 535.598 118.673 535.598 120.263V131.454C539.736 124.434 548.047 117.746 556.689 117.746C557.947 117.713 559.404 118.64 559.404 120.064ZM642.178 147.777C642.178 149.2 640.986 150.359 639.562 150.359H589.169C590.427 162.808 599.797 174.165 612.975 174.165C621.981 174.165 628.669 170.722 633.702 163.537C634.43 162.544 635.523 161.914 636.913 162.51C637.675 162.842 638.204 163.537 638.337 164.331C638.469 165.159 638.238 165.623 638.006 166.086C632.94 174.926 622.842 179.264 612.942 179.264C595.99 179.264 583.905 164.1 583.905 147.876C583.905 131.652 595.99 116.488 612.942 116.488C629.894 116.455 642.144 131.586 642.178 147.777ZM636.781 145.327C635.688 132.877 626.153 121.521 612.975 121.521C599.797 121.521 590.427 132.877 589.169 145.327H636.781ZM723.528 120.693V175.754C723.528 177.211 722.27 178.271 721.012 178.271C719.555 178.271 718.495 177.178 718.495 175.754V165.292C714.356 173.602 706.94 179.529 697.57 179.529C682.604 179.529 674.294 166.55 674.294 152.842V120.561C674.294 119.302 675.387 118.044 676.81 118.044C678.267 118.044 679.327 119.302 679.327 120.561V152.842C679.327 163.669 685.452 174.496 697.537 174.496C714.489 174.496 718.462 158.637 718.462 141.122V120.561C718.462 119.104 719.919 117.614 721.707 118.144C722.799 118.508 723.528 119.567 723.528 120.693ZM851 143.141V175.423C851 176.88 849.742 177.939 848.483 177.939C847.027 177.939 845.967 176.847 845.967 175.423V143.141C845.967 132.314 839.842 121.686 827.757 121.686C812.593 121.686 806.832 137.91 806.832 150.525V175.423C806.832 176.88 805.573 177.939 804.315 177.939C802.858 177.939 801.799 176.847 801.799 175.423V143.141C801.799 132.314 795.674 121.686 783.589 121.686C768.259 121.686 761.935 133.771 762.498 149.829C762.498 150.194 762.663 150.922 762.498 151.088V175.357C762.498 176.582 761.67 177.708 760.445 177.906C758.756 178.171 757.432 177.012 757.432 175.423V120.329C757.432 119.104 758.26 117.978 759.452 117.779C761.14 117.514 762.465 118.673 762.465 120.263V129.467C766.802 121.719 774.55 116.654 783.555 116.654C793.819 116.654 801.766 123.143 805.011 132.712C809.149 123.342 817.261 116.654 827.724 116.654C842.524 116.654 851 129.434 851 143.141Z" fill="#3C3C3B"/>
<g opacity="0.6">
<path opacity="0.6" d="M84.2308 101.448L0 139.756L84.2308 189.519L168.428 139.756L84.2308 101.448Z" fill="#010101"/>
</g>
<g opacity="0.45">
<path opacity="0.45" d="M0 139.756L84.2308 189.519V0L0 139.756Z" fill="#010101"/>
</g>
<g opacity="0.8">
<path opacity="0.8" d="M84.2314 0V189.519L168.429 139.756L84.2314 0Z" fill="#010101"/>
</g>
<g opacity="0.45">
<path opacity="0.45" d="M0 155.714L84.2308 274.379V205.478L0 155.714Z" fill="#010101"/>
</g>
<g opacity="0.8">
<path opacity="0.8" d="M84.2314 205.478V274.379L168.495 155.714L84.2314 205.478Z" fill="#010101"/>
</g>
</svg>
