<svg width="119" height="38" viewBox="0 0 119 38" fill="none" xmlns="http://www.w3.org/2000/svg">
<path d="M22.1201 8.92436C15.9807 11.2908 15.4183 17.3513 13.6578 20.1817C11.8765 23.0457 7.79568 24.6258 8.35373 26.0854C8.91176 27.5448 12.9975 25.9773 16.2299 26.9085C19.4239 27.8288 23.8806 31.9551 30.02 29.5885C33.1476 28.3832 35.4124 25.902 36.4538 22.9629C36.5657 22.6475 36.3564 22.3101 36.0241 22.2789C35.8177 22.2594 35.6194 22.368 35.5263 22.554C34.5843 24.4379 32.9682 25.9894 30.8535 26.8044C27.3621 28.15 23.542 27.0936 21.196 24.4437C20.6632 23.8421 20.2075 23.1571 19.8477 22.4001C19.7488 22.1918 19.6547 21.98 19.5713 21.7609C19.4875 21.5419 19.4162 21.3213 19.3507 21.0998C21.196 20.2362 23.3254 19.3215 25.7395 18.3911C28.1063 17.4788 30.2606 16.7389 32.1784 16.1469C33.4759 15.7467 34.6652 15.4137 35.739 15.1416C35.8168 15.1221 35.8933 15.1027 35.9695 15.0837C36.1318 15.0433 36.2986 15.1304 36.3587 15.2871L36.3598 15.2901C36.3951 15.3831 36.4257 15.4765 36.4587 15.57C36.6709 16.1732 36.8301 16.7827 36.9351 17.3936C36.9812 17.6609 37.2721 17.8065 37.5107 17.6779C38.3922 17.2028 39.1985 16.7393 39.9188 16.2934C42.6035 14.6333 44.0919 13.2255 43.7864 12.4275C43.4815 11.6292 41.4373 11.5834 38.3358 12.153C37.3502 12.3341 36.2575 12.5775 35.0798 12.8788C34.8761 12.9309 34.67 12.985 34.4616 13.0405C33.4705 13.3043 32.4253 13.6066 31.3369 13.945C29.3127 14.5744 27.1411 15.3285 24.8991 16.1927C22.8018 17.0013 20.814 17.8396 18.991 18.675C18.9687 15.1294 21.1034 11.7776 24.5947 10.432C26.709 9.61711 28.9442 9.68382 30.9 10.4515C31.0929 10.5275 31.3126 10.4749 31.4538 10.3215C31.6795 10.0757 31.6103 9.68429 31.3169 9.52461C28.5845 8.04126 25.2478 7.71899 22.1201 8.92436Z" fill="#DB5A3F"/>
<path d="M57.9345 23.8071H51.7821V20.0531H57.6033C57.7895 20.0531 57.9138 19.9273 57.9138 19.7385V17.8301C57.9138 17.6414 57.7895 17.5155 57.6033 17.5155H51.7821V14.2019H57.9138C58.1 14.2019 58.2243 14.0761 58.2243 13.8874V11.9789C58.2243 11.7901 58.1 11.6643 57.9138 11.6643H49.2568C49.0706 11.6643 48.9463 11.7901 48.9463 11.9789V26.0302C48.9463 26.2188 49.0706 26.3447 49.2568 26.3447H57.9345C58.1209 26.3447 58.245 26.2188 58.245 26.0302V24.1216C58.245 23.933 58.1209 23.8071 57.9345 23.8071Z" fill="#DB5A3F"/>
<path d="M67.0369 16.32L64.5738 23.115L62.0899 16.32C62.0279 16.1522 61.8829 16.0684 61.7174 16.0684H59.5853C59.3576 16.0684 59.2542 16.1942 59.3369 16.4249L63.1455 26.0931C63.2076 26.2608 63.3526 26.3447 63.518 26.3447H65.6294C65.7951 26.3447 65.9399 26.2608 66.002 26.0931L69.7899 16.4249C69.8726 16.1942 69.7692 16.0684 69.5414 16.0684H67.4096C67.2439 16.0684 67.0991 16.1522 67.0369 16.32Z" fill="#DB5A3F"/>
<path d="M83.8414 15.8376C82.1853 15.8376 80.985 16.6346 80.2604 17.7461C79.6187 16.5087 78.4804 15.8376 77.1348 15.8376C75.6653 15.8376 74.5888 16.6556 73.9265 17.7461V17.7251L73.8437 16.3829C73.823 16.1942 73.7196 16.0683 73.5332 16.0683H71.5048C71.3184 16.0683 71.1943 16.1942 71.1943 16.3829V26.0301C71.1943 26.2187 71.3184 26.3446 71.5048 26.3446H73.616C73.8024 26.3446 73.9265 26.2187 73.9265 26.0301V20.4096C73.9265 19.9272 74.6304 18.3962 76.1619 18.3962C77.1555 18.3962 78.0662 18.9835 78.0662 20.6822V26.0301C78.0662 26.2187 78.1906 26.3446 78.3767 26.3446H80.4881C80.6745 26.3446 80.7986 26.2187 80.7986 26.0301V20.3676C80.7986 19.6336 81.5023 18.3962 83.0341 18.3962C84.0069 18.3962 84.9177 18.9835 84.9177 20.6822V26.0301C84.9177 26.2187 85.0418 26.3446 85.2282 26.3446H87.3396C87.5257 26.3446 87.65 26.2187 87.65 26.0301V20.1789C87.65 17.4315 86.0562 15.8376 83.8414 15.8376Z" fill="#DB5A3F"/>
<path d="M94.108 26.6176C97.0265 26.6176 99.3656 24.2477 99.3656 21.2277C99.3656 18.2077 97.0265 15.8379 94.108 15.8379C91.1895 15.8379 88.8506 18.2077 88.8506 21.2277C88.8506 24.2477 91.1895 26.6176 94.108 26.6176ZM94.108 24.0588C92.6385 24.0588 91.4793 22.8845 91.4793 21.2277C91.4793 19.5709 92.6385 18.3965 94.108 18.3965C95.557 18.3965 96.7367 19.5709 96.7367 21.2277C96.7367 22.8845 95.557 24.0588 94.108 24.0588Z" fill="#DB5A3F"/>
<path d="M103.187 18.9415C103.187 18.4172 103.663 18.0607 104.305 18.0607C105.03 18.0607 105.506 18.3333 106.292 18.8576C106.479 19.0044 106.624 19.0464 106.748 18.8786L107.534 17.83C107.638 17.7042 107.679 17.5364 107.555 17.3896C106.706 16.3829 105.382 15.8376 104.078 15.8376C102.256 15.8376 100.559 16.9911 100.559 18.9625C100.559 22.4229 105.464 21.7937 105.464 23.4295C105.464 24.0797 104.823 24.2895 104.16 24.2895C103.353 24.2895 102.463 23.8909 101.635 23.3456C101.449 23.1988 101.304 23.1569 101.18 23.3247L100.372 24.4781C100.29 24.604 100.248 24.7508 100.372 24.8976C101.097 25.7574 102.504 26.6174 104.243 26.6174C106.106 26.6174 108.114 25.4638 108.114 23.4715C108.114 19.6965 103.187 20.6193 103.187 18.9415Z" fill="#DB5A3F"/>
</svg>
