<svg width="95" height="25" viewBox="0 0 95 25" fill="none" xmlns="http://www.w3.org/2000/svg">
<path d="M8.74056 0.241716C9.33893 -0.0727594 10.2495 -0.0727594 10.8478 0.241716L16.9536 3.45032C17.3141 3.63978 17.512 3.92194 17.5474 4.21314H17.5532V20.3414C17.5453 20.6591 17.3454 20.9748 16.9536 21.1807L10.8478 24.3894C10.2495 24.7038 9.33893 24.7038 8.74056 24.3894L2.63475 21.1807C2.24449 20.9757 2.05734 20.6578 2.04792 20.3414C2.04696 20.3102 2.04696 20.2843 2.04773 20.2627V4.31662C2.04715 4.29912 2.04695 4.28161 2.04753 4.2643L2.04792 4.21295H2.05061C2.07773 3.91848 2.26661 3.64343 2.63455 3.45013L8.74056 0.241716ZM16.5919 13.2112L10.8476 16.2297C10.2493 16.5442 9.33873 16.5442 8.74037 16.2297L3.00885 13.2179V20.3096L8.74037 23.3057C9.06407 23.4779 9.3999 23.6456 9.72842 23.6669L9.79401 23.669C10.1362 23.6702 10.4685 23.4973 10.8055 23.3336L16.5919 20.2839V13.2112ZM1.05487 19.9909C1.05487 20.6087 1.127 21.015 1.27029 21.3012C1.38916 21.5383 1.56726 21.7195 1.8927 21.9401L1.91136 21.9526C1.98272 22.0005 2.06138 22.0507 2.15717 22.1095L2.27007 22.1784L2.61686 22.3867L2.11947 23.2049L1.73133 22.9716L1.66612 22.9318C1.5538 22.8628 1.4609 22.8037 1.37416 22.7454C0.446695 22.1232 0.100676 21.445 0.0939437 20.0338L0.09375 19.9909H1.05487ZM9.31335 8.88833C9.26891 8.90353 9.22718 8.92103 9.18929 8.94104L3.08347 12.1496C3.07713 12.1531 3.07097 12.1564 3.0652 12.1596L3.06001 12.1627L3.06962 12.1681L3.08347 12.1756L9.18929 15.3842C9.22737 15.4042 9.26891 15.4217 9.31335 15.4369V8.88833ZM10.2747 8.88833V15.4369C10.3191 15.4217 10.3608 15.4042 10.3987 15.3842L16.5045 12.1756C16.5109 12.1721 16.517 12.1689 16.5228 12.1656L16.528 12.1625L16.5184 12.1571L16.5045 12.1496L10.3987 8.94104C10.3608 8.92103 10.3193 8.90353 10.2747 8.88833ZM16.5919 5.35736L11.1146 8.23573L16.5919 11.1141V5.35736ZM3.00885 5.3641V11.1074L8.4734 8.23573L3.00885 5.3641ZM10.3989 1.08724C10.0814 0.920288 9.50684 0.920288 9.18929 1.08724L3.08347 4.29585C3.07713 4.29931 3.07097 4.30258 3.0652 4.30585L3.06001 4.30892L3.06962 4.31431L3.08347 4.32181L9.18929 7.53042C9.50684 7.69717 10.0814 7.69717 10.3989 7.53042L16.5047 4.32181C16.5111 4.31835 16.5172 4.31508 16.523 4.31181L16.5282 4.30873L16.5186 4.30335L16.5047 4.29585L10.3989 1.08724ZM17.4941 1.43903L17.8823 1.67233L17.9475 1.71215C18.0596 1.78101 18.1527 1.84025 18.2394 1.89853C19.1669 2.52075 19.5129 3.19894 19.5196 4.61013L19.5198 4.65321H18.5587C18.5587 4.03523 18.4866 3.6292 18.3433 3.343C18.2244 3.10584 18.0463 2.92466 17.7209 2.70405L17.7022 2.69154C17.6309 2.64365 17.5522 2.59345 17.4564 2.5344L17.3435 2.46555L16.9967 2.25724L17.4941 1.43903Z" fill="#1969FF"/>
<path d="M29.283 19.6693V10.675H31.7772V9.02816H29.283V7.84584C29.283 6.5087 29.8679 5.84013 31.0375 5.84013C31.3756 5.84013 31.7351 5.89649 32.1155 6.00901V4.2566C31.6505 4.1158 31.1361 4.04541 30.5724 4.04541C29.4874 4.04541 28.6454 4.35508 28.0464 4.97441C27.4475 5.59375 27.148 6.49466 27.148 7.67697V9.02816H25.0977V10.675H27.148V19.6693H29.283ZM37.9496 19.817C38.767 19.817 39.4821 19.6482 40.0951 19.3102C40.7081 18.9725 41.1697 18.4868 41.4798 17.8535V19.6693H43.5936V9.02796H41.4798V10.7592C41.1555 10.1258 40.6906 9.63672 40.0846 9.29185C39.4787 8.94699 38.767 8.77465 37.9496 8.77465C37.0337 8.77465 36.2162 9.007 35.4976 9.4713C34.7789 9.9358 34.2188 10.5903 33.8172 11.4349C33.4156 12.2795 33.2148 13.2508 33.2148 14.3486C33.2148 15.4465 33.4119 16.4073 33.8066 17.2307C34.2011 18.0541 34.7542 18.6911 35.4659 19.1414C36.1776 19.5918 37.0054 19.817 37.9496 19.817ZM38.457 18.1279C37.4845 18.1279 36.7271 17.7971 36.1847 17.1356C35.6421 16.474 35.3707 15.545 35.3707 14.3486C35.3707 13.1381 35.6421 12.1916 36.1847 11.509C36.7271 10.8263 37.4776 10.4849 38.4358 10.4849C39.4081 10.4849 40.1586 10.8158 40.687 11.4772C41.2155 12.1389 41.4798 13.0819 41.4798 14.3065C41.4798 15.5171 41.2155 16.4565 40.687 17.1253C40.1586 17.7936 39.4152 18.1279 38.457 18.1279ZM48.8358 19.6693V13.6097C48.8358 12.6666 49.107 11.9136 49.6496 11.3505C50.1922 10.7875 50.9144 10.5059 51.8163 10.5059C52.6055 10.5059 53.1796 10.7171 53.5391 11.1393C53.8984 11.5615 54.078 12.2371 54.078 13.1661V19.6691H56.213V13.0394C56.213 10.196 54.9376 8.77446 52.387 8.77446C51.5697 8.77446 50.8404 8.95392 50.1991 9.31282C49.558 9.67173 49.0683 10.1891 48.73 10.8646L48.5398 9.02777H46.5529C46.6656 9.91445 46.722 10.9139 46.722 12.026V19.6691L48.8358 19.6693ZM63.3576 19.817C63.9494 19.817 64.478 19.7397 64.9431 19.5849V17.8535C64.5624 17.966 64.1891 18.0223 63.8227 18.0223C63.2589 18.0223 62.8187 17.871 62.5015 17.5684C62.1845 17.2659 62.0259 16.7485 62.0259 16.0166V10.675H64.9642V9.02816H62.0259V5.62894L59.8911 6.36791V9.02816H57.8194V10.675H59.8911V16.1857C59.8911 17.368 60.194 18.2689 60.7999 18.8882C61.4059 19.5074 62.2584 19.817 63.3576 19.817ZM71.517 19.817C72.5457 19.817 73.4547 19.5918 74.2438 19.1414C75.033 18.6909 75.6423 18.0504 76.0722 17.2201C76.5021 16.3896 76.7169 15.4184 76.7169 14.3063C76.7169 13.1944 76.5021 12.2196 76.0722 11.3822C75.6423 10.5448 75.033 9.9008 74.2438 9.45034C73.4547 8.99988 72.5457 8.77465 71.517 8.77465C70.4742 8.77465 69.5583 8.99988 68.7691 9.45034C67.9799 9.9008 67.3704 10.5448 66.9405 11.3822C66.5108 12.2196 66.2958 13.1944 66.2958 14.3063C66.2958 15.4182 66.5108 16.3896 66.9405 17.2201C67.3704 18.0506 67.9799 18.6911 68.7691 19.1414C69.5583 19.5918 70.4742 19.817 71.517 19.817ZM71.4959 18.1279C70.5234 18.1279 69.7731 17.8042 69.2446 17.1568C68.7162 16.5094 68.4519 15.5592 68.4519 14.3065C68.4519 13.0819 68.7197 12.1389 69.2551 11.4772C69.7906 10.8158 70.5446 10.4849 71.517 10.4849C72.4753 10.4849 73.2187 10.8158 73.747 11.4772C74.2756 12.1389 74.5397 13.0819 74.5397 14.3065C74.5397 15.5592 74.279 16.5094 73.7576 17.1568C73.2362 17.8042 72.4822 18.1279 71.4959 18.1279ZM81.325 19.6693V13.6518C81.325 12.6805 81.5647 11.9134 82.0438 11.3505C82.5229 10.7875 83.1711 10.5059 83.9885 10.5059C84.6931 10.5059 85.2039 10.7171 85.5209 11.1393C85.8381 11.5615 85.9965 12.2302 85.9965 13.145V19.6691H88.1315V13.6516C88.1315 12.6803 88.3675 11.9132 88.8397 11.3503C89.3117 10.7873 89.9564 10.5057 90.7739 10.5057C91.4784 10.5057 91.9893 10.7169 92.3062 11.1391C92.6234 11.5613 92.7819 12.23 92.7819 13.1448V19.669H94.9169V13.0392C94.9169 10.1958 93.7332 8.77427 91.3657 8.77427C90.5765 8.77427 89.8683 8.95718 89.2413 9.3232C88.6141 9.68923 88.1386 10.1889 87.8145 10.8223C87.3071 9.45688 86.2291 8.77427 84.5803 8.77427C83.8052 8.77427 83.1288 8.95026 82.551 9.30205C81.9732 9.65403 81.5295 10.1537 81.2194 10.8011L81.0292 9.02758H79.0421C79.1548 9.91427 79.2112 10.9137 79.2112 12.0258V19.669H81.325V19.6693Z" fill="#1969FF"/>
</svg>
