<svg width="124" height="24" viewBox="0 0 124 24" fill="none" xmlns="http://www.w3.org/2000/svg">
<path d="M19.0818 0.767578H4.64687C2.25523 0.767578 0.316406 2.70639 0.316406 5.09804V19.5329C0.316406 21.9246 2.25523 23.8634 4.64687 23.8634H19.0818C21.4733 23.8634 23.4122 21.9246 23.4122 19.5329V5.09804C23.4122 2.70639 21.4733 0.767578 19.0818 0.767578Z" fill="#1D2A3A"/>
<g style="mix-blend-mode:multiply">
<path d="M19.0818 0.767578H4.64687C2.25523 0.767578 0.316406 2.70639 0.316406 5.09804V19.5329C0.316406 21.9246 2.25523 23.8634 4.64687 23.8634H19.0818C21.4733 23.8634 23.4122 21.9246 23.4122 19.5329V5.09804C23.4122 2.70639 21.4733 0.767578 19.0818 0.767578Z" stroke="white" stroke-width="0.0222679"/>
</g>
<g style="mix-blend-mode:multiply">
<path d="M6.2754 11.4758H4.64746V10.5009H6.2754C6.2754 10.4742 6.2754 10.4521 6.2754 10.4299C6.27957 10.1454 6.27249 9.86062 6.29032 9.57661C6.32461 9.03122 6.46415 8.51735 6.79181 8.06898C7.13492 7.5995 7.60782 7.33092 8.16445 7.19682C8.61799 7.08777 9.07773 7.07664 9.54039 7.11597C10.0194 7.15764 10.4902 7.26605 10.9392 7.43807C10.9645 7.44769 10.9898 7.45845 11.0206 7.47097L10.7453 8.35122C10.68 8.32593 10.6188 8.30062 10.5564 8.2776C9.96281 8.05659 9.35012 7.99927 8.72769 8.09618C8.01922 8.20612 7.5915 8.65283 7.47523 9.3632C7.43323 9.6209 7.43664 9.8796 7.43651 10.1388C7.43651 10.2564 7.43651 10.374 7.43651 10.4979H10.3202V11.4698H7.44133V17.4918H6.2754V11.4758Z" fill="white"/>
</g>
<g style="mix-blend-mode:multiply">
<path d="M15.5998 14.5028C15.5974 14.4987 15.5953 14.4945 15.5937 14.4901C15.5953 14.4857 15.5974 14.4815 15.5998 14.4775C15.8831 13.9662 16.1774 13.4287 16.46 12.9167C16.5688 12.7192 16.6866 12.5178 16.8016 12.3078H15.7009C15.7009 12.3078 15.2142 13.3958 14.9925 13.8811H14.9672C14.7224 13.3926 14.1955 12.3078 14.1955 12.3078L13.0373 12.3015C13.0535 12.3321 13.8779 13.8078 14.2588 14.4775C14.2614 14.4822 14.2637 14.4863 14.2657 14.4901L14.2588 14.5028C13.8779 15.1628 13.0408 16.6677 13.0246 16.6978L14.1955 16.6916C14.1955 16.6916 14.7224 15.6223 14.9672 15.1415H14.9925C15.2142 15.6197 15.7009 16.6922 15.7009 16.6922H16.8143C16.6987 16.4846 15.8831 15.0067 15.5998 14.5028ZM12.6232 17.0403C12.4314 17.1954 12.2302 17.3575 12.0448 17.5075C10.4214 16.0311 10.2409 13.1948 12.0384 11.4783C12.226 11.6289 12.426 11.793 12.6182 11.9483C12.5676 12.0063 12.5196 12.0612 12.4723 12.1168C12.0801 12.5774 11.8084 13.0853 11.6938 13.683C11.6215 14.0597 11.6082 14.4393 11.6348 14.8216C11.6648 15.2517 11.7638 15.6644 11.9484 16.0553C12.1092 16.3916 12.318 16.7027 12.5683 16.9789C12.5846 16.9962 12.5997 17.0139 12.6232 17.0403ZM17.2106 17.0403C17.4022 17.1954 17.6035 17.3575 17.7888 17.5075C19.4122 16.0311 19.5929 13.1948 17.7953 11.4783C17.6082 11.6289 17.4077 11.793 17.215 11.9483C17.2656 12.0063 17.3135 12.0612 17.3609 12.1168C17.7532 12.5774 18.0249 13.0853 18.1394 13.683C18.2116 14.0597 18.2248 14.4393 18.1983 14.8216C18.1683 15.2517 18.0694 15.6644 17.8849 16.0553C17.7241 16.3916 17.5152 16.7026 17.265 16.9789C17.2484 16.9962 17.2335 17.0139 17.2106 17.0403Z" fill="#F1D649"/>
</g>
<path d="M6.05172 11.2386H4.32617V10.1882H6.05172V10.1132C6.05172 9.81313 6.05172 9.51304 6.05172 9.21294C6.05172 8.61274 6.20178 8.08758 6.57689 7.63743C6.95202 7.11226 7.40216 6.88718 8.00235 6.73713C8.4525 6.66211 8.90265 6.66211 9.42782 6.66211C9.87796 6.73713 10.4031 6.88719 10.8533 7.03724H10.9283L10.6282 8.01255C10.5532 8.01255 10.4782 7.93753 10.4031 7.93753C9.87797 7.63743 9.20275 7.63743 8.60256 7.71245C7.85231 7.86251 7.40216 8.31264 7.32714 9.06289C7.25212 9.28796 7.25212 9.58806 7.25212 9.81313C7.25212 9.96319 7.25212 10.0382 7.25212 10.1882H10.2531V11.1636H7.25212V17.3906H6.05172V11.2386Z" fill="#F7F7F7"/>
<path d="M15.7301 14.3896C16.0303 13.8644 16.3303 13.2643 16.6305 12.7391C16.7054 12.514 16.8554 12.289 16.9305 12.0639H15.8052C15.8052 12.0639 15.2799 13.1892 15.0549 13.7144C14.8298 13.1892 14.2296 12.0639 14.2296 12.0639H13.0293C13.0293 12.0639 13.9296 13.6394 14.3047 14.3146C13.9296 14.9898 13.0293 16.5653 13.0293 16.5653H14.2296C14.2296 16.5653 14.7548 15.44 15.0549 14.9898C15.2799 15.515 15.8052 16.5653 15.8052 16.5653H16.9305C16.8554 16.4152 16.0303 14.9148 15.7301 14.3896ZM12.5791 17.0154C12.354 17.1654 12.204 17.3156 11.9789 17.4656C10.3284 15.9651 10.1033 12.9642 11.9789 11.1636C12.204 11.3886 12.4291 11.5387 12.5791 11.6887C12.5041 11.7638 12.5041 11.8388 12.4291 11.8388C12.0539 12.364 11.7539 12.8891 11.6788 13.4893C11.6038 13.8644 11.6038 14.2396 11.6038 14.6897C11.6038 15.1399 11.7539 15.59 11.9039 15.9651C12.0539 16.3403 12.279 16.6403 12.5791 17.0154ZM17.3807 17.0154C17.6058 17.1654 17.7558 17.3156 17.9809 17.4656C19.6314 15.9651 19.8565 12.9642 17.9809 11.1636C17.7558 11.3136 17.6058 11.4637 17.3807 11.6887C17.4558 11.7638 17.4558 11.8388 17.5307 11.9138C17.9058 12.364 18.206 12.8891 18.356 13.5644C18.4311 13.9395 18.4311 14.3146 18.4311 14.7647C18.4311 15.2149 18.2809 15.665 18.1309 16.0401C17.9058 16.3403 17.6807 16.6403 17.3807 17.0154Z" fill="#F1D649"/>
<path d="M41.0333 8.66275H35.7714V10.9599H40.6493V13.3482H35.7714V18.6224H32.8369V6.27441H41.0333V8.66275Z" fill="#1D2A3A"/>
<path d="M51.3144 18.6224H48.5489V17.5942C48.0368 18.0143 47.5682 18.335 47.1431 18.5561C46.7181 18.7716 46.2111 18.8795 45.6222 18.8795C44.6697 18.8795 43.9347 18.5838 43.4176 17.9922C42.9054 17.4006 42.6494 16.5271 42.6494 15.3716V9.30957H45.4302V13.9287C45.4302 14.3986 45.4429 14.7911 45.4685 15.1063C45.4992 15.4158 45.5659 15.6729 45.6683 15.8774C45.7655 16.082 45.9116 16.2314 46.1061 16.3252C46.3059 16.4192 46.5824 16.4663 46.9357 16.4663C47.1713 16.4663 47.4325 16.4192 47.7193 16.3252C48.0061 16.2314 48.2826 16.0931 48.5489 15.9107V9.30957H51.3144V18.6224Z" fill="#1D2A3A"/>
<path d="M62.4013 18.6227H59.6205V14.0035C59.6205 13.6276 59.6027 13.2544 59.5667 12.884C59.531 12.5081 59.4695 12.2316 59.3824 12.0547C59.2801 11.8502 59.129 11.7009 58.9292 11.6069C58.7346 11.5129 58.4607 11.4659 58.1072 11.4659C57.8564 11.4659 57.6003 11.5102 57.3391 11.5986C57.0831 11.6871 56.8039 11.8281 56.5018 12.0216V18.6227H53.7363V9.30982H56.5018V10.3381C56.9934 9.92348 57.4646 9.60558 57.9152 9.38444C58.371 9.16331 58.8754 9.05273 59.4285 9.05273C60.3605 9.05273 61.0878 9.34575 61.6101 9.93177C62.1376 10.5178 62.4013 11.3941 62.4013 12.5606V18.6227Z" fill="#1D2A3A"/>
<path d="M69.2496 18.8715C68.4969 18.8715 67.8081 18.7747 67.1832 18.5811C66.5636 18.3877 66.0233 18.0891 65.5624 17.6855C65.1067 17.282 64.7532 16.7734 64.5023 16.1597C64.2513 15.546 64.126 14.8273 64.126 14.0035C64.126 13.1356 64.2591 12.3864 64.5254 11.7562C64.7968 11.1259 65.1732 10.6035 65.6545 10.1888C66.1206 9.79631 66.6583 9.50883 67.2677 9.32639C67.8771 9.14395 68.5096 9.05273 69.1652 9.05273C69.754 9.05273 70.297 9.12184 70.7936 9.26006C71.2904 9.39826 71.7539 9.57794 72.1841 9.79908V12.345H71.7923C71.6847 12.2455 71.5541 12.1294 71.4005 11.9967C71.2521 11.864 71.0677 11.7341 70.8474 11.6069C70.6374 11.4853 70.4071 11.3858 70.156 11.3084C69.9052 11.2254 69.6133 11.184 69.2803 11.184C68.5429 11.184 67.9745 11.4383 67.575 11.9469C67.1807 12.45 66.9834 13.1356 66.9834 14.0035C66.9834 14.8992 67.1858 15.5792 67.5903 16.0436C68.0001 16.5079 68.5788 16.7402 69.3265 16.7402C69.6747 16.7402 69.9871 16.6986 70.2636 16.6158C70.5453 16.5273 70.7783 16.425 70.9627 16.3089C71.1367 16.1984 71.2904 16.0822 71.4235 15.9607C71.5567 15.839 71.6797 15.7202 71.7923 15.6041H72.1841V18.1499C71.7487 18.3712 71.2929 18.5452 70.8167 18.6725C70.3455 18.8051 69.8232 18.8715 69.2496 18.8715Z" fill="#1D2A3A"/>
<path d="M79.3377 18.5399C79.0407 18.6228 78.7258 18.6864 78.3928 18.7306C78.06 18.7803 77.6528 18.8052 77.1715 18.8052C76.0961 18.8052 75.2945 18.5703 74.767 18.1004C74.2448 17.6303 73.9836 16.826 73.9836 15.6871V11.3334H72.8467V9.30994H73.9836V6.64795H76.7489V9.30994H79.3377V11.3334H76.7489V14.6339C76.7489 14.9601 76.7515 15.2448 76.7567 15.4881C76.7618 15.7313 76.8027 15.9497 76.8795 16.1433C76.9513 16.3367 77.0768 16.4915 77.2559 16.6076C77.4403 16.7182 77.7066 16.7735 78.055 16.7735C78.1983 16.7735 78.3852 16.7403 78.6157 16.674C78.8513 16.6076 79.0151 16.5469 79.1072 16.4915H79.3377V18.5399Z" fill="#1D2A3A"/>
<path d="M83.567 18.6229H80.8014V9.31004H83.567V18.6229ZM83.6438 7.98318H80.7246V5.71924H83.6438V7.98318Z" fill="#1D2A3A"/>
<path d="M94.8001 13.9703C94.8001 15.5017 94.3853 16.7097 93.5557 17.5944C92.7312 18.4734 91.5712 18.9129 90.0759 18.9129C88.5805 18.9129 87.4179 18.4734 86.5884 17.5944C85.7639 16.7097 85.3516 15.5017 85.3516 13.9703C85.3516 12.4279 85.7664 11.2171 86.596 10.3381C87.4308 9.45904 88.5908 9.01953 90.0759 9.01953C91.5814 9.01953 92.7439 9.46181 93.5633 10.3464C94.3878 11.2309 94.8001 12.4389 94.8001 13.9703ZM91.3972 16.2343C91.5763 15.9966 91.7095 15.7118 91.7966 15.3801C91.8887 15.0429 91.9349 14.5785 91.9349 13.9869C91.9349 13.4396 91.8887 12.9807 91.7966 12.6103C91.7044 12.2399 91.5763 11.9441 91.4125 11.723C91.2486 11.4963 91.0514 11.336 90.821 11.242C90.5905 11.148 90.3422 11.101 90.0759 11.101C89.8096 11.101 89.5715 11.1397 89.3615 11.2171C89.1566 11.2945 88.9595 11.4493 88.7699 11.6815C88.601 11.8971 88.4653 12.1929 88.3629 12.5688C88.2655 12.9448 88.2168 13.4175 88.2168 13.9869C88.2168 14.4955 88.2604 14.9378 88.3474 15.3138C88.4346 15.6842 88.5626 15.9828 88.7316 16.2095C88.8954 16.425 89.09 16.5826 89.3154 16.6821C89.5459 16.7816 89.8069 16.8314 90.099 16.8314C90.3499 16.8314 90.588 16.7871 90.8132 16.6986C91.0437 16.6048 91.2385 16.4498 91.3972 16.2343Z" fill="#1D2A3A"/>
<path d="M105.252 18.6227H102.471V14.0035C102.471 13.6276 102.453 13.2544 102.417 12.884C102.381 12.5081 102.32 12.2316 102.233 12.0547C102.131 11.8502 101.979 11.7009 101.78 11.6069C101.585 11.5129 101.311 11.4659 100.958 11.4659C100.707 11.4659 100.451 11.5102 100.19 11.5986C99.9335 11.6871 99.6544 11.8281 99.3523 12.0216V18.6227H96.5869V9.30982H99.3523V10.3381C99.8438 9.92348 100.315 9.60558 100.766 9.38444C101.221 9.16331 101.726 9.05273 102.279 9.05273C103.211 9.05273 103.938 9.34575 104.461 9.93177C104.988 10.5178 105.252 11.3941 105.252 12.5606V18.6227Z" fill="#1D2A3A"/>
<path d="M123.309 18.6224H119.898L117.432 14.5589L114.92 18.6224H111.663L115.719 12.4028L111.748 6.27441H115.151L117.532 10.1223L119.982 6.27441H123.247L119.253 12.2784L123.309 18.6224Z" fill="#1D2A3A"/>
</svg>
