<svg width="73" height="22" viewBox="0 0 73 22" fill="none" xmlns="http://www.w3.org/2000/svg">
<g clip-path="url(#clip0_9816_16047)">
<mask id="mask0_9816_16047" style="mask-type:luminance" maskUnits="userSpaceOnUse" x="0" y="0" width="72" height="22">
<path d="M71.7735 0.931885H0.709961V21.0353H71.7735V0.931885Z" fill="white"/>
</mask>
<g mask="url(#mask0_9816_16047)">
<path d="M6.09833 2.8867L9.2831 1.04707C9.37379 0.994728 9.48632 0.994728 9.577 1.04707L17.9706 5.89431C18.0613 5.94664 18.1171 6.04347 18.118 6.14814L18.1293 9.482C18.1293 9.58749 18.0735 9.68526 17.9819 9.7376L14.8015 11.5745C14.6061 11.688 14.3611 11.5466 14.3602 11.3208L14.3498 8.32884C14.3498 8.22416 14.2931 8.12734 14.2024 8.075L6.09833 3.3961C5.90212 3.28271 5.90212 3.00009 6.09833 2.8867Z" fill="#010101"/>
<path d="M4.04124 17.9878L0.857339 16.149C0.765773 16.0967 0.709961 15.9998 0.709961 15.8942V6.19979C0.709961 6.09512 0.765773 5.99829 0.856467 5.94508L3.73776 4.26769C3.82933 4.21448 3.94182 4.21448 4.03252 4.26769L7.21293 6.10471C7.40827 6.21811 7.40914 6.49985 7.2138 6.61412L4.62901 8.11879C4.53831 8.17113 4.48251 8.26796 4.48251 8.3735V17.7339C4.48251 17.9607 4.23745 18.1012 4.04124 17.9878Z" fill="#010101"/>
<path d="M18.1288 12.2152V15.8927C18.1288 15.9983 18.073 16.0951 17.9814 16.1474L9.5878 20.9947C9.49711 21.047 9.3855 21.047 9.29481 20.9947L6.40216 19.3373C6.31059 19.285 6.25391 19.1873 6.25391 19.0817V15.4086C6.25391 15.1827 6.49809 15.0413 6.6943 15.153L9.28958 16.6402C9.38027 16.6926 9.49188 16.6917 9.58257 16.6402L17.6867 11.9596C17.8828 11.8463 18.1279 11.9876 18.1279 12.2143L18.1288 12.2152Z" fill="#010101"/>
<path d="M45.3478 6.06436H42.0968C41.9555 6.06436 41.8421 6.17864 41.8421 6.31994V12.5053C41.8421 13.2964 41.714 13.9584 41.4567 14.4906C41.1994 15.0069 40.8462 15.3943 40.3963 15.6524C39.9463 15.8941 39.4318 16.0162 38.8536 16.0162C38.0173 16.0162 37.3667 15.7658 36.901 15.266C36.451 14.7497 36.2261 13.9497 36.2261 12.869V6.32081C36.2261 6.1795 36.1118 6.06523 35.9714 6.06523H33.6099C33.5907 6.06174 33.5715 6.06 33.5523 6.06H28.8484V5.79832C28.8484 5.16853 28.9931 4.70099 29.2827 4.39395C29.5879 4.07121 30.0144 3.90984 30.5602 3.90984C30.8498 3.90984 31.1228 3.94997 31.38 4.03109C31.5387 4.08168 31.6948 4.1471 31.83 4.21863C31.9651 4.29015 32.1326 4.22212 32.184 4.07732L32.9968 1.82771C33.0387 1.71083 32.9916 1.57999 32.8843 1.51806C32.5669 1.334 32.1945 1.19531 31.7655 1.10111C31.2675 0.988583 30.7452 0.931885 30.1984 0.931885C28.592 0.931885 27.3545 1.37587 26.486 2.26386C25.6183 3.13525 25.184 4.30585 25.184 5.77476V6.06H23.4852C23.3186 6.06 23.1826 6.17427 23.1826 6.31558V8.70911C23.1826 8.85042 23.3178 8.96469 23.4852 8.96469H25.184V18.8345C25.184 18.9758 25.2982 19.0901 25.4387 19.0901H28.6889C28.8292 19.0901 28.9435 18.9758 28.9435 18.8345V8.96469H32.4648V13.4247C32.4648 14.7644 32.6977 15.8705 33.1642 16.7419C33.6308 17.5976 34.2814 18.2352 35.1168 18.6548C35.9688 19.0744 36.9333 19.2846 38.0094 19.2846C39.0062 19.2846 39.9218 19.0587 40.7573 18.606C41.2544 18.3329 41.6799 17.984 42.0348 17.5618V18.8345C42.0348 18.9758 42.1491 19.0901 42.2895 19.0901H45.3478C45.4891 19.0901 45.6024 18.9758 45.6024 18.8345V6.32081C45.6024 6.1795 45.4883 6.06523 45.3478 6.06523V6.06436Z" fill="#010101"/>
<path d="M56.2934 12.2618C55.8434 11.987 55.3367 11.7776 54.7742 11.6319C54.2127 11.4872 53.6493 11.3817 53.0868 11.317C52.5408 11.236 52.0342 11.1478 51.5677 11.0511C51.102 10.9542 50.7235 10.8251 50.4349 10.6637C50.1611 10.5024 50.025 10.2608 50.025 9.93712C50.025 9.58209 50.2177 9.29161 50.604 9.06572C50.9895 8.83981 51.6008 8.72728 52.4362 8.72728C53.031 8.72728 53.6415 8.79968 54.2685 8.94535C54.8309 9.05787 55.3864 9.2637 55.9367 9.56207C56.0667 9.63185 56.2271 9.58035 56.2899 9.44694L57.3277 7.2226C57.3843 7.10136 57.3381 6.95481 57.2213 6.89114C56.6474 6.57799 55.9532 6.33462 55.137 6.16278C54.2214 5.96914 53.3214 5.87231 52.4371 5.87231C51.184 5.87231 50.107 6.05811 49.207 6.42883C48.3071 6.78472 47.6164 7.27669 47.1341 7.90647C46.6684 8.53625 46.4347 9.26195 46.4347 10.0854C46.4347 10.8277 46.5716 11.4331 46.8446 11.9015C47.1341 12.3691 47.5117 12.7406 47.9774 13.0154C48.4439 13.2901 48.9576 13.4995 49.52 13.6451C50.0825 13.7742 50.6372 13.879 51.1831 13.9601C51.7456 14.0412 52.2601 14.1215 52.7258 14.2017C53.1914 14.2829 53.5612 14.404 53.835 14.5654C54.1245 14.7111 54.2693 14.937 54.2693 15.2432C54.2693 15.6147 54.0844 15.9052 53.7147 16.1146C53.3615 16.324 52.7502 16.4295 51.8825 16.4295C51.095 16.4295 50.2919 16.317 49.4721 16.0911C48.7736 15.8808 48.1544 15.6217 47.6137 15.3139C47.4838 15.2397 47.319 15.292 47.2562 15.4281L46.2149 17.6812C46.16 17.7998 46.2045 17.9403 46.3153 18.0083C46.8865 18.3572 47.6251 18.6547 48.5311 18.8998C49.5593 19.158 50.6285 19.2871 51.7369 19.2871V19.2853C53.038 19.2853 54.1394 19.1082 55.0394 18.7533C55.955 18.3982 56.6544 17.9141 57.1366 17.3009C57.6189 16.6719 57.8596 15.9532 57.8596 15.1463C57.8596 14.404 57.7148 13.8065 57.4253 13.3547C57.1358 12.8863 56.7582 12.5234 56.2925 12.2652L56.2934 12.2618Z" fill="#010101"/>
<path d="M70.8822 9.01939C70.2874 8.0023 69.4763 7.22772 68.4473 6.69476C67.4349 6.1461 66.3422 5.87134 65.0245 5.87134C63.7068 5.87134 62.5252 6.16181 61.4813 6.74274C60.4366 7.3071 59.609 8.09826 58.9985 9.11534C58.4038 10.1158 58.1064 11.2864 58.1064 12.5774C58.1064 13.8684 58.4116 15.0233 59.0221 16.0394C59.6325 17.04 60.4924 17.8311 61.6008 18.4121C62.7257 18.993 64.0268 19.2834 65.5059 19.2834V19.2852C66.6797 19.2852 67.7166 19.1073 68.6157 18.7531C69.4362 18.4146 70.1295 17.948 70.6964 17.3549C70.7888 17.258 70.7888 17.1045 70.6981 17.0051L69.0281 15.1864C68.934 15.0843 68.777 15.0774 68.6715 15.169C68.2869 15.5047 67.8666 15.763 67.4096 15.9435C66.8951 16.1529 66.2925 16.2584 65.6018 16.2584C64.8309 16.2584 64.1559 16.1215 63.5769 15.8467C63.0144 15.5562 62.5723 15.1445 62.2513 14.6124C62.0848 14.3141 61.9662 13.9905 61.8903 13.6433H71.4699C71.6007 13.6433 71.7106 13.543 71.7228 13.4122C71.7316 13.3223 71.7403 13.229 71.7481 13.1347C71.7647 12.9411 71.7725 12.7719 71.7725 12.6262C71.7725 11.2219 71.4751 10.0199 70.8804 9.01851L70.8822 9.01939ZM63.337 9.16505C63.835 8.87458 64.4062 8.72892 65.0489 8.72892C65.6916 8.72892 66.2541 8.87458 66.7364 9.16505C67.2186 9.43893 67.5962 9.8271 67.8691 10.3269C68.0505 10.6584 68.17 11.03 68.2311 11.4399H61.8467C61.9095 11.037 62.0281 10.6732 62.2042 10.3505C62.4781 9.83408 62.8548 9.43893 63.337 9.16418V9.16505Z" fill="#010101"/>
</g>
</g>
<defs>
<clipPath id="clip0_9816_16047">
<rect width="71.42" height="20.7667" fill="white" transform="translate(0.708008 0.932129)"/>
</clipPath>
</defs>
</svg>
