<svg width="100" height="18" viewBox="0 0 100 18" fill="none" xmlns="http://www.w3.org/2000/svg">
<g clip-path="url(#clip0_14239_6037)">
<path d="M30.8167 17.655V4.36463H27.0557V0.467041H38.7955V4.36555H35.0345V17.6559H30.8176L30.8167 17.655Z" fill="#130C03"/>
<path d="M0 9.12979C0 3.79518 4.08033 0.147705 9.2322 0.147705C12.3324 0.147705 15.1363 1.40106 16.9369 4.09144L13.2212 6.0287C12.2179 4.6609 10.9184 3.93177 9.27743 3.93177C6.38215 3.93177 4.35352 6.18837 4.35352 9.15194C4.35352 12.1155 6.5649 14.3269 9.14083 14.3269C11.2608 14.3269 12.7883 13.0505 13.0615 11.3633V11.3402H9.46017V8.10348H17.7805V8.8326C17.7805 14.4404 14.4293 17.9513 9.09561 17.9513C4.05726 17.9513 0 14.3269 0 9.12979Z" fill="#130C03"/>
<path d="M20.6729 17.655V0.467041H24.8898V17.655H20.6729Z" fill="#130C03"/>
<path d="M75.9648 17.655V0.467041H80.1818V17.655H75.9648Z" fill="#130C03"/>
<path d="M95.8747 0.467041H100.001V17.655H96.5817L87.9651 6.82704L88.0334 17.655H83.8848V0.467041H87.3956L96.0122 11.2267L95.8757 0.467041H95.8747Z" fill="#130C03"/>
<path d="M49.0131 14.0538C46.392 14.0538 44.1806 12.0021 44.1806 9.06161C44.1806 6.28078 46.3006 4.06941 49.0593 4.06941C50.4179 4.06941 51.6038 4.58349 52.4668 5.43444C52.883 4.10541 53.531 2.8622 54.3921 1.75098C52.884 0.744046 51.0492 0.170898 49.0814 0.170898C44.0209 0.170898 39.8262 3.95497 39.8262 9.03854C39.8262 14.3732 44.0431 17.9514 49.0131 17.9514C50.9975 17.9514 52.8461 17.3958 54.3625 16.4082C53.5116 15.2979 52.8701 14.0474 52.4594 12.7017C51.5835 13.549 50.38 14.0538 49.0131 14.0538Z" fill="#130C03"/>
<path d="M64.1293 0.170898C60.9535 0.170898 58.1191 1.66145 56.4476 4.02788C55.4564 5.4326 54.874 7.14558 54.874 9.03854C54.874 10.9315 55.4546 12.7534 56.4384 14.1563C58.1062 16.5347 60.935 17.9514 64.061 17.9514C69.1446 17.9514 73.3394 14.3039 73.3394 9.08376C73.3394 3.8636 69.1677 0.170898 64.1293 0.170898ZM64.061 14.0538C61.4398 14.0538 59.2285 12.0021 59.2285 9.06161C59.2285 6.28078 61.3485 4.06941 64.1072 4.06941C66.8658 4.06941 68.9858 6.25771 68.9858 9.08469C68.9858 11.9117 66.8658 14.0538 64.0619 14.0538H64.061Z" fill="#130C03"/>
</g>
<defs>
<clipPath id="clip0_14239_6037">
<rect width="100" height="17.8036" fill="white" transform="translate(0 0.147705)"/>
</clipPath>
</defs>
</svg>
