<svg width="119" height="37" viewBox="0 0 119 37" fill="none" xmlns="http://www.w3.org/2000/svg">
<path fill-rule="evenodd" clip-rule="evenodd" d="M47.0572 11.5049H49.5172C49.6597 11.5049 49.7736 11.6189 49.7736 11.7613V25.3956C49.7736 25.5381 49.6597 25.652 49.5172 25.652H47.0572C46.9148 25.652 46.8008 25.5381 46.8008 25.3956V11.7613C46.8008 11.6236 46.9148 11.5049 47.0572 11.5049Z" fill="url(#paint0_linear_9816_16060)"/>
<path fill-rule="evenodd" clip-rule="evenodd" d="M55.1065 14.6345H64.7422C66.1764 14.6345 67.4064 15.8123 67.4064 17.2987V22.9879C67.4064 24.4221 66.2286 25.6521 64.7422 25.6521H55.1065C53.6724 25.6521 52.4424 24.4744 52.4424 22.9879V17.2987C52.4424 15.8645 53.6201 14.6345 55.1065 14.6345ZM56.6927 17.0422H63.2035C64.0251 17.0422 64.6899 17.7071 64.6899 18.5287V21.7057C64.6899 22.5273 64.0251 23.1921 63.2035 23.1921H56.6927C55.8711 23.1921 55.2063 22.5273 55.2063 21.7057V18.5287C55.2063 17.7118 55.8759 17.0422 56.6927 17.0422Z" fill="url(#paint1_linear_9816_16060)"/>
<path fill-rule="evenodd" clip-rule="evenodd" d="M75.8162 11.5049H78.2762H84.9912C85.1432 11.5049 85.2476 11.6094 85.2476 11.7613V14.2213C85.2476 14.3733 85.1432 14.4777 84.9912 14.4777H78.5326V25.4478C78.5326 25.5998 78.4281 25.7043 78.2762 25.7043H75.8162C75.6642 25.7043 75.5598 25.5998 75.5598 25.4478V14.4777H69.1012C68.9492 14.4777 68.8447 14.3733 68.8447 14.2213V11.7613C68.8447 11.6094 68.9492 11.5049 69.1012 11.5049H75.8162Z" fill="url(#paint2_linear_9816_16060)"/>
<path fill-rule="evenodd" clip-rule="evenodd" d="M115.338 11.353H117.798C117.85 11.353 117.95 11.353 118.002 11.4053C118.107 11.4575 118.154 11.5097 118.154 11.6095C118.154 11.6617 118.154 11.7614 118.154 11.8137C118.154 11.8659 118.102 11.9656 118.002 12.0179L111.748 18.372L118.463 25.239C118.515 25.2912 118.567 25.391 118.615 25.4432C118.615 25.4432 118.615 25.4432 118.615 25.4954C118.615 25.5477 118.615 25.5999 118.615 25.6474C118.615 25.7519 118.562 25.7994 118.463 25.8516C118.411 25.8516 118.358 25.9038 118.311 25.9038H115.851C115.746 25.9038 115.594 25.8516 115.49 25.7994C115.385 25.7471 115.286 25.6474 115.181 25.5952L109.953 20.2621L104.724 25.5952C104.62 25.6996 104.52 25.7471 104.415 25.7994C104.311 25.8516 104.159 25.9038 104.054 25.9038H101.594C101.542 25.9038 101.442 25.9038 101.39 25.8516C101.286 25.7994 101.238 25.7471 101.238 25.6474C101.238 25.5952 101.238 25.4954 101.238 25.4432C101.238 25.391 101.291 25.2912 101.39 25.239L108.105 18.372L101.851 12.0179C101.799 11.9656 101.746 11.8659 101.699 11.8137C101.699 11.8137 101.699 11.8137 101.699 11.7614C101.699 11.7092 101.699 11.657 101.699 11.6095C101.699 11.505 101.751 11.4575 101.851 11.4053C101.903 11.4053 101.955 11.353 102.003 11.353H104.463C104.567 11.353 104.719 11.4053 104.824 11.4575C104.928 11.5097 105.028 11.6095 105.132 11.6617L109.9 16.5294L114.668 11.6617C114.773 11.5572 114.873 11.5097 114.977 11.4575C115.081 11.4053 115.238 11.353 115.338 11.353Z" fill="url(#paint3_linear_9816_16060)"/>
<path fill-rule="evenodd" clip-rule="evenodd" d="M99.8554 25.6575V23.2973H90.1153C90.1153 23.2973 89.1418 23.245 89.1418 22.1195C89.0895 20.994 89.0895 20.994 89.0895 20.994H99.6987C99.6987 20.994 100.264 21.0463 100.264 20.1202C100.264 19.1989 100.159 16.3258 100.159 16.3258C100.159 16.3258 100.159 14.6874 97.7516 14.7349C95.3439 14.7824 89.1418 14.7871 89.1418 14.7871C89.1418 14.7871 86.2734 14.9391 86.3209 17.4513C86.3731 20.0157 86.3731 22.9364 86.3731 22.9364C86.3731 22.9364 86.0644 25.6528 89.3982 25.6528C92.732 25.6528 99.8554 25.7572 99.8554 25.7572V25.6575ZM89.0943 19.1467H97.348V17.608C97.348 17.608 97.4002 16.9432 96.7829 16.9432C96.1655 16.9432 90.6329 16.9432 90.3765 16.9432C90.1723 16.9432 89.0943 17.0476 89.042 18.0212V19.1989L89.0943 19.1467Z" fill="url(#paint4_linear_9816_16060)"/>
<path d="M23.1172 0.63916V9.3535L30.6538 4.9987L23.1172 0.63916Z" fill="url(#paint5_linear_9816_16060)"/>
<path d="M30.6553 22.375V31.0893L38.2441 26.7298L30.6553 22.375Z" fill="white"/>
<path d="M3.63867 9.04468V17.7115L11.1753 13.4042L3.63867 9.04468Z" fill="#86F4D0" fill-opacity="0.4"/>
<path d="M13.123 12.2739V20.9883L20.6596 16.6335L13.123 12.2739Z" fill="#86F4D0" fill-opacity="0.2"/>
<path d="M7.53711 17.759V26.4734L15.069 22.1186L7.53711 17.759Z" fill="#86F4D0" fill-opacity="0.302"/>
<path d="M12.5088 24.3218V33.0361L20.0454 28.6766L12.5088 24.3218Z" fill="white" fill-opacity="0.902"/>
<path d="M14.4033 7.97168V16.686L21.9399 12.3265L14.4033 7.97168Z" fill="url(#paint6_linear_9816_16060)" fill-opacity="0.902"/>
<path d="M14.4048 4.32935V13.0437L6.86816 8.68889L14.4048 4.32935Z" fill="white" fill-opacity="0.6"/>
<path d="M23.1177 18.0156V26.73L15.5811 22.3752L23.1177 18.0156Z" fill="#86F4D0" fill-opacity="0.6"/>
<path d="M38.2441 9.35303V18.0151L30.6553 13.6603L38.2441 9.35303Z" fill="url(#paint7_linear_9816_16060)"/>
<path d="M30.6538 22.375V31.0893L23.1172 26.7298L30.6538 22.375Z" fill="#86F4D0" fill-opacity="0.702"/>
<path d="M21.4804 26.0127V34.6748L13.8916 30.3722L21.4804 26.0127Z" fill="#86F4D0" fill-opacity="0.4"/>
<path d="M30.6538 4.99854V13.6606L23.1172 9.35333L30.6538 4.99854Z" fill="url(#paint8_linear_9816_16060)"/>
<path d="M7.5366 20.0671V28.7292L0 24.4267L7.5366 20.0671Z" fill="url(#paint9_linear_9816_16060)"/>
<path d="M30.6553 4.99878V13.6609L38.2441 9.35357L30.6553 4.99878Z" fill="url(#paint10_linear_9816_16060)"/>
<path d="M38.2441 26.73V18.0156L30.6553 22.3752L38.2441 26.73Z" fill="white"/>
<path d="M23.1172 9.35303V18.0151L30.6538 13.6603L23.1172 9.35303Z" fill="url(#paint11_linear_9816_16060)"/>
<path d="M23.1172 26.73V18.0156L30.6538 22.3752L23.1172 26.73Z" fill="white"/>
<path d="M30.6553 22.3755V13.6611L38.2441 18.0159L30.6553 22.3755Z" fill="white"/>
<path d="M30.6538 22.3755V13.6611L23.1172 18.0159L30.6538 22.3755Z" fill="white"/>
<path d="M30.6553 13.6611V22.3755L38.2441 18.0159L30.6553 13.6611Z" fill="url(#paint12_linear_9816_16060)"/>
<path d="M30.6538 13.6611V22.3755L23.1172 18.0159L30.6538 13.6611Z" fill="url(#paint13_linear_9816_16060)"/>
<path d="M38.2441 18.0156V26.73L30.6553 22.3752L38.2441 18.0156Z" fill="url(#paint14_linear_9816_16060)"/>
<path d="M23.1172 18.0156V26.73L30.6538 22.3752L23.1172 18.0156Z" fill="url(#paint15_linear_9816_16060)"/>
<path d="M30.6553 22.375V31.0893L38.2441 26.7298L30.6553 22.375Z" fill="url(#paint16_linear_9816_16060)"/>
<path d="M12.5088 24.3218V33.0361L20.0454 28.6766L12.5088 24.3218Z" fill="url(#paint17_linear_9816_16060)"/>
<path d="M23.1177 0.63916V9.3535L15.5811 4.9987L23.1177 0.63916Z" fill="url(#paint18_linear_9816_16060)"/>
<path d="M13.1212 12.2739V20.9883L5.53711 16.6335L13.1212 12.2739Z" fill="url(#paint19_linear_9816_16060)"/>
<path d="M21.9399 8.63623V17.3506L14.4033 12.991L21.9399 8.63623Z" fill="url(#paint20_linear_9816_16060)"/>
<path d="M14.4033 7.97168V16.686L21.9399 12.3265L14.4033 7.97168Z" fill="url(#paint21_linear_9816_16060)"/>
<path d="M14.4048 4.32935V13.0437L6.86816 8.68889L14.4048 4.32935Z" fill="url(#paint22_linear_9816_16060)"/>
<path d="M23.0664 28.0645V36.7788L30.603 32.4192L23.0664 28.0645Z" fill="url(#paint23_linear_9816_16060)"/>
<defs>
<linearGradient id="paint0_linear_9816_16060" x1="48.2867" y1="25.7067" x2="48.2867" y2="11.5076" gradientUnits="userSpaceOnUse">
<stop stop-color="#29DDB5"/>
<stop offset="1" stop-color="#43FFAE"/>
</linearGradient>
<linearGradient id="paint1_linear_9816_16060" x1="59.9226" y1="25.6043" x2="59.9226" y2="14.6346" gradientUnits="userSpaceOnUse">
<stop stop-color="#29DDB5"/>
<stop offset="1" stop-color="#43FFAE"/>
</linearGradient>
<linearGradient id="paint2_linear_9816_16060" x1="77.043" y1="25.7067" x2="77.043" y2="11.5076" gradientUnits="userSpaceOnUse">
<stop stop-color="#29DDB5"/>
<stop offset="1" stop-color="#43FFAE"/>
</linearGradient>
<linearGradient id="paint3_linear_9816_16060" x1="109.927" y1="25.9119" x2="109.927" y2="11.3539" gradientUnits="userSpaceOnUse">
<stop stop-color="#29DDB5"/>
<stop offset="1" stop-color="#43FFAE"/>
</linearGradient>
<linearGradient id="paint4_linear_9816_16060" x1="93.2921" y1="25.6562" x2="93.2921" y2="14.6865" gradientUnits="userSpaceOnUse">
<stop stop-color="#29DDB5"/>
<stop offset="1" stop-color="#43FFAE"/>
</linearGradient>
<linearGradient id="paint5_linear_9816_16060" x1="26.885" y1="9.35457" x2="26.885" y2="0.640325" gradientUnits="userSpaceOnUse">
<stop stop-color="#2ADEB4"/>
<stop offset="1" stop-color="#44FCB1"/>
</linearGradient>
<linearGradient id="paint6_linear_9816_16060" x1="16.2337" y1="8.42791" x2="18.848" y2="16.6295" gradientUnits="userSpaceOnUse">
<stop stop-color="#3AF3B1"/>
<stop offset="1" stop-color="#2CDFB5"/>
</linearGradient>
<linearGradient id="paint7_linear_9816_16060" x1="32.5023" y1="9.80922" x2="38.551" y2="15.089" gradientUnits="userSpaceOnUse">
<stop stop-color="#42FCAF"/>
<stop offset="1" stop-color="#35E3B6"/>
</linearGradient>
<linearGradient id="paint8_linear_9816_16060" x1="24.9003" y1="5.45804" x2="31.0003" y2="10.7378" gradientUnits="userSpaceOnUse">
<stop stop-color="#3AF3B1"/>
<stop offset="1" stop-color="#2CDFB5"/>
</linearGradient>
<linearGradient id="paint9_linear_9816_16060" x1="1.7827" y1="20.5287" x2="7.88268" y2="25.8085" gradientUnits="userSpaceOnUse">
<stop stop-color="#90F5D4"/>
<stop offset="1" stop-color="#8FEED6"/>
</linearGradient>
<linearGradient id="paint10_linear_9816_16060" x1="30.3437" y1="7.92558" x2="36.3924" y2="13.2054" gradientUnits="userSpaceOnUse">
<stop stop-color="#53FDB7"/>
<stop offset="1" stop-color="#43E6BB"/>
</linearGradient>
<linearGradient id="paint11_linear_9816_16060" x1="23.9934" y1="10.4631" x2="27.9917" y2="17.8958" gradientUnits="userSpaceOnUse">
<stop stop-color="#7AFEC7"/>
<stop offset="1" stop-color="#66E7C9"/>
</linearGradient>
<linearGradient id="paint12_linear_9816_16060" x1="30.3564" y1="16.6255" x2="36.4051" y2="21.9053" gradientUnits="userSpaceOnUse">
<stop stop-color="#53FDB7"/>
<stop offset="1" stop-color="#43E6BB"/>
</linearGradient>
<linearGradient id="paint13_linear_9816_16060" x1="26.2082" y1="13.7161" x2="28.8225" y2="21.9178" gradientUnits="userSpaceOnUse">
<stop stop-color="#3AF3B1"/>
<stop offset="1" stop-color="#2CDFB5"/>
</linearGradient>
<linearGradient id="paint14_linear_9816_16060" x1="32.4896" y1="18.4873" x2="38.5383" y2="23.7671" gradientUnits="userSpaceOnUse">
<stop stop-color="#42FCAF"/>
<stop offset="1" stop-color="#35E3B6"/>
</linearGradient>
<linearGradient id="paint15_linear_9816_16060" x1="23.9861" y1="19.1271" x2="27.9844" y2="26.6111" gradientUnits="userSpaceOnUse">
<stop stop-color="#7AFEC7"/>
<stop offset="1" stop-color="#66E7C9"/>
</linearGradient>
<linearGradient id="paint16_linear_9816_16060" x1="32.5456" y1="22.8247" x2="35.1086" y2="31.0263" gradientUnits="userSpaceOnUse">
<stop stop-color="#3AF3B1"/>
<stop offset="1" stop-color="#2CDFB5"/>
</linearGradient>
<linearGradient id="paint17_linear_9816_16060" x1="14.3374" y1="24.7794" x2="16.9517" y2="32.981" gradientUnits="userSpaceOnUse">
<stop stop-color="#3AF3B1"/>
<stop offset="1" stop-color="#2CDFB5"/>
</linearGradient>
<linearGradient id="paint18_linear_9816_16060" x1="17.9228" y1="9.07424" x2="22.8951" y2="2.46166" gradientUnits="userSpaceOnUse">
<stop stop-color="#56E7C4"/>
<stop offset="1" stop-color="#68FEBF"/>
</linearGradient>
<linearGradient id="paint19_linear_9816_16060" x1="7.8789" y1="20.7206" x2="12.9024" y2="14.108" gradientUnits="userSpaceOnUse">
<stop stop-color="#36E1B7"/>
<stop offset="1" stop-color="#68FEBF"/>
</linearGradient>
<linearGradient id="paint20_linear_9816_16060" x1="16.7439" y1="17.0707" x2="21.7161" y2="10.4581" gradientUnits="userSpaceOnUse">
<stop stop-color="#56E7C4"/>
<stop offset="1" stop-color="#68FEBF"/>
</linearGradient>
<linearGradient id="paint21_linear_9816_16060" x1="16.2337" y1="8.42791" x2="18.848" y2="16.6295" gradientUnits="userSpaceOnUse">
<stop stop-color="#3AF3B1"/>
<stop offset="1" stop-color="#2CDFB5"/>
</linearGradient>
<linearGradient id="paint22_linear_9816_16060" x1="14.964" y1="9.15206" x2="8.24888" y2="5.05124" gradientUnits="userSpaceOnUse">
<stop stop-color="#82EFD2"/>
<stop offset="1" stop-color="#8EFECF"/>
</linearGradient>
<linearGradient id="paint23_linear_9816_16060" x1="23.9627" y1="29.1538" x2="27.9098" y2="36.6378" gradientUnits="userSpaceOnUse">
<stop stop-color="#7AFEC7"/>
<stop offset="1" stop-color="#66E7C9"/>
</linearGradient>
</defs>
</svg>
