<svg width="63" height="20" viewBox="0 0 63 20" fill="none" xmlns="http://www.w3.org/2000/svg">
<g clip-path="url(#clip0_9816_16143)">
<path d="M44.539 3.53613H48.0424L41.9423 18.6936H37.8979L31.7979 3.53613H35.3013L39.9073 15.0408L44.539 3.53613Z" fill="#FF433E"/>
<path d="M3.54462 0.400879H0.355469V18.696H3.54462V0.400879Z" fill="#FF433E"/>
<path d="M12.2759 18.6989L5.2793 9.54879L12.2759 0.403809H16.279L9.38037 9.54879L16.279 18.6989H12.2759Z" fill="#FF433E"/>
<path d="M23.9196 3.13428C20.4265 3.13428 17.7938 5.06632 17.6031 7.93604L17.5825 8.27092H20.715L20.7665 8.02362C21.055 6.67377 22.1576 5.93187 23.8629 5.93187C25.7177 5.93187 26.779 6.8644 26.779 8.49246V9.43015L22.8531 9.65169C19.3188 9.85777 17.1807 11.5889 17.1807 14.2783C17.1807 17.1119 19.3085 19.0182 22.4358 19.0182C24.3009 19.0182 25.661 18.5082 26.7687 17.3747V18.7658H29.9476V8.25547C29.9424 5.1436 27.5415 3.13428 23.9196 3.13428ZM26.779 11.898V12.8408C26.573 14.8965 25.151 16.1897 22.9665 16.2979C22.1267 16.3391 21.4002 16.1124 20.9211 15.659C20.545 15.3035 20.3492 14.8295 20.3492 14.2886C20.3492 13.083 21.3796 12.3205 23.1777 12.2071L26.779 11.898Z" fill="#FF433E"/>
<path d="M56.1559 3.13428C52.6628 3.13428 50.0301 5.06632 49.8395 7.93604L49.8189 8.27092H52.9513L53.0029 8.02362C53.2914 6.67377 54.3939 5.93187 56.0993 5.93187C57.954 5.93187 59.0154 6.8644 59.0154 8.49246V9.43015L55.0895 9.65169C51.5551 9.85777 49.417 11.5889 49.417 14.2783C49.417 17.1119 51.5448 19.0182 54.6721 19.0182C56.5372 19.0182 57.8974 18.5082 59.0051 17.3747V18.7658H62.1839V8.25547C62.1788 5.1436 59.7779 3.13428 56.1559 3.13428ZM59.0154 11.898V12.8408C58.8093 14.8965 57.3873 16.1897 55.2028 16.2979C54.363 16.3391 53.6366 16.1124 53.1574 15.659C52.7813 15.3035 52.5855 14.8295 52.5855 14.2886C52.5855 13.083 53.616 12.3205 55.414 12.2071L59.0154 11.898Z" fill="#FF433E"/>
</g>
<defs>
<clipPath id="clip0_9816_16143">
<rect width="61.8304" height="18.6171" fill="white" transform="translate(0.354492 0.400635)"/>
</clipPath>
</defs>
</svg>
