<svg width="115" height="30" viewBox="0 0 115 30" fill="none" xmlns="http://www.w3.org/2000/svg">
<g clip-path="url(#clip0_9816_16150)">
<path fill-rule="evenodd" clip-rule="evenodd" d="M66.0869 21.4939C65.0135 21.4939 63.9813 21.0627 63.2106 20.4205C60.3343 17.9708 62.4812 13.2504 65.4447 13.2504C67.4218 13.2504 68.8806 13.6358 69.7797 15.6542C70.2935 16.7276 70.2522 18.0167 69.7384 19.1314C69.1788 20.4205 67.6328 21.5352 66.0456 21.5352L66.0869 21.4939ZM58.4443 17.2873C58.4443 21.1086 61.4078 24.4161 64.5409 24.4161C67.6328 24.4161 68.0182 24.2005 70.2522 22.6545V24.2005H73.5597V10.4567H70.2522V12.1311C69.7797 11.8283 69.3072 11.2274 68.4081 10.8008C64.8024 9.25481 60.5499 10.631 59.004 14.4523C58.7012 15.1817 58.4443 16.3423 58.4443 17.3286V17.2873Z" fill="black"/>
<path fill-rule="evenodd" clip-rule="evenodd" d="M37.875 24.1542H42.0403L43.4165 22.2229L44.9625 19.9063L47.9213 24.1542H51.4857L46.8066 17.3282L51.5316 10.415H47.9213L41.0953 20.2458L41.0082 5.35059H37.875V24.1542Z" fill="black"/>
<path fill-rule="evenodd" clip-rule="evenodd" d="M79.8254 24.1542H81.1098L79.307 29.2646H82.8714L89.8717 10.415H86.3073L82.2292 21.1082L81.3254 18.4888L78.3207 10.415H74.8848L79.8254 24.1542Z" fill="black"/>
<path fill-rule="evenodd" clip-rule="evenodd" d="M104.77 12.0897V10.4154H101.463V24.1545H104.77V16.6404C104.77 14.7091 105.931 13.076 108.078 13.0347C110.61 12.9935 111.601 14.8789 111.642 16.6404L111.684 24.1133L114.945 24.1545V16.512C114.945 10.8879 108.463 7.88312 104.77 12.0485V12.0897Z" fill="black"/>
<path fill-rule="evenodd" clip-rule="evenodd" d="M93.4356 10.4151H91.4172L90.2979 13.507H93.4356V24.1543H96.7385V13.507H100.046V10.4151H96.7385V7.23608H93.4356V10.4151Z" fill="black"/>
<path fill-rule="evenodd" clip-rule="evenodd" d="M53.2471 24.1542H56.5546V5.35059H53.2471V24.1542Z" fill="black"/>
<path fill-rule="evenodd" clip-rule="evenodd" d="M24.0473 25.8288L14.8588 16.5118L5.54181 25.8701C7.38593 27.1132 10.3081 29.2188 14.7716 29.2188C19.2351 29.2601 22.8454 27.0307 24.0473 25.7829V25.8288ZM25.9373 5.39202L16.6203 14.709C19.7535 17.8009 22.8041 20.9799 25.896 24.1131C30.7494 17.9293 30.2769 11.5758 25.9373 5.4333V5.39202ZM3.61052 23.9388L11.6843 2.46986L0.3489 13.8511C-0.252045 17.1586 1.50492 21.4065 3.61052 23.9388ZM7.86302 19.6909C8.46396 19.5211 21.304 6.33702 24.0519 3.63047C22.6298 1.69918 17.6938 0.0660778 15.2487 0.153238L7.86302 19.6909Z" fill="url(#paint0_linear_9816_16150)"/>
</g>
<defs>
<linearGradient id="paint0_linear_9816_16150" x1="8.24674" y1="27.742" x2="22.6738" y2="2.45161" gradientUnits="userSpaceOnUse">
<stop stop-color="#850000"/>
<stop offset="0.251" stop-color="#C70158"/>
<stop offset="0.4824" stop-color="#DE1E41"/>
<stop offset="0.6392" stop-color="#F63B2A"/>
<stop offset="1" stop-color="#FF8700"/>
</linearGradient>
<clipPath id="clip0_9816_16150">
<rect width="114.684" height="29.1298" fill="white" transform="translate(0.262695 0.144287)"/>
</clipPath>
</defs>
</svg>
