<svg width="111" height="30" viewBox="0 0 111 30" fill="none" xmlns="http://www.w3.org/2000/svg">
<path d="M41.009 10.0767H37.1162V19.3419H39.1239V12.0844H39.7002L42.9089 19.3419H45.1025L41.009 10.0767Z" fill="black"/>
<path d="M76.0527 19.3419H78.0605V10.0767H76.0527V19.3419Z" fill="black"/>
<path d="M49.1951 10.0767L45.1016 19.3419H47.2989L50.5038 12.0844H51.0801V19.3419H53.0879V10.0767H49.1951Z" fill="black"/>
<path d="M62.0667 10.0767H58.3933L54.2998 19.3419H56.4934L57.8282 16.3229H62.6319L63.9666 19.3419H66.1603L62.0667 10.0767ZM58.7168 14.3152L59.7021 12.0844H60.758L61.7433 14.3152H58.7168Z" fill="black"/>
<path d="M71.9576 10.0767H67.3213V19.3419H69.329V12.0844H70.6489L73.8576 19.3419H76.0512L71.9576 10.0767Z" fill="black"/>
<path d="M79.1748 10.0767V12.0844H83.8595V19.3419H85.8672V12.0844H90.5519V10.0767H79.1748Z" fill="black"/>
<path d="M93.6747 10.0767H91.667V19.3419H100.404V17.3342H93.6747V10.0767Z" fill="black"/>
<path d="M111 12.0844V10.0767H101.52V19.3419H111V17.3342H103.527V15.5793H110.008V13.5716H103.527V12.0844H111Z" fill="black"/>
<path d="M6.0707 10.3217L1.61652 8.05371C1.26703 8.73783 0.973304 9.4554 0.735352 10.1878L5.49069 11.7271C5.64685 11.2438 5.84018 10.7716 6.0707 10.3217Z" fill="black"/>
<path d="M9.85115 6.32468L12.3199 10.5744C12.6806 10.3662 13.0672 10.2063 13.4651 10.0985L12.1898 5.35428C12.5133 5.26876 12.8442 5.19441 13.1788 5.14235L12.3943 0.204834C11.6358 0.32381 10.881 0.505993 10.1523 0.743946L11.6767 5.42121C11.1896 5.58108 10.7175 5.77813 10.2639 6.00865L8.02189 1.63255C7.3415 1.98204 6.67969 2.38731 6.0625 2.8409L9.01089 6.87866C9.27858 6.67789 9.56115 6.49571 9.85115 6.32468Z" fill="black"/>
<path d="M23.0925 9.8459L18.8428 12.3147C19.051 12.6753 19.2146 13.062 19.3224 13.4598L24.0666 12.1808C24.1558 12.5043 24.2265 12.8352 24.2785 13.1661L29.216 12.3816C29.0971 11.6231 28.9149 10.8683 28.6732 10.1396L23.9997 11.6677C23.8398 11.1807 23.6427 10.7085 23.4122 10.2549L27.7883 8.0092C27.4388 7.3288 27.0336 6.66699 26.58 6.0498L22.5459 8.99819C22.7393 9.27332 22.9214 9.55589 23.0925 9.8459Z" fill="black"/>
<path d="M21.3591 1.61066C20.675 1.26117 19.9574 0.967445 19.225 0.729492L17.6895 5.48483C18.1691 5.64098 18.6413 5.83432 19.0949 6.06484L21.3591 1.61066Z" fill="black"/>
<path d="M19.5807 6.23929L17.0859 10.5708C17.4466 10.779 17.7812 11.0355 18.0749 11.3292L25.0722 4.30592C24.5294 3.76309 23.9382 3.26116 23.321 2.81128L20.4359 6.79327C20.1607 6.5925 19.8782 6.4066 19.5807 6.23929Z" fill="black"/>
<path d="M6.24167 9.83091L10.5694 12.3294C10.7776 11.9688 11.0342 11.6341 11.3279 11.3367L4.31202 4.33569C3.76919 4.87852 3.26726 5.46969 2.81738 6.08688L6.79566 8.97577C6.5986 9.2509 6.4127 9.53719 6.24167 9.83091Z" fill="black"/>
<path d="M16.2244 5.05714L16.9791 0.197695C16.2318 0.0824367 15.4696 0.0229492 14.7074 0.0229492H14.6963V9.93517H14.7074C15.1239 9.93517 15.5403 9.98722 15.9381 10.095L17.2208 5.26535C16.8936 5.17611 16.5627 5.10919 16.2244 5.05714Z" fill="black"/>
<path d="M10.0975 13.4783L5.26779 12.1919C5.18227 12.5191 5.11163 12.8537 5.05958 13.1883L0.200136 12.4298C0.0848781 13.1772 0.0253906 13.9468 0.0253906 14.709H9.93761C9.93761 14.2889 9.99338 13.8762 10.0975 13.4783Z" fill="black"/>
<path d="M23.3525 19.0963L27.8067 21.3643C28.1562 20.6802 28.4499 19.9626 28.6879 19.2302L23.9325 17.6909C23.7764 18.1743 23.5831 18.6464 23.3525 19.0963Z" fill="black"/>
<path d="M19.5672 23.0895L17.1022 18.8398C16.7415 19.0481 16.3549 19.2079 15.957 19.3157L17.2323 24.0599C16.9088 24.1454 16.5779 24.2198 16.2433 24.2719L17.0278 29.2094C17.7863 29.0904 18.541 28.9082 19.2698 28.6703L17.7454 23.993C18.2325 23.8331 18.7046 23.6361 19.1582 23.4056L21.4002 27.7817C22.0806 27.4322 22.7424 27.0269 23.3596 26.5733L20.4149 22.5355C20.1435 22.74 19.8609 22.9222 19.5672 23.0895Z" fill="black"/>
<path d="M6.33157 19.5724L10.5813 17.1036C10.373 16.743 10.2095 16.3563 10.1016 15.9585L5.35745 17.2375C5.26822 16.914 5.19758 16.5831 5.14553 16.2522L0.208008 17.0367C0.326984 17.7952 0.509167 18.5499 0.750838 19.2787L5.42438 17.7506C5.58425 18.2339 5.78131 18.7098 6.01182 19.1634L1.63572 21.4091C1.98522 22.0895 2.39048 22.7513 2.84408 23.3685L6.87812 20.4201C6.68478 20.145 6.5026 19.8624 6.33157 19.5724Z" fill="black"/>
<path d="M8.0625 27.8072C8.74661 28.1567 9.46419 28.4504 10.1966 28.6884L11.7322 23.933C11.2526 23.7769 10.7804 23.5835 10.3268 23.353L8.0625 27.8072Z" fill="black"/>
<path d="M9.83623 23.1783L12.331 18.8469C11.9704 18.6386 11.6357 18.3821 11.342 18.0884L4.34473 25.1117C4.88756 25.6545 5.47872 26.1565 6.09591 26.6063L8.98109 22.6244C9.25622 22.8214 9.54251 23.0073 9.83623 23.1783Z" fill="black"/>
<path d="M23.1771 19.5869L18.8493 17.0884C18.6411 17.449 18.3845 17.7836 18.0908 18.0811L25.1104 25.0821C25.6533 24.5393 26.1552 23.9481 26.6051 23.3309L22.6268 20.442C22.8238 20.1632 23.0098 19.8806 23.1771 19.5869Z" fill="black"/>
<path d="M13.481 19.3232L12.1982 24.1529C12.5254 24.2385 12.8601 24.3091 13.1947 24.3611L12.4399 29.2206C13.1872 29.3358 13.9494 29.3953 14.7116 29.3953H14.7228V19.4831H14.7116C14.2952 19.4831 13.8788 19.4273 13.481 19.3232Z" fill="black"/>
<path d="M19.4851 14.7095C19.4851 15.1296 19.433 15.5423 19.3252 15.9401L24.1549 17.2266C24.2404 16.8994 24.3111 16.5648 24.3631 16.2301L29.2225 16.9886C29.3378 16.2413 29.3973 15.4717 29.3973 14.7095H19.4851Z" fill="black"/>
</svg>
