<svg width="140" height="31" viewBox="0 0 140 31" fill="none" xmlns="http://www.w3.org/2000/svg">
<path d="M30.4872 15.7052C30.3149 7.21776 23.2319 0.495091 14.7177 0.788812C6.40104 1.07494 -0.175281 8.03054 0.00457962 16.3484C0.138842 22.4938 3.89312 27.7098 9.19015 30.0039C9.94252 29.0493 10.5682 27.3351 10.8798 26.3779C11.1914 25.5981 11.5207 24.8359 11.8652 24.0966C13.4131 24.6359 15.4929 24.1244 16.6278 22.8887L16.6734 22.8381H16.6683C15.2902 22.2329 13.3928 22.5469 12.1414 23.5142C12.567 22.6305 13.0179 21.7771 13.4916 20.9568C15.0141 21.5645 17.1091 21.1518 18.3023 19.9718L18.3504 19.9237H18.3453C17.0179 19.2654 15.1458 19.4705 13.8513 20.344C14.3225 19.5616 14.8114 18.807 15.3231 18.0854C16.8988 18.5741 18.9761 17.9715 20.0629 16.6776L20.1059 16.6269H20.1008C18.8165 16.1306 17.1293 16.4218 15.9286 17.2599C15.9716 17.2042 16.0122 17.146 16.0552 17.0903C16.3618 16.6902 16.6759 16.3028 16.9951 15.923C18.857 15.3963 20.5163 13.4998 20.7823 11.54L20.7924 11.4615H20.7848C18.8595 11.8464 17.0761 13.7404 16.7189 15.7432C16.4124 16.1079 16.111 16.4801 15.8171 16.8624C16.2984 15.5584 16.2123 13.9733 15.5106 12.8795V12.8744L15.465 12.9276C14.4036 14.2645 14.2339 16.4472 15.0572 17.893C14.5733 18.5766 14.1072 19.2881 13.6588 20.025C13.94 18.5437 13.4663 16.8244 12.4251 15.8546H12.42L12.3922 15.9129C11.7056 17.4574 12.073 19.5895 13.2053 20.7897C12.7595 21.567 12.3314 22.3697 11.926 23.2027C12.1743 21.6632 11.6221 19.8832 10.5176 18.9159L10.5125 18.9108L10.4872 18.9742C9.86146 20.5947 10.3428 22.79 11.5587 23.9624C11.2953 24.5321 11.0394 25.1119 10.7937 25.707C10.7329 25.6462 10.6569 25.5981 10.5707 25.5728C10.2541 25.4791 9.81585 25.3145 9.33202 25.0233C9.01283 24.8334 8.67335 24.6764 8.32123 24.5599C6.94568 24.1092 7.14832 23.4458 6.43145 22.119C6.38583 22.0329 5.81587 21.4404 5.69423 21.3341C5.66387 21.3087 5.30158 21.0961 5.11666 20.7086C4.94695 20.3516 4.8532 20.0224 4.81776 19.6983C4.77215 19.2654 4.59229 18.9817 4.17178 18.8374C2.14771 18.1386 3.05461 15.5128 3.12554 15.1634C3.18634 14.8646 2.92542 14.2164 2.82915 13.8594C2.81902 13.8163 2.80889 13.7631 2.79622 13.6998C2.64929 12.9959 2.97861 12.4009 3.2218 12.1553C3.465 11.9097 4.3035 11.5197 4.48083 11.2893C4.65309 11.0639 4.79243 10.8057 4.96975 10.5854C5.20532 10.2917 5.92733 9.71692 6.90007 9.1953C7.4878 8.8813 7.59419 8.05585 7.81712 7.8052C8.20216 7.3722 8.7823 7.3722 9.21547 6.98226C9.43332 6.78476 9.75 6.68855 9.95264 6.48092C10.9558 5.45288 12.2985 5.03763 13.6284 4.78949C14.5226 4.62237 15.5207 4.88064 16.4555 5.03763C16.5923 5.06042 16.724 5.09334 16.8507 5.13132C18.9508 5.20221 21.4815 5.64027 22.3934 6.53155C22.9634 7.08859 23.242 7.69379 23.3789 8.11155C23.5309 8.57747 23.7411 9.02311 23.997 9.44092L24.5593 10.355C24.914 10.9323 25.0331 11.6286 24.8785 12.2895C24.7924 12.6668 24.7468 13.0618 24.8583 13.2821C25.0331 13.6239 25.5727 14.1835 25.8969 14.5025C26.054 14.657 26.2263 14.7937 26.4137 14.9127C26.8469 15.1862 27.6651 15.7103 27.6677 15.7559C27.6677 15.8167 27.7361 16.0775 27.3738 16.3915C27.0115 16.7054 26.3276 17.2068 26.3276 17.2068C26.3276 17.2068 26.363 17.4372 26.4593 17.6195C26.5556 17.8018 26.7911 18.0753 26.7202 18.3209C26.6493 18.5665 26.1452 18.764 26.2896 19.0375C26.434 19.3109 26.7886 19.397 26.6873 19.6452C26.5834 19.8933 26.0844 20.3187 26.135 20.5035C26.1857 20.6884 26.5885 22.3874 25.6562 22.6837C24.952 22.9065 23.0217 23.0331 22.1148 23.0812C21.7221 23.1014 21.37 23.3242 21.1825 23.6661C21.0407 23.9244 20.9039 24.2789 20.8329 24.7523C20.6581 25.9551 19.4675 28.7201 19.4675 28.7201C19.4675 28.7201 19.4321 28.791 19.3789 28.905C19.275 29.1531 19.1281 29.5455 19.1483 29.7025C19.161 29.8064 19.3029 30.0064 19.508 30.252C19.6702 30.447 19.9387 30.523 20.1794 30.4394C26.2921 28.353 30.6316 22.5039 30.4922 15.7052" fill="#00DACC"/>
<path d="M44.0469 8.27368H47.5351L51.4033 14.49L55.2719 8.27368H58.76V22.9774H55.5429V13.3784L51.4033 19.6579H51.3198L47.2212 13.4417V22.9774H44.0469V8.27368Z" fill="#313144"/>
<path d="M70.2783 8.27344H81.3741V11.1499H73.4931V14.1327H80.4292V17.0117H73.4931V20.1008H81.4804V22.9772H70.2783V8.27344Z" fill="#313144"/>
<path d="M95.7713 11.2565H91.2949V8.27368H103.485V11.2565H99.0089V22.9774H95.7713V11.2565Z" fill="#313144"/>
<path d="M117.334 8.27344H114.097V22.9798H117.334V8.27344Z" fill="#313144"/>
<path d="M127.991 20.8349L129.904 18.5458C131.249 19.6372 132.614 20.331 134.297 20.331C135.642 20.331 136.42 19.8068 136.42 18.9434V18.9003C136.42 18.0825 135.916 17.6394 133.456 17.0317C130.471 16.2974 128.579 15.4365 128.579 12.5372V12.4942C128.579 9.82538 130.702 8.06055 133.729 8.06055C135.893 8.06055 137.681 8.73408 139.193 9.92919L137.511 12.365C136.186 11.4611 134.948 10.9167 133.686 10.9167C132.425 10.9167 131.794 11.4637 131.794 12.1979V12.241C131.794 13.2285 132.425 13.5019 134.968 14.173C137.952 14.9705 139.634 16.0214 139.634 18.5838V18.6269C139.634 21.5463 137.407 23.1846 134.233 23.1846C131.984 23.1846 129.757 22.4275 127.991 20.8323" fill="#313144"/>
</svg>
