<svg width="146" height="21" viewBox="0 0 146 21" fill="none" xmlns="http://www.w3.org/2000/svg">
<path d="M94.6606 15.4431C94.6772 16.0178 94.5579 16.5882 94.3123 17.108C94.0667 17.6278 93.7019 18.0823 93.2474 18.4344C92.795 18.7764 92.2842 19.0334 91.74 19.1928C90.5771 19.532 89.3416 19.532 88.1787 19.1928C87.638 19.0391 87.1324 18.7815 86.6902 18.4344C86.2604 18.0973 85.9125 17.6673 85.6727 17.1766C85.4121 16.6366 85.2829 16.0426 85.2958 15.4431V12.2493C85.2839 11.6473 85.4163 11.0513 85.6821 10.511C85.9288 10.0167 86.279 9.58134 86.709 9.23445C87.1543 8.88502 87.6606 8.62145 88.2023 8.45719C88.7794 8.27372 89.3821 8.18308 89.9876 8.18868C90.6134 8.18104 91.2365 8.27165 91.8342 8.45719C92.3692 8.62463 92.8679 8.89153 93.3039 9.24387C93.7268 9.59139 94.0664 10.0292 94.2979 10.5252C94.543 11.0698 94.6652 11.6616 94.6559 12.2587L94.6606 15.4431ZM92.3053 12.6591C92.3185 12.2926 92.2459 11.928 92.0933 11.5945C91.9631 11.3284 91.7767 11.0937 91.5469 10.9067C91.3247 10.7278 91.0681 10.5963 90.7932 10.5205C90.2558 10.3566 89.6818 10.3566 89.1444 10.5205C88.8683 10.5972 88.6104 10.7286 88.386 10.9067C88.1534 11.0967 87.9666 11.3366 87.8396 11.6086C87.6895 11.943 87.6171 12.3069 87.6276 12.6732V15.0286C87.5932 15.3556 87.6382 15.686 87.7588 15.9919C87.8793 16.2978 88.0718 16.57 88.32 16.7857C88.7965 17.1333 89.3745 17.3138 89.9641 17.2991C90.2433 17.2984 90.521 17.2571 90.7884 17.1766C91.0644 17.0972 91.3221 16.9643 91.5469 16.7857C91.7795 16.5957 91.9662 16.3558 92.0933 16.0838C92.2459 15.7502 92.3185 15.3857 92.3053 15.0192V12.6591Z" fill="#030909"/>
<path d="M116.674 14.595V15.1509C116.664 15.4929 116.732 15.8329 116.872 16.1448C116.995 16.4052 117.175 16.634 117.4 16.8138C117.623 16.9923 117.882 17.1222 118.158 17.1953C118.453 17.2785 118.757 17.3198 119.063 17.3178C119.48 17.3078 119.894 17.2477 120.297 17.1388C120.84 16.9905 121.336 16.7068 121.738 16.3144C121.979 16.5971 122.21 16.8703 122.445 17.1294C122.681 17.3885 122.916 17.6617 123.123 17.949C122.577 18.5122 121.899 18.93 121.15 19.1644C120.472 19.3656 119.769 19.4671 119.063 19.4659C118.447 19.4718 117.833 19.3893 117.24 19.2209C116.693 19.0685 116.178 18.8162 115.723 18.4766C115.283 18.1416 114.928 17.7074 114.687 17.2095C114.42 16.653 114.289 16.041 114.305 15.4241V12.5176C114.296 11.8976 114.413 11.2822 114.649 10.7087C114.87 10.1898 115.201 9.72515 115.619 9.34733C116.043 8.97239 116.533 8.68143 117.065 8.48999C117.645 8.28186 118.258 8.17974 118.874 8.18851C119.503 8.17994 120.129 8.27708 120.726 8.47586C121.263 8.6551 121.758 8.94201 122.181 9.31907C122.59 9.68625 122.912 10.1401 123.123 10.6475C123.354 11.2122 123.466 11.8183 123.453 12.4281V14.595H116.674ZM121.098 12.56C121.125 12.2495 121.082 11.9368 120.971 11.6454C120.86 11.3541 120.684 11.0918 120.457 10.8783C120.022 10.5267 119.476 10.3399 118.917 10.3507C118.349 10.3373 117.795 10.5297 117.358 10.8924C117.131 11.0979 116.953 11.3522 116.839 11.6362C116.725 11.9202 116.677 12.2264 116.698 12.5318V12.8898H121.098V12.56Z" fill="#030909"/>
<path d="M125.233 12.146C125.203 11.6204 125.28 11.0943 125.46 10.5995C125.64 10.1047 125.918 9.65165 126.279 9.26773C126.648 8.91485 127.084 8.63932 127.561 8.45731C128.038 8.2753 128.547 8.19048 129.058 8.20783C129.52 8.21726 129.982 8.25976 130.438 8.33502C131.041 8.43551 131.629 8.60789 132.19 8.84848V3.45947H134.546V19.3062H132.402L132.19 18.218C131.6 18.6022 130.968 18.9182 130.306 19.1602C129.868 19.3152 129.409 19.401 128.945 19.4145C128.457 19.4431 127.969 19.3746 127.508 19.2128C127.047 19.0511 126.623 18.7994 126.26 18.4724C125.595 17.8317 125.27 16.8284 125.275 15.4717L125.233 12.146ZM127.588 15.2691C127.556 15.5409 127.581 15.8164 127.662 16.0778C127.743 16.3392 127.878 16.5805 128.059 16.786C128.398 17.0645 128.827 17.2087 129.265 17.1911C129.486 17.1897 129.706 17.1597 129.92 17.1016C130.18 17.0401 130.435 16.9598 130.683 16.8613C130.951 16.7572 131.214 16.6393 131.47 16.508C131.716 16.3804 131.955 16.2388 132.186 16.0841V11.0719C131.713 10.884 131.228 10.7266 130.735 10.6009C130.312 10.4964 129.879 10.4411 129.444 10.436C128.962 10.4274 128.493 10.5948 128.125 10.907C127.926 11.1131 127.774 11.3604 127.68 11.6314C127.587 11.9024 127.554 12.1905 127.583 12.4757L127.588 15.2691Z" fill="#030909"/>
<path d="M65.3275 6.4123C66.0455 6.4123 66.6276 5.83021 66.6276 5.11216C66.6276 4.39411 66.0455 3.81201 65.3275 3.81201C64.6094 3.81201 64.0273 4.39411 64.0273 5.11216C64.0273 5.83021 64.6094 6.4123 65.3275 6.4123Z" fill="#030909"/>
<path d="M35.4816 7.19922L38.0913 11.7168L24.3503 19.6542C24.3503 19.6542 15.9323 24.7371 9.88379 14.2511L14.1658 11.7827C14.1658 11.7827 16.9451 17.9301 21.7641 15.1367L35.4816 7.19922Z" fill="#030909"/>
<path d="M3.58432 14.2227L0.974609 9.70515L15.0077 1.60279C15.0077 1.60279 23.4257 -3.48474 29.4742 7.00122L25.1922 9.46962C25.1922 9.46962 22.4129 3.34574 17.5939 6.11561C12.7748 8.88549 3.58432 14.2227 3.58432 14.2227Z" fill="#030909"/>
<path d="M19.8171 14.1097C20.4953 14.1097 21.1584 13.9086 21.7223 13.5318C22.2863 13.1549 22.7258 12.6193 22.9854 11.9927C23.245 11.3661 23.3129 10.6765 23.1805 10.0113C23.0482 9.34608 22.7216 8.73502 22.242 8.25542C21.7624 7.77581 21.1513 7.4492 20.4861 7.31687C19.8209 7.18455 19.1313 7.25246 18.5047 7.51202C17.8781 7.77158 17.3425 8.21114 16.9656 8.77509C16.5888 9.33905 16.3877 10.0021 16.3877 10.6803C16.3877 11.5899 16.749 12.4621 17.3921 13.1053C18.0353 13.7484 18.9075 14.1097 19.8171 14.1097Z" fill="#030909"/>
<path d="M31.5928 5.65873C31.9468 5.65873 32.2929 5.55374 32.5873 5.35705C32.8817 5.16035 33.1111 4.88079 33.2466 4.5537C33.3821 4.22661 33.4175 3.86668 33.3485 3.51945C33.2794 3.17221 33.1089 2.85325 32.8586 2.60291C32.6082 2.35257 32.2892 2.18208 31.942 2.11301C31.5948 2.04394 31.2349 2.07939 30.9078 2.21487C30.5807 2.35036 30.3011 2.5798 30.1044 2.87417C29.9077 3.16854 29.8027 3.51463 29.8027 3.86867C29.8027 4.34342 29.9913 4.79873 30.327 5.13443C30.6627 5.47013 31.118 5.65873 31.5928 5.65873Z" fill="#030909"/>
<path d="M94.717 15.4007C94.7267 16.0014 94.5927 16.5958 94.326 17.1342C94.0849 17.6255 93.7354 18.0555 93.3038 18.392C92.852 18.7349 92.341 18.9919 91.7964 19.1504C91.225 19.3221 90.6312 19.4078 90.0346 19.4048C89.4272 19.4075 88.8226 19.3218 88.2398 19.1504C87.6984 18.9948 87.1916 18.7374 86.7466 18.392C86.3192 18.0537 85.9731 17.6239 85.7338 17.1342C85.4721 16.5944 85.3413 16.0005 85.3522 15.4007V12.2021C85.3417 11.5998 85.4758 11.0037 85.7432 10.4639C85.9924 9.96852 86.3459 9.533 86.7795 9.18731C87.2241 8.83565 87.7306 8.57041 88.2728 8.40534C88.8512 8.22709 89.453 8.13658 90.0582 8.13683C90.6856 8.13311 91.3099 8.22525 91.9094 8.41005C92.4531 8.57389 92.9601 8.84099 93.4027 9.19673C93.8228 9.54575 94.1606 9.98328 94.392 10.478C94.6418 11.0211 94.7642 11.614 94.75 12.2116L94.717 15.4007ZM92.3617 12.6167C92.3727 12.2483 92.2986 11.8824 92.145 11.5474C92.018 11.2819 91.8328 11.0484 91.6033 10.8643C91.3785 10.6856 91.1208 10.5528 90.8448 10.4733C90.3092 10.3084 89.7364 10.3084 89.2008 10.4733C88.9244 10.5517 88.6666 10.6847 88.4424 10.8643C88.2098 11.0542 88.023 11.2941 87.896 11.5662C87.7434 11.8997 87.6708 12.2643 87.684 12.6308V14.9861C87.6498 15.3127 87.6945 15.6426 87.8141 15.9483C87.9338 16.2541 88.125 16.5266 88.3717 16.7432C88.8499 17.0909 89.4294 17.2714 90.0205 17.2567C90.2996 17.2536 90.5769 17.2124 90.8448 17.1342C91.1204 17.0537 91.3779 16.921 91.6033 16.7432C91.8345 16.5531 92.0197 16.3132 92.145 16.0413C92.2999 15.7068 92.3741 15.3405 92.3617 14.972V12.6167Z" fill="#030909"/>
<path d="M116.74 14.5476V15.1035C116.731 15.4453 116.799 15.7848 116.937 16.0974C117.063 16.356 117.243 16.5842 117.465 16.7664C117.691 16.9413 117.948 17.0708 118.223 17.1479C118.518 17.2285 118.822 17.2697 119.128 17.2704C119.547 17.2604 119.962 17.2003 120.367 17.0914C120.908 16.9408 121.404 16.6575 121.808 16.267C122.044 16.5497 122.279 16.8229 122.51 17.0773C122.741 17.3316 122.981 17.6096 123.193 17.9016C122.644 18.4638 121.964 18.8813 121.215 19.117C120.537 19.3159 119.834 19.4174 119.128 19.4185C118.513 19.4219 117.901 19.3395 117.31 19.1735C116.761 19.0224 116.246 18.7682 115.793 18.4245C115.351 18.0915 114.995 17.6589 114.752 17.162C114.487 16.6048 114.356 15.9934 114.37 15.3767V12.4702C114.36 11.8496 114.479 11.2337 114.719 10.6613C114.931 10.1448 115.252 9.6803 115.661 9.29993C116.086 8.92494 116.578 8.63401 117.112 8.44259C117.692 8.23519 118.304 8.13155 118.921 8.13639C119.548 8.13171 120.172 8.23038 120.767 8.42846C121.306 8.60632 121.802 8.89157 122.228 9.26695C122.637 9.63414 122.958 10.088 123.17 10.5954C123.4 11.1618 123.514 11.7691 123.504 12.3807V14.5476H116.74ZM121.158 12.5126C121.186 12.2013 121.143 11.8877 121.032 11.5955C120.921 11.3033 120.745 11.0402 120.518 10.8262C120.081 10.4774 119.536 10.2924 118.977 10.3033C118.411 10.291 117.859 10.4834 117.423 10.845C117.195 11.0498 117.017 11.304 116.903 11.5882C116.788 11.8723 116.741 12.1789 116.763 12.4843V12.8424H121.158V12.5126Z" fill="#030909"/>
<path d="M125.303 12.1075C125.274 11.5794 125.353 11.0509 125.535 10.5544C125.717 10.0579 125.999 9.60375 126.363 9.21988C126.729 8.86448 127.164 8.58726 127.641 8.40506C128.118 8.22286 128.627 8.13948 129.137 8.15998C129.601 8.16997 130.064 8.21089 130.522 8.28246C131.118 8.38025 131.7 8.54785 132.256 8.78179V3.41162H134.611V19.2536H132.472L132.26 18.1702C131.663 18.5559 131.022 18.872 130.353 19.1123C129.914 19.2647 129.455 19.3505 128.991 19.3667C128.503 19.3949 128.014 19.3261 127.552 19.1644C127.091 19.0027 126.665 18.7513 126.301 18.4245C125.642 17.7808 125.314 16.7805 125.317 15.4238L125.303 12.1075ZM127.658 15.2307C127.626 15.5017 127.651 15.7764 127.732 16.037C127.814 16.2976 127.949 16.5381 128.129 16.7428C128.468 17.025 128.899 17.171 129.34 17.1527C129.559 17.149 129.778 17.119 129.99 17.0632C130.25 17.003 130.505 16.9227 130.753 16.8229C131.022 16.718 131.284 16.5985 131.54 16.4649C131.788 16.3383 132.029 16.1967 132.26 16.0409V11.0241C131.788 10.834 131.303 10.6766 130.81 10.553C130.386 10.4464 129.951 10.391 129.514 10.3881C129.25 10.3707 128.986 10.4129 128.74 10.5117C128.495 10.6106 128.275 10.7634 128.096 10.9589C127.918 11.1544 127.786 11.3875 127.71 11.641C127.634 11.8945 127.617 12.1618 127.658 12.4231V15.2307Z" fill="#030909"/>
<path d="M46.5791 19.1317V3.76074H49.7682L53.8383 13.6249L57.9036 3.76074H61.1492V19.1317H58.4453V8.87182L54.8463 17.0401H52.9055L49.2972 9.13562V19.1317H46.5791Z" fill="#030909"/>
<path d="M66.637 19.1314H64.1592V8.42407H66.637V19.1314Z" fill="#030909"/>
<path d="M72.8784 17.0355C72.0729 17.0355 71.6678 16.621 71.6678 15.7872L71.6913 3.83618H69.1947V16.4467C69.144 17.2346 69.4045 18.0109 69.9201 18.6089C70.1771 18.8676 70.4856 19.0692 70.8257 19.2007C71.1658 19.3322 71.5298 19.3906 71.8939 19.372C72.2821 19.367 72.6693 19.3339 73.0527 19.2731C73.2776 19.242 73.4997 19.1931 73.7169 19.127V17.0355H72.8784Z" fill="#030909"/>
<path d="M78.1683 14.0298H77.7867V15.6692V19.1409H75.29V3.83594H77.7584V10.3461V12.2304H78.2295C78.3915 12.2308 78.5512 12.1925 78.6954 12.1188C78.8396 12.045 78.9641 11.938 79.0586 11.8064L81.494 8.42885H84.3204L81.5176 12.2304C81.401 12.4166 81.2635 12.5889 81.1077 12.7438C80.977 12.884 80.8335 13.0118 80.6791 13.1254V13.1725C80.8366 13.2915 80.9776 13.4309 81.0983 13.587C81.2586 13.7763 81.3991 13.9815 81.5176 14.1994L84.6502 19.1362H81.8237L79.0492 14.5009C78.9549 14.3536 78.8244 14.2329 78.6702 14.1504C78.5159 14.068 78.3431 14.0264 78.1683 14.0298Z" fill="#030909"/>
<path d="M111.477 8.8857C111.979 9.50682 112.227 10.2939 112.175 11.0903V19.1314H109.739V11.9005C109.761 11.4868 109.661 11.0757 109.452 10.7182C109.331 10.5925 109.184 10.4959 109.021 10.4355C108.858 10.3751 108.683 10.3526 108.51 10.3696C108.119 10.369 107.734 10.4594 107.384 10.6334C106.825 10.9374 106.291 11.2855 105.787 11.6744V19.1314H103.394V11.9005C103.447 11.4828 103.348 11.0599 103.116 10.7087C102.988 10.5855 102.835 10.4914 102.668 10.4329C102.5 10.3743 102.322 10.3527 102.145 10.3696C101.764 10.3701 101.388 10.4605 101.048 10.6334C100.498 10.9337 99.9677 11.2689 99.4604 11.6367V19.1314H96.9873V8.42406H99.0129L99.1778 9.99742C99.7544 9.43669 100.408 8.96085 101.119 8.58422C101.729 8.27643 102.404 8.11514 103.088 8.11315C104.435 8.11315 105.288 8.71141 105.646 9.90792C106.884 8.71141 108.156 8.11315 109.452 8.11315C109.825 8.0883 110.199 8.14448 110.549 8.27782C110.899 8.41117 111.215 8.61853 111.477 8.8857Z" fill="#030909"/>
<path d="M144.866 8.95166C145.474 9.50281 145.78 10.4732 145.78 11.8534V19.1314H143.816L143.547 17.5157C143.086 18.0438 142.536 18.4871 141.922 18.8252C141.248 19.1946 140.49 19.3828 139.722 19.3717C138.88 19.4077 138.057 19.1136 137.428 18.552C137.127 18.2562 136.892 17.8992 136.74 17.5051C136.588 17.111 136.522 16.689 136.547 16.2673V15.1792C136.524 14.8105 136.582 14.4413 136.716 14.0972C136.85 13.7531 137.058 13.4424 137.324 13.1866C137.941 12.6875 138.723 12.4386 139.515 12.4894H143.283V11.8346C143.286 11.5123 143.227 11.1925 143.109 10.8925C143.054 10.7849 142.978 10.6896 142.884 10.6127C142.791 10.5357 142.683 10.4786 142.567 10.4449C142.201 10.3426 141.821 10.2981 141.441 10.313C140.389 10.313 138.99 10.3868 137.244 10.5345L136.999 8.65018C137.72 8.50415 138.573 8.37696 139.557 8.27804C140.372 8.18447 141.191 8.13259 142.011 8.12259C143.305 8.11944 144.257 8.3958 144.866 8.95166ZM139.341 16.9127C139.477 17.0291 139.635 17.1174 139.805 17.1723C139.976 17.2273 140.156 17.2479 140.334 17.233C140.822 17.2164 141.301 17.1077 141.748 16.9127C142.303 16.6819 142.819 16.3638 143.274 15.9706V14.303H140.08C139.926 14.2921 139.771 14.316 139.628 14.3731C139.484 14.4302 139.356 14.519 139.251 14.6327C139.079 14.8897 138.997 15.1958 139.015 15.5042V15.914C139 16.0938 139.021 16.2747 139.077 16.4462C139.133 16.6177 139.222 16.7763 139.341 16.9127Z" fill="#030909"/>
<path d="M65.3968 6.36079C66.1149 6.36079 66.697 5.7787 66.697 5.06064C66.697 4.34259 66.1149 3.7605 65.3968 3.7605C64.6788 3.7605 64.0967 4.34259 64.0967 5.06064C64.0967 5.7787 64.6788 6.36079 65.3968 6.36079Z" fill="#030909"/>
<path d="M35.4816 7.19922L38.0913 11.7168L24.3503 19.6542C24.3503 19.6542 15.9323 24.7371 9.88379 14.2511L14.1658 11.7827C14.1658 11.7827 16.9451 17.9301 21.7641 15.1367L35.4816 7.19922Z" fill="#030909"/>
<path d="M3.58432 14.2227L0.974609 9.70515L15.0077 1.60279C15.0077 1.60279 23.4257 -3.48474 29.4742 7.00122L25.1969 9.46962C25.1969 9.46962 22.4129 3.34574 17.5939 6.11561C12.7748 8.88549 3.58432 14.2227 3.58432 14.2227Z" fill="#030909"/>
<path d="M19.8171 14.1097C20.4953 14.1097 21.1584 13.9086 21.7223 13.5318C22.2863 13.1549 22.7258 12.6193 22.9854 11.9927C23.245 11.3661 23.3129 10.6765 23.1805 10.0113C23.0482 9.34608 22.7216 8.73502 22.242 8.25542C21.7624 7.77581 21.1513 7.4492 20.4861 7.31687C19.8209 7.18455 19.1313 7.25246 18.5047 7.51202C17.8781 7.77158 17.3425 8.21114 16.9656 8.77509C16.5888 9.33905 16.3877 10.0021 16.3877 10.6803C16.3877 11.5899 16.749 12.4621 17.3921 13.1053C18.0353 13.7484 18.9075 14.1097 19.8171 14.1097Z" fill="#FF931E"/>
<path d="M7.68752 19.4657C8.04269 19.4667 8.39015 19.3622 8.68592 19.1656C8.98168 18.9689 9.21246 18.6889 9.34902 18.3611C9.48559 18.0332 9.5218 17.6722 9.45308 17.3237C9.38436 16.9753 9.2138 16.655 8.96299 16.4036C8.71217 16.1521 8.39238 15.9807 8.04411 15.9111C7.69583 15.8414 7.33472 15.8767 7.00649 16.0124C6.67827 16.1481 6.39768 16.3781 6.20026 16.6734C6.00284 16.9686 5.89746 17.3158 5.89746 17.671C5.89746 18.1462 6.0859 18.602 6.42147 18.9384C6.75704 19.2749 7.21233 19.4645 7.68752 19.4657Z" fill="#030909"/>
<path d="M31.5928 5.65873C31.9468 5.65873 32.2929 5.55374 32.5873 5.35705C32.8817 5.16035 33.1111 4.88079 33.2466 4.5537C33.3821 4.22661 33.4175 3.86668 33.3485 3.51945C33.2794 3.17221 33.1089 2.85325 32.8586 2.60291C32.6082 2.35257 32.2892 2.18208 31.942 2.11301C31.5948 2.04394 31.2349 2.07939 30.9078 2.21487C30.5807 2.35036 30.3011 2.5798 30.1044 2.87417C29.9077 3.16854 29.8027 3.51463 29.8027 3.86867C29.8027 4.34342 29.9913 4.79873 30.327 5.13443C30.6627 5.47013 31.118 5.65873 31.5928 5.65873Z" fill="#030909"/>
</svg>
