<svg width="97" height="34" viewBox="0 0 97 34" fill="none" xmlns="http://www.w3.org/2000/svg">
<path d="M13.6488 12.3012C13.7129 12.3096 13.7449 12.2817 13.7449 12.2177C13.7462 8.9803 13.7466 5.76266 13.7459 2.56477C13.7449 1.79491 14.0032 1.42017 14.7837 1.42017C17.1739 1.42146 19.5644 1.42146 21.9552 1.42017C22.5707 1.42017 23.1056 1.58909 23.1095 2.27644C23.1328 5.95974 23.1289 13.5969 23.0979 25.1879C23.092 27.6693 23.126 30.1507 23.1076 32.6331C23.1047 33.0952 23.1037 33.4816 22.6882 33.7467C21.9863 34.1932 21.4562 33.4942 21.03 33.0671C14.4239 26.4461 7.81612 19.8263 1.20675 13.2079C0.774738 12.7759 0.663093 12.5604 0.663093 11.9089C0.665035 8.50459 0.665035 5.10089 0.663093 1.69783C0.662446 1.34315 0.70581 1.08588 0.793184 0.92602C1.18443 0.213435 1.9174 0.452259 2.38533 0.937671C6.02722 4.71417 9.70567 8.45443 13.4207 12.1585C13.5081 12.2452 13.5841 12.2927 13.6488 12.3012ZM14.1653 13.2836C14.1297 13.4254 14.0605 13.4448 13.9576 13.3419C9.93155 9.33627 5.97932 5.27434 2.00768 1.22115C1.80769 1.01728 1.63683 0.826025 1.3883 0.952232C1.19672 1.04867 1.10093 1.17261 1.10093 1.32406C1.10093 4.93229 1.10352 8.54051 1.1087 12.1487C1.1087 12.3656 1.17828 12.5442 1.31743 12.6846C6.80517 18.2015 13.6359 25.0429 21.8096 33.2088C22.2474 33.6457 22.6775 33.3972 22.6775 32.8273C22.6781 22.9068 22.6778 12.9862 22.6765 3.06572C22.6765 2.78126 22.6425 2.45313 22.6474 2.1444C22.6474 2.11075 22.6364 2.08162 22.6144 2.05703C22.483 1.90946 22.3261 1.83568 22.1435 1.83568C19.7501 1.83245 17.3571 1.83245 14.9643 1.83568C14.5138 1.83665 14.1362 1.87937 14.1566 2.4172C14.1792 3.01264 14.1867 3.54304 14.1789 4.00838C14.1304 6.85096 14.1566 9.69838 14.1605 12.541C14.1614 12.7477 14.2216 13.0623 14.1653 13.2836Z" fill="#365B6D"/>
<circle cx="5.22515" cy="29.4085" r="4.36871" fill="#8A6DFF"/>
<path d="M21.6799 22.3747C21.4909 22.2628 21.2679 22.079 21.011 21.8233C19.103 19.9296 17.2031 18.0277 15.3113 16.1178C15.2915 16.0974 15.2668 16.0824 15.2394 16.0741L15.1783 16.0556C15.1906 15.9903 15.166 15.944 15.1045 15.9168C15.1136 15.9136 15.1216 15.911 15.1288 15.9091C15.1404 15.9058 15.1462 15.8984 15.1462 15.8867L15.1511 5.4028C15.2268 5.36137 15.266 5.3041 15.2686 5.23096C15.2938 4.56109 15.3174 3.88961 15.3394 3.2165C15.3407 3.18414 15.3546 3.15922 15.3812 3.14175C15.5973 2.99483 15.8203 2.92299 16.0501 2.92623C17.562 2.94758 18.8913 2.92655 20.0382 2.86312C20.455 2.81523 20.8819 2.80455 21.3187 2.83109C21.5537 2.84597 21.6711 2.97671 21.6711 3.2233C21.6796 9.60096 21.6825 15.9848 21.6799 22.3747Z" fill="#8A6CFF"/>
<path d="M15.1046 15.916C15.1661 15.9432 15.1907 15.9895 15.1784 16.0548C15.1564 20.0948 15.1492 23.048 15.157 24.9146C15.1577 25.013 15.135 25.0761 15.0891 25.1039L2.10915 12.124C2.09684 12.1117 2.08708 12.0971 2.08041 12.0809C2.07375 12.0647 2.07032 12.0474 2.07031 12.0298V3.02154C2.07031 3.00579 2.07497 2.99039 2.08372 2.97729C2.09247 2.96419 2.1049 2.95398 2.11945 2.94796C2.134 2.94193 2.15001 2.94035 2.16546 2.94343C2.18091 2.9465 2.19509 2.95409 2.20623 2.96523C6.51992 7.25303 10.8184 11.5564 15.1017 15.8752C15.1056 15.8798 15.1072 15.8849 15.1065 15.8908C15.1059 15.8992 15.1052 15.9076 15.1046 15.916Z" fill="#52C7FD"/>
<path d="M15.1801 16.0552L15.2413 16.0736C15.2687 16.0819 15.2934 16.0969 15.3131 16.1173C17.205 18.0272 19.1049 19.9291 21.0128 21.8228C21.2698 22.0785 21.4928 22.2623 21.6817 22.3743C21.6837 25.1644 21.6837 27.961 21.6817 30.7641C21.6817 31.0185 21.3837 31.2845 21.1196 31.0796C20.908 30.9153 20.707 30.7376 20.5168 30.5467C18.7091 28.7312 16.9004 26.9171 15.0908 25.1042C15.1368 25.0764 15.1594 25.0133 15.1588 24.9149C15.151 23.0483 15.1581 20.0951 15.1801 16.0552Z" fill="#6C62FF"/>
<path d="M52.7866 15.8437C52.7667 17.4718 52.078 19.0251 50.8718 20.1619C49.6657 21.2986 48.041 21.9256 46.3552 21.905C45.5204 21.8948 44.6958 21.7259 43.9283 21.408C43.1609 21.0901 42.4657 20.6293 41.8824 20.052C41.2991 19.4747 40.8392 18.7923 40.5288 18.0435C40.2185 17.2948 40.0638 16.4945 40.0737 15.6883C40.0936 14.0602 40.7824 12.5068 41.9885 11.3701C43.1946 10.2334 44.8193 9.60636 46.5052 9.62696C47.3399 9.63716 48.1645 9.80605 48.932 10.124C49.6994 10.4419 50.3946 10.9027 50.9779 11.48C51.5612 12.0572 52.0211 12.7397 52.3315 13.4884C52.6418 14.2372 52.7965 15.0375 52.7866 15.8437ZM50.0873 15.7611C50.0873 15.2827 49.993 14.8089 49.8099 14.3668C49.6268 13.9248 49.3584 13.5231 49.0201 13.1848C48.6818 12.8465 48.2801 12.5781 47.8381 12.395C47.396 12.2119 46.9222 12.1176 46.4438 12.1176C45.4774 12.1176 44.5507 12.5015 43.8674 13.1848C43.1841 13.8681 42.8003 14.7948 42.8003 15.7611C42.8003 16.7275 43.1841 17.6542 43.8674 18.3375C44.5507 19.0208 45.4774 19.4046 46.4438 19.4046C46.9222 19.4046 47.396 19.3104 47.8381 19.1273C48.2801 18.9442 48.6818 18.6758 49.0201 18.3375C49.3584 17.9991 49.6268 17.5975 49.8099 17.1554C49.993 16.7134 50.0873 16.2396 50.0873 15.7611Z" fill="#365B6D"/>
<path d="M90.0505 17.1453L88.6283 18.9569C88.6237 18.963 88.6213 18.9705 88.6215 18.9782V21.5927C88.6215 21.5971 88.6206 21.6015 88.6189 21.6057C88.6172 21.6098 88.6147 21.6135 88.6115 21.6167C88.6084 21.6198 88.6046 21.6223 88.6005 21.624C88.5964 21.6258 88.592 21.6266 88.5875 21.6266L85.9129 21.6334C85.9039 21.6334 85.8952 21.6298 85.8889 21.6235C85.8825 21.6171 85.8789 21.6085 85.8789 21.5995V9.94568C85.8789 9.93667 85.8825 9.92803 85.8889 9.92166C85.8952 9.91528 85.9039 9.9117 85.9129 9.9117L88.5885 9.88452C88.5975 9.88452 88.6061 9.8881 88.6125 9.89447C88.6189 9.90085 88.6225 9.90949 88.6225 9.9185L88.6215 15.2338C88.6215 15.2409 88.6237 15.2478 88.6279 15.2536C88.6321 15.2594 88.638 15.2637 88.6447 15.266C88.6515 15.2683 88.6588 15.2683 88.6656 15.2662C88.6724 15.2641 88.6784 15.2599 88.6826 15.2541L92.7805 9.91947C92.7836 9.91538 92.7875 9.91203 92.792 9.90968C92.7966 9.90733 92.8016 9.90603 92.8067 9.90588L95.9046 9.902C95.911 9.90204 95.9173 9.90388 95.9227 9.90732C95.928 9.91076 95.9324 9.91565 95.9351 9.92143C95.9378 9.92721 95.9389 9.93365 95.9381 9.94C95.9374 9.94635 95.9348 9.95236 95.9308 9.95733L91.8747 15.1124C91.8702 15.1182 91.8676 15.1253 91.8674 15.1326C91.8673 15.14 91.8695 15.1472 91.8737 15.1532L96.4599 21.5849C96.4635 21.59 96.4656 21.596 96.4659 21.6022C96.4663 21.6084 96.465 21.6146 96.4621 21.6202C96.4592 21.6257 96.4548 21.6303 96.4495 21.6335C96.4441 21.6367 96.438 21.6383 96.4318 21.6383H93.2921C93.2868 21.6382 93.2815 21.6368 93.2768 21.6343C93.2721 21.6317 93.268 21.6281 93.2649 21.6237L90.1049 17.1463C90.1018 17.142 90.0978 17.1385 90.0931 17.1361C90.0884 17.1336 90.0832 17.1323 90.078 17.1322C90.0727 17.1321 90.0675 17.1332 90.0627 17.1355C90.0579 17.1378 90.0538 17.1411 90.0505 17.1453Z" fill="#365B6D"/>
<path d="M31.0463 21.6383H28.3406C28.3321 21.6383 28.324 21.635 28.318 21.6289C28.312 21.6229 28.3086 21.6148 28.3086 21.6063V9.92339C28.3086 9.9149 28.312 9.90675 28.318 9.90074C28.324 9.89473 28.3321 9.89136 28.3406 9.89136H30.6648C30.6697 9.89139 30.6745 9.89255 30.6789 9.89474C30.6832 9.89693 30.6871 9.90009 30.69 9.90398L36.216 17.0852C36.22 17.0904 36.2257 17.0942 36.232 17.0961C36.2384 17.098 36.2452 17.0979 36.2515 17.0958C36.2578 17.0936 36.2632 17.0896 36.2671 17.0842C36.271 17.0788 36.2732 17.0724 36.2732 17.0657L36.2674 9.93213C36.2674 9.92793 36.2682 9.92376 36.2698 9.91987C36.2715 9.91598 36.2738 9.91245 36.2768 9.90948C36.2798 9.9065 36.2833 9.90414 36.2872 9.90253C36.2911 9.90092 36.2952 9.90009 36.2994 9.90009L38.975 9.89136C38.9835 9.89136 38.9917 9.89473 38.9977 9.90074C39.0037 9.90675 39.0071 9.9149 39.0071 9.92339L38.9945 21.6063C38.9945 21.6148 38.9911 21.6229 38.9851 21.6289C38.9791 21.635 38.9709 21.6383 38.9624 21.6383H36.6674C36.6625 21.6383 36.6577 21.6371 36.6533 21.6349C36.6489 21.6328 36.6451 21.6296 36.6421 21.6257L31.1259 14.4406C31.1218 14.4354 31.1162 14.4316 31.1099 14.4297C31.1035 14.4278 31.0967 14.4279 31.0904 14.43C31.0841 14.4322 31.0786 14.4362 31.0747 14.4416C31.0708 14.447 31.0687 14.4534 31.0686 14.4601L31.0784 21.6063C31.0784 21.6148 31.075 21.6229 31.069 21.6289C31.063 21.635 31.0548 21.6383 31.0463 21.6383Z" fill="#365B6D"/>
<path d="M58.2786 17.7067H56.6835C56.6331 17.7067 56.6078 17.732 56.6078 17.7824V21.5502C56.6078 21.5609 56.6057 21.5715 56.6016 21.5814C56.5975 21.5913 56.5915 21.6003 56.5839 21.6079C56.5764 21.6154 56.5674 21.6215 56.5575 21.6256C56.5476 21.6297 56.537 21.6318 56.5263 21.6318L53.972 21.6337C53.9008 21.6337 53.8652 21.5981 53.8652 21.5269V9.96634C53.8652 9.95606 53.8673 9.94588 53.8712 9.9364C53.8752 9.92691 53.881 9.9183 53.8883 9.91108C53.8956 9.90385 53.9043 9.89816 53.9139 9.89431C53.9234 9.89046 53.9336 9.88855 53.9439 9.88868C55.5969 9.89903 57.199 9.90033 58.7504 9.89256C59.2514 9.88997 59.7416 9.94628 60.2212 10.0615C63.757 10.9119 64.3793 15.7049 61.06 17.266C61.027 17.2809 61.0196 17.3042 61.0377 17.3359L63.4706 21.5657C63.4745 21.5727 63.4765 21.5805 63.4764 21.5885C63.4763 21.5965 63.4742 21.6043 63.4701 21.6111C63.4661 21.618 63.4604 21.6237 63.4535 21.6277C63.4465 21.6316 63.4387 21.6337 63.4308 21.6337L60.428 21.6114C60.4008 21.6114 60.3808 21.5991 60.3678 21.5745L58.364 17.7582C58.3459 17.7239 58.3174 17.7067 58.2786 17.7067ZM56.6068 12.4254L56.6127 15.369C56.6127 15.3855 56.6192 15.4013 56.6309 15.4129C56.6425 15.4246 56.6583 15.4311 56.6748 15.4311L58.9087 15.4272C59.33 15.4264 59.7337 15.266 60.0312 14.9813C60.3286 14.6966 60.4955 14.3109 60.495 13.9089V13.8739C60.4948 13.6747 60.4534 13.4774 60.3732 13.2935C60.2931 13.1095 60.1757 12.9425 60.0279 12.8018C59.88 12.6612 59.7045 12.5497 59.5115 12.4738C59.3185 12.3979 59.1116 12.359 58.9028 12.3594L56.669 12.3633C56.6608 12.3633 56.6527 12.3649 56.6452 12.368C56.6377 12.3712 56.6308 12.3757 56.625 12.3815C56.6193 12.3873 56.6147 12.3941 56.6116 12.4017C56.6084 12.4092 56.6068 12.4173 56.6068 12.4254Z" fill="#365B6D"/>
<path d="M64.335 9.96236C64.335 9.95257 64.3388 9.94319 64.3458 9.93627C64.3527 9.92935 64.3621 9.92547 64.3718 9.92547L69.4628 9.90702C71.017 9.90163 72.5095 10.4873 73.6121 11.5353C74.7147 12.5833 75.337 14.0076 75.3422 15.4951L75.3441 15.998C75.3467 16.7345 75.1976 17.4643 74.9055 18.1458C74.6134 18.8273 74.1839 19.4471 73.6415 19.9698C73.0992 20.4924 72.4546 20.9078 71.7447 21.1921C71.0347 21.4764 70.2732 21.6241 69.5036 21.6268L64.4126 21.6452C64.4028 21.6452 64.3935 21.6414 64.3865 21.6344C64.3796 21.6275 64.3757 21.6181 64.3757 21.6084L64.335 9.96236ZM67.0445 12.3749V19.1764C67.0445 19.1842 67.0476 19.1916 67.0531 19.197C67.0585 19.2025 67.0659 19.2056 67.0737 19.2056H69.3347C70.2011 19.2056 71.032 18.8748 71.6447 18.286C72.2573 17.6972 72.6015 16.8986 72.6015 16.0659V15.4854C72.6015 14.6527 72.2573 13.8541 71.6447 13.2653C71.032 12.6765 70.2011 12.3457 69.3347 12.3457H67.0737C67.0659 12.3457 67.0585 12.3488 67.0531 12.3543C67.0476 12.3597 67.0445 12.3671 67.0445 12.3749Z" fill="#365B6D"/>
<path d="M79.1869 14.553L83.8779 14.5782C83.8822 14.5782 83.8865 14.5791 83.8905 14.5808C83.8945 14.5824 83.8981 14.5848 83.9012 14.5879C83.9043 14.591 83.9067 14.5946 83.9084 14.5986C83.91 14.6026 83.9109 14.6069 83.9109 14.6113V16.8005C83.9109 16.8092 83.9074 16.8176 83.9012 16.8238C83.895 16.83 83.8866 16.8335 83.8779 16.8335H79.1869C79.1781 16.8335 79.1697 16.8369 79.1635 16.8431C79.1573 16.8493 79.1538 16.8577 79.1538 16.8665V19.1576C79.1538 19.1664 79.1573 19.1748 79.1635 19.181C79.1697 19.1872 79.1781 19.1906 79.1869 19.1906L84.7273 19.2091C84.7361 19.2091 84.7445 19.2126 84.7507 19.2187C84.7569 19.2249 84.7604 19.2333 84.7604 19.2421V21.606C84.7604 21.6148 84.7569 21.6232 84.7507 21.6294C84.7445 21.6356 84.7361 21.639 84.7273 21.639H76.4686C76.4598 21.639 76.4514 21.6356 76.4452 21.6294C76.439 21.6232 76.4355 21.6148 76.4355 21.606L76.4346 9.93091C76.4346 9.92216 76.4381 9.91376 76.4442 9.90757C76.4504 9.90138 76.4588 9.8979 76.4676 9.8979L84.6545 9.89014C84.6633 9.89014 84.6717 9.89362 84.6779 9.89981C84.6841 9.906 84.6875 9.91439 84.6875 9.92315V12.3104C84.6875 12.3192 84.6841 12.3276 84.6779 12.3337C84.6717 12.3399 84.6633 12.3434 84.6545 12.3434H79.1869C79.1781 12.3434 79.1697 12.3469 79.1635 12.3531C79.1573 12.3593 79.1538 12.3677 79.1538 12.3764V14.52C79.1538 14.5288 79.1573 14.5371 79.1635 14.5433C79.1697 14.5495 79.1781 14.553 79.1869 14.553Z" fill="#365B6D"/>
</svg>
