<svg width="95" height="22" viewBox="0 0 95 22" fill="none" xmlns="http://www.w3.org/2000/svg">
<mask id="mask0_13927_9500" style="mask-type:luminance" maskUnits="userSpaceOnUse" x="0" y="0" width="95" height="22">
<path d="M94.3956 0.507324H0.529297V21.8605H94.3956V0.507324Z" fill="white"/>
</mask>
<g mask="url(#mask0_13927_9500)">
<path fill-rule="evenodd" clip-rule="evenodd" d="M78.8111 14.175C78.1343 14.9008 77.2034 15.2637 76.0197 15.2637H74.6411V7.24825H76.0197C77.2034 7.24825 78.1343 7.61057 78.8111 8.33527C79.2824 8.85047 79.5977 9.48867 79.7209 10.1759H82.9037C82.7179 8.81644 82.0507 7.56874 81.0235 6.65958C79.7176 5.47995 78.0496 4.89013 76.0197 4.89013H71.5416V17.6184H76.0197C78.0496 17.6184 79.7176 17.0262 81.0235 15.842C82.0878 14.8765 82.7179 13.4196 82.9143 11.9923H79.7387C79.5977 12.758 79.2925 13.661 78.8111 14.175ZM65.472 17.6201H68.571V4.89187H65.472V17.6201ZM94.3958 7.21349V4.85714H85.3953V10.1776H88.3971V11.994H85.3953V17.6201H94.3958V15.2637H88.4929V12.3117H92.8174V10.2106H88.4943V7.21349H94.3958ZM32.5596 4.71128C30.7273 4.71128 29.1803 5.32481 27.9187 6.5519C26.657 7.779 26.0256 9.33545 26.0244 11.2212C26.0244 13.1047 26.6559 14.6635 27.9187 15.8975C29.1668 17.0847 30.8233 17.7468 32.5458 17.7468C34.2682 17.7468 35.9248 17.0847 37.1728 15.8975C38.4299 14.6646 39.0584 13.1059 39.0584 11.2212C39.0584 9.33661 38.4334 7.78073 37.1832 6.55364C35.932 5.32538 34.3908 4.71128 32.5596 4.71128ZM34.9904 13.885C34.3804 14.5541 33.5643 14.8886 32.5423 14.8886C31.5202 14.8886 30.7042 14.5558 30.0942 13.8902C29.483 13.2269 29.178 12.3389 29.1792 11.2264C29.1803 10.114 29.4853 9.22551 30.0942 8.56098C30.703 7.89535 31.5191 7.56253 32.5423 7.56253C33.5655 7.56253 34.381 7.89535 34.9886 8.56098C35.5998 9.22666 35.9048 10.1151 35.9036 11.2264C35.9025 12.3378 35.5975 13.224 34.9886 13.885H34.9904ZM46.4218 4.89187H41.3989V17.6201H44.498V12.6712H46.42C47.2035 12.6902 47.9832 12.5588 48.7171 12.284C49.2827 12.0817 49.7853 11.7351 50.1756 11.2785C50.7913 10.4798 51.0999 9.65151 51.1008 8.79367C51.1052 8.27274 50.9973 7.757 50.7851 7.28146C50.5723 6.80592 50.2594 6.38179 49.8681 6.03795C49.043 5.27505 47.8935 4.89302 46.42 4.89187H46.4218ZM47.5365 9.89634C47.3893 10.0388 47.2144 10.1493 47.0226 10.221C46.8308 10.2927 46.6262 10.3241 46.4218 10.3131H44.498V7.24825H46.42C46.6245 7.23915 46.8286 7.27309 47.0191 7.34784C47.2097 7.42265 47.3823 7.53659 47.526 7.68234C47.6658 7.83171 47.7745 8.00731 47.846 8.19894C47.9176 8.39058 47.9504 8.59448 47.9427 8.79887C47.952 8.99984 47.9207 9.20067 47.8506 9.38922C47.7805 9.57777 47.6731 9.75029 47.5347 9.89634H47.5365ZM61.4767 11.2212C61.094 10.9714 60.6829 10.7674 60.2526 10.6135C59.8097 10.4515 59.3591 10.3124 58.9018 10.1968C58.4489 10.0804 58.0339 9.9606 57.6691 9.83381C57.3321 9.72545 57.025 9.53926 56.7733 9.2903C56.6558 9.16582 56.5643 9.01895 56.5046 8.85846C56.445 8.69798 56.4185 8.52714 56.4262 8.35611C56.4156 8.18932 56.4435 8.02238 56.508 7.8682C56.5725 7.71406 56.6717 7.57678 56.7973 7.46703C57.0683 7.2547 57.4053 7.14576 57.749 7.15968C57.9247 7.15332 58.0999 7.18302 58.264 7.24695C58.4282 7.31082 58.5769 7.40763 58.7021 7.53129C58.9683 7.82295 59.1247 8.19798 59.1449 8.59227H62.5169C62.4818 7.2494 62.0408 6.26539 61.1936 5.64029C60.3464 5.01516 59.2374 4.70375 57.8669 4.70607C56.4955 4.70607 55.3686 5.06262 54.4868 5.77575C54.0583 6.11295 53.7151 6.54632 53.4855 7.04073C53.2554 7.53519 53.1452 8.07682 53.1635 8.62178C53.1519 9.16307 53.2708 9.69922 53.511 10.1846C53.7147 10.5965 54.0242 10.9466 54.4083 11.1987C54.7915 11.4433 55.1987 11.647 55.6237 11.8064C56.0656 11.9744 56.5167 12.1164 56.9745 12.2319C57.4279 12.3482 57.8428 12.4715 58.2072 12.6034C58.5428 12.7176 58.8489 12.9037 59.105 13.1487C59.22 13.2652 59.3105 13.404 59.3702 13.5565C59.4299 13.7091 59.4578 13.8723 59.452 14.036C59.4569 14.2042 59.4256 14.3714 59.3601 14.5264C59.2942 14.6813 59.196 14.8202 59.0723 14.9338C58.7791 15.1805 58.4022 15.3049 58.02 15.2811C57.065 15.2811 56.5441 14.7734 56.4575 13.7582H53.1582C53.1582 15.0316 53.5967 16.0104 54.4728 16.6946C55.3489 17.3787 56.5032 17.7231 57.9348 17.7277C59.3678 17.7277 60.5216 17.344 61.3968 16.5765C62.2719 15.809 62.7099 14.8875 62.7114 13.8121C62.7249 13.2627 62.606 12.7182 62.3638 12.2249C62.1583 11.8199 61.8521 11.4743 61.4748 11.2212H61.4767Z" fill="#BFFE00"/>
<path fill-rule="evenodd" clip-rule="evenodd" d="M5.3351 6.05879L2.50503 4.00802C2.07602 4.72035 1.71113 5.46941 1.41467 6.24633L4.73089 7.31944C4.90373 6.88611 5.10559 6.46492 5.3351 6.05879ZM8.05581 2.91753L5.50178 0.507324C4.71697 1.16627 4.00614 1.90863 3.38183 2.7213L6.20322 4.76511C6.74163 4.0747 7.36394 3.45406 8.05581 2.91753ZM4.25863 8.81105L0.94415 7.73794C0.737925 8.54057 0.603129 9.3599 0.541341 10.1863H4.03292C4.07781 9.72343 4.15321 9.26401 4.25863 8.81105ZM4.58505 14.7428L1.27404 15.8159C1.55475 16.6191 1.90931 17.3946 2.33314 18.1324L5.1719 16.0764C4.94534 15.6431 4.74925 15.1946 4.58505 14.7341V14.7428ZM5.99489 17.403L3.18043 19.4399C3.83393 20.3367 4.59161 21.1528 5.43756 21.8709L7.98635 19.4642C7.23185 18.8676 6.56194 18.1713 5.99489 17.3943V17.403ZM4.00861 12.0026H0.536133C0.575814 12.7822 0.680936 13.5571 0.850392 14.3191L4.18224 13.2408C4.1011 12.8287 4.04313 12.4125 4.00861 11.994V12.0026Z" fill="#BFFE00"/>
<path fill-rule="evenodd" clip-rule="evenodd" d="M14.4602 4.46997C12.851 4.47062 11.2951 5.04631 10.0729 6.09322C8.85069 7.14009 8.04277 8.58929 7.79482 10.1794H11.2135C11.4628 9.39293 11.9887 8.72355 12.6938 8.29523C13.3989 7.86691 14.2353 7.70878 15.0481 7.85006C15.8608 7.99139 16.5948 8.4226 17.114 9.06378C17.6332 9.70496 17.9023 10.5126 17.8716 11.3371C17.8409 12.1616 17.5123 12.947 16.9468 13.5477C16.3814 14.1485 15.6173 14.5239 14.7963 14.6042C13.9753 14.6846 13.1529 14.4647 12.4817 13.985C11.8104 13.5054 11.3358 12.7986 11.1457 11.9958H7.77051C7.92185 13.2868 8.44322 14.5067 9.27179 15.5082C10.1004 16.5097 11.2009 17.2503 12.4407 17.6407C13.6805 18.031 15.0067 18.0546 16.2595 17.7084C17.5124 17.3623 18.6384 16.6612 19.502 15.6897C20.3656 14.7181 20.9299 13.5176 21.1269 12.2327C21.3239 10.9478 21.1453 9.63328 20.6125 8.44758C20.0797 7.26188 19.2154 6.25558 18.1239 5.54985C17.0323 4.84412 15.76 4.4691 14.4602 4.46997Z" fill="#BFFE00"/>
</g>
</svg>
