<svg width="101" height="15" viewBox="0 0 101 15" fill="none" xmlns="http://www.w3.org/2000/svg">
<path d="M5.24161 14.33C3.77354 14.33 2.55817 13.9771 1.59952 13.2671C0.640861 12.5611 0.183594 11.5463 0.183594 10.2828C0.183594 10.0301 0.235738 9.67716 0.283872 9.27204C0.436294 8.36151 0.688994 7.29857 0.993839 6.03507C1.85222 2.64167 4.03025 0.920898 7.57206 0.920898C8.53473 0.920898 9.39311 1.07332 10.1512 1.4263C10.9093 1.73114 11.519 2.1844 11.9723 2.84222C12.4295 3.4479 12.6301 4.21001 12.6301 5.06839C12.6301 5.32109 12.5779 5.67407 12.5298 6.03106C12.3292 7.14214 12.1247 8.20508 11.872 9.26803C11.4147 10.9888 10.6566 12.2523 9.59367 13.0625C8.53072 13.8728 7.06265 14.33 5.29375 14.33H5.24161ZM5.49431 11.6466C6.20427 11.6466 6.80995 11.4461 7.26321 11.0409C7.76861 10.6358 8.12159 10.0301 8.32615 9.16775C8.631 8.00452 8.83155 6.99372 8.98398 6.13133C9.03612 5.87863 9.03612 5.62593 9.03612 5.32109C9.03612 4.21001 8.43044 3.65247 7.26722 3.65247C6.55725 3.65247 5.95157 3.85302 5.44617 4.25814C4.94077 4.66327 4.5878 5.26895 4.38323 6.13133C4.18267 6.94158 3.92596 7.95238 3.72541 9.16775C3.67326 9.42045 3.67326 9.67716 3.67326 9.92986C3.67326 11.0931 4.28295 11.6466 5.49431 11.6466Z" fill="#FF0420"/>
<path d="M14.5028 14.178C14.3504 14.178 14.2501 14.1259 14.198 14.0256C14.1458 13.9253 14.0977 13.8251 14.1458 13.6726L16.725 1.57913C16.7771 1.42671 16.8252 1.32643 16.9255 1.22615C17.0258 1.12587 17.1782 1.07373 17.2785 1.07373H22.2884C23.6562 1.07373 24.7672 1.37858 25.6256 1.93211C26.484 2.48564 26.8971 3.35204 26.8971 4.41499C26.8971 4.71983 26.845 5.02067 26.7969 5.37766C26.492 6.79358 25.8342 7.85652 24.9237 8.51435C23.961 9.17217 22.6975 9.52515 21.077 9.52515H18.546L17.6876 13.5724C17.6876 13.7248 17.5873 13.8251 17.4871 13.9253C17.3868 14.0256 17.2344 14.0778 17.1341 14.0778H14.6031L14.5028 14.178ZM21.1292 7.09441C21.6346 7.09441 22.0918 6.94199 22.497 6.68929C22.9021 6.38444 23.1548 5.97932 23.3072 5.47392C23.3593 5.27337 23.3593 5.0688 23.3593 4.91638C23.3593 4.5634 23.2591 4.3107 23.0545 4.10613C22.8499 3.90157 22.497 3.80129 21.9434 3.80129H19.7173L19.0073 7.13853H21.1813L21.1292 7.09441Z" fill="#FF0420"/>
<path d="M31.0959 14.1778C30.9435 14.1778 30.8432 14.1256 30.7911 14.0254C30.739 13.9251 30.6908 13.8248 30.739 13.6724L32.8127 4.05775H29.4755C29.323 4.05775 29.2228 4.00561 29.1706 3.90533C29.1185 3.80505 29.0703 3.70478 29.1185 3.55235L29.5757 1.57889C29.6279 1.42646 29.676 1.32619 29.7763 1.22591C29.8766 1.12563 30.029 1.07349 30.1293 1.07349H40.1972C40.3496 1.07349 40.4499 1.12563 40.502 1.22591C40.5542 1.27805 40.5542 1.37833 40.5542 1.42646C40.5542 1.4746 40.5542 1.47861 40.5542 1.52674L40.0969 3.50021C40.0969 3.65263 39.9966 3.75291 39.8963 3.85319C39.7961 3.95347 39.6958 4.00561 39.5434 4.00561H36.2061L34.1324 13.6202C34.0802 13.7727 34.0321 13.8729 33.9318 13.9732C33.8315 14.0735 33.6791 14.1256 33.5788 14.1256H31.1V14.1778H31.0959Z" fill="#FF0420"/>
<path d="M41.0135 14.178C40.8611 14.178 40.7608 14.1259 40.7087 14.0256C40.6566 13.9253 40.6084 13.8251 40.6566 13.6726L43.2878 1.57913C43.2878 1.42671 43.3881 1.32643 43.4884 1.22615C43.5887 1.12587 43.7411 1.07373 43.8414 1.07373H46.3724C46.5248 1.07373 46.6251 1.12587 46.6772 1.22615C46.7294 1.2783 46.7294 1.37858 46.7294 1.42671C46.7294 1.47484 46.7294 1.47885 46.7294 1.52699L44.1502 13.6205C44.1502 13.7729 44.05 13.8732 43.9497 13.9735C43.8494 14.0737 43.697 14.1259 43.5967 14.1259H41.0657L41.0135 14.178Z" fill="#FF0420"/>
<path d="M48.1962 14.1774C48.0437 14.1774 47.9435 14.1253 47.8913 14.025C47.8392 13.9247 47.791 13.8245 47.8392 13.672L50.4183 1.57854C50.4183 1.42612 50.5186 1.32584 50.6189 1.22556C50.7192 1.12529 50.8716 1.07314 50.9719 1.07314H52.9975C53.3023 1.07314 53.5029 1.22556 53.555 1.47826L55.5806 7.34652L60.1332 1.47826C60.1854 1.37799 60.2857 1.27771 60.3859 1.17342C60.4862 1.06913 60.6386 1.021 60.8432 1.021H62.8688C63.0212 1.021 63.1215 1.07314 63.1737 1.17342C63.2258 1.22556 63.2258 1.32584 63.2258 1.37397C63.2258 1.42211 63.2258 1.42612 63.2258 1.47425L60.6467 13.5678C60.6467 13.7202 60.5464 13.8205 60.4461 13.9207C60.3458 14.021 60.1934 14.0732 60.0931 14.0732H57.8148C57.6624 14.0732 57.5621 14.021 57.51 13.9207C57.4578 13.8205 57.4097 13.7202 57.4578 13.5678L58.9259 6.73683L56.0419 10.5313C55.9416 10.6838 55.7892 10.784 55.6889 10.8362C55.5886 10.8883 55.4362 10.9365 55.2838 10.9365H54.3211C54.0684 10.9365 53.8639 10.784 53.7636 10.5313L52.4479 6.58842L50.9317 13.6199C50.8796 13.7723 50.8315 13.8726 50.7312 13.9729C50.6309 14.0732 50.4785 14.1253 50.3782 14.1253H48.152L48.1962 14.1774Z" fill="#FF0420"/>
<path d="M64.743 14.1778C64.5906 14.1778 64.4903 14.1256 64.4382 14.0254C64.3861 13.9251 64.3379 13.8248 64.386 13.6724L67.0173 1.57889C67.0695 1.42646 67.1176 1.32619 67.2179 1.22591C67.3182 1.12563 67.4706 1.07349 67.5709 1.07349H70.1019C70.2543 1.07349 70.3546 1.12563 70.4067 1.22591C70.4589 1.27805 70.4589 1.37833 70.4589 1.42646C70.4589 1.4746 70.4589 1.47861 70.4589 1.52674L67.8797 13.6202C67.8797 13.7727 67.7794 13.8729 67.6792 13.9732C67.5789 14.0735 67.4265 14.1256 67.3262 14.1256H64.7952L64.743 14.1778Z" fill="#FF0420"/>
<path d="M76.4779 14.3302C75.3668 14.3302 74.4523 14.1778 73.6461 13.8729C72.888 13.5681 72.2783 13.163 71.8772 12.7097C71.472 12.2043 71.2715 11.6468 71.2715 11.0411C71.2715 10.9408 71.2715 10.7884 71.3236 10.5838C71.3758 10.4835 71.4239 10.3833 71.4761 10.279C71.5763 10.2268 71.6766 10.1787 71.7809 10.1787H74.1595C74.3119 10.1787 74.4122 10.1787 74.5125 10.2308C74.6127 10.283 74.6649 10.3833 74.7652 10.4835C74.8654 10.7884 75.07 11.0892 75.3708 11.2938C75.6717 11.4983 76.1289 11.5986 76.6865 11.5986C77.3965 11.5986 77.95 11.4983 78.4073 11.2456C78.8645 11.0451 79.1172 10.7402 79.2175 10.3351C79.2175 10.283 79.2175 10.2348 79.2175 10.1346C79.2175 9.82972 79.0169 9.57702 78.66 9.4246C78.2548 9.22404 77.5489 9.01947 76.5341 8.76677C75.3187 8.51407 74.4082 8.10895 73.8025 7.60355C73.1968 7.04601 72.8398 6.38818 72.8398 5.52981C72.8398 5.22496 72.892 4.92413 72.9401 4.61928C73.1928 3.45606 73.7985 2.54554 74.8133 1.88772C75.8281 1.22989 77.0916 0.925049 78.66 0.925049C79.6226 0.925049 80.4289 1.07747 81.191 1.43045C81.9531 1.78343 82.5066 2.18855 82.9117 2.69395C83.3169 3.19935 83.5174 3.70475 83.5174 4.21015C83.5174 4.36257 83.5174 4.46285 83.5174 4.51499C83.5174 4.61527 83.4171 4.71555 83.365 4.81984C83.3128 4.87198 83.2126 4.92012 83.0601 4.92012H80.5251C80.2724 4.92012 80.0679 4.81984 79.9676 4.61527C79.9676 4.31043 79.8152 4.10987 79.5103 3.90531C79.2055 3.70074 78.8525 3.60046 78.3992 3.60046C77.8417 3.60046 77.3884 3.70074 77.0314 3.90531C76.6745 4.10987 76.4739 4.41071 76.3736 4.76368C76.3736 4.81583 76.3736 4.91611 76.3736 5.01638C76.3736 5.32123 76.526 5.57393 76.879 5.77448C77.232 5.97504 77.8898 6.12746 78.7522 6.33203C80.1681 6.58473 81.1789 6.98985 81.7886 7.49525C82.4464 8.00065 82.7513 8.65847 82.7513 9.52086C82.7513 9.82571 82.6991 10.1265 82.651 10.4314C82.3983 11.6949 81.6883 12.6576 80.6254 13.3154C79.5625 13.9732 78.1465 14.278 76.4258 14.278L76.4779 14.3302Z" fill="#FF0420"/>
<path d="M85.3348 14.1774C85.1824 14.1774 85.0821 14.1253 85.03 14.025C84.9778 13.9247 84.9297 13.8245 84.9778 13.672L87.557 1.57854C87.557 1.42612 87.6573 1.32584 87.7575 1.22556C87.8578 1.12529 88.0103 1.07314 88.1105 1.07314H90.1361C90.441 1.07314 90.6415 1.22556 90.6937 1.47826L92.7193 7.34652L97.2719 1.47826C97.3241 1.37799 97.4243 1.27771 97.5246 1.17342C97.6249 1.06913 97.7773 1.021 97.9819 1.021H100.007C100.16 1.021 100.26 1.07314 100.312 1.17342C100.364 1.22556 100.364 1.32584 100.364 1.37397C100.364 1.42211 100.364 1.42612 100.364 1.47425L97.7853 13.5678C97.7332 13.7202 97.6851 13.8205 97.5848 13.9207C97.4845 14.021 97.3321 14.0732 97.2318 14.0732H94.9535C94.8011 14.0732 94.7008 14.021 94.6486 13.9207C94.5965 13.8205 94.5484 13.7202 94.5965 13.5678L96.0646 6.73683L93.1806 10.5313C93.0803 10.6838 92.9279 10.784 92.8276 10.8362C92.7273 10.8883 92.5749 10.9365 92.4225 10.9365H91.4598C91.2071 10.9365 91.0025 10.784 90.9023 10.5313L89.5866 6.58441L88.0664 13.6199C88.0143 13.7723 87.9661 13.8726 87.8658 13.9729C87.7656 14.0732 87.6131 14.1253 87.5129 14.1253H85.2867L85.3348 14.1774Z" fill="#FF0420"/>
</svg>
