<svg width="129" height="28" viewBox="0 0 129 28" fill="none" xmlns="http://www.w3.org/2000/svg">
<g clip-path="url(#clip0_9816_16282)">
<path d="M6.93594 21.4414L3.46973 27.4489H27.0785L23.6098 21.4414H6.93594Z" fill="black"/>
<path d="M15.2733 6.99965L11.807 0.992188L-0.000976562 21.4414H6.93633L15.2733 6.99965Z" fill="black"/>
<path d="M23.6104 21.4417H30.5501L18.7421 0.992432L15.2734 6.99989L23.6104 21.4417Z" fill="black"/>
<path d="M15.2764 20.4073C17.3507 20.4073 19.0323 18.7257 19.0323 16.6514C19.0323 14.5771 17.3507 12.8955 15.2764 12.8955C13.2021 12.8955 11.5205 14.5771 11.5205 16.6514C11.5205 18.7257 13.2021 20.4073 15.2764 20.4073Z" fill="black"/>
<path d="M42.0883 5.05981C45.1602 5.05981 47.1415 6.77345 47.3192 9.55567H45.1163C45.0044 7.95401 43.8701 7.01686 42.0664 7.01686C40.0412 7.01686 38.7267 8.04164 38.7267 9.6214C38.7267 10.9139 39.4618 11.6928 40.9759 12.0482L43.6242 12.6714C46.2506 13.2726 47.587 14.6966 47.587 16.9676C47.587 19.8618 45.3378 21.7093 41.9106 21.7093C38.4833 21.7093 36.4581 19.9957 36.3242 17.2354H38.549C38.5928 18.7713 39.8854 19.7523 41.9106 19.7523C44.0477 19.7523 45.406 18.7494 45.406 17.1478C45.406 15.8796 44.7147 15.0763 43.1788 14.7209L40.5304 14.1197C37.904 13.5185 36.5457 12.0044 36.5457 9.68955C36.5457 6.92923 38.7705 5.05981 42.0883 5.05981Z" fill="black"/>
<path d="M48.8564 21.4224V5.06006H50.9498V12.2286C51.6387 11.048 52.9531 10.2472 54.6448 10.2472C57.4271 10.2472 58.7634 12.0047 58.7634 14.7893V21.4443H56.67V15.2567C56.67 13.0538 55.6234 12.1629 54.0655 12.1629C52.0403 12.1629 50.9498 13.6331 50.9498 15.5025V21.4248H48.8564V21.4224Z" fill="black"/>
<path d="M60.0088 18.4163C60.0088 16.413 61.5009 15.1667 64.0592 14.9671L67.4865 14.6994V14.3878C67.4865 12.5622 66.396 11.9171 64.9257 11.9171C63.1683 11.9171 62.1654 12.6961 62.1654 14.0105H60.3398C60.3398 11.7394 62.2092 10.2473 65.0134 10.2473C67.8175 10.2473 69.5311 11.6713 69.5311 14.6093V21.4419H67.7493L67.5278 19.6845C66.9704 20.9308 65.4807 21.7097 63.7208 21.7097C61.3841 21.7097 60.0039 20.3977 60.0039 18.4163H60.0088ZM67.5108 16.7465V16.1671L64.7286 16.3887C62.8811 16.5663 62.124 17.2796 62.124 18.3481C62.124 19.5068 62.9711 20.0837 64.3269 20.0837C66.3083 20.0837 67.5108 18.7936 67.5108 16.744V16.7465Z" fill="black"/>
<path d="M77.5512 12.3845H76.6165C74.6351 12.3845 73.4107 13.587 73.4107 15.6779V21.4419H71.3174V10.5784H73.2769L73.4107 12.2263C73.8562 11.092 74.9467 10.335 76.4388 10.335C76.8161 10.335 77.1277 10.3788 77.5512 10.4688V12.3821V12.3845Z" fill="black"/>
<path d="M77.2822 16.0354C77.2822 12.6957 79.2198 10.247 82.4475 10.247C84.1173 10.247 85.5194 10.9821 86.2545 12.316V5.05981H88.3235V21.444H86.4541L86.2764 19.4626C85.5632 20.9548 84.0954 21.7118 82.3598 21.7118C79.1979 21.7118 77.2847 19.3531 77.2847 16.0354H77.2822ZM86.2301 15.9696C86.2301 13.7424 84.9157 12.1407 82.781 12.1407C80.6462 12.1407 79.3975 13.7424 79.3975 15.9696C79.3975 18.1969 80.6438 19.8204 82.781 19.8204C84.9181 19.8204 86.2301 18.2407 86.2301 15.9696Z" fill="black"/>
<path d="M89.5234 16.0136C89.5234 12.6082 91.6825 10.2495 94.8445 10.2495C98.0064 10.2495 99.9635 12.3867 99.9635 15.6144V16.3933L91.5486 16.4152C91.7044 18.7082 92.9069 19.9763 94.9759 19.9763C96.6019 19.9763 97.6705 19.3094 98.0259 18.0631H99.9854C99.4523 20.3999 97.6267 21.7143 94.9321 21.7143C91.7263 21.7143 89.5234 19.3994 89.5234 16.016V16.0136ZM91.5925 15.0131H97.8701C97.8701 13.2094 96.6896 12.007 94.842 12.007C92.9945 12.007 91.8602 13.0975 91.5925 15.0131Z" fill="black"/>
<path d="M110.782 10.5586V21.4441H108.912L108.691 19.7962C108.067 20.9329 106.622 21.7094 105.017 21.7094C102.479 21.7094 101.055 19.9958 101.055 17.3255V10.5586H103.148V16.6366C103.148 18.9734 104.148 19.8643 105.753 19.8643C107.666 19.8643 108.712 18.6399 108.712 16.3032V10.561H110.782V10.5586Z" fill="black"/>
<path d="M112.695 21.4446V10.5591H114.564L114.764 11.9831C115.321 10.9583 116.477 10.2476 118.013 10.2476C119.705 10.2476 120.908 11.0922 121.463 12.4505C121.974 11.0922 123.288 10.2476 124.98 10.2476C127.472 10.2476 128.987 11.8054 128.987 14.3223V21.4446H126.939V14.8335C126.939 13.1198 125.983 12.1413 124.513 12.1413C122.933 12.1413 121.886 13.2537 121.886 14.9917V21.447H119.817V14.814C119.817 13.1004 118.882 12.1657 117.412 12.1657C115.832 12.1657 114.786 13.2562 114.786 14.9917V21.447H112.692L112.695 21.4446Z" fill="black"/>
</g>
<defs>
<clipPath id="clip0_9816_16282">
<rect width="128.99" height="26.4567" fill="white" transform="translate(0 0.992676)"/>
</clipPath>
</defs>
</svg>
