<svg width="126" height="38" viewBox="0 0 126 38" fill="none" xmlns="http://www.w3.org/2000/svg">
<path d="M39.1331 21.9021C39.9975 22.495 41.0133 22.8285 42.0609 22.8633C43.269 22.8633 43.7496 22.3827 43.7496 21.7522C43.7496 21.1216 43.3087 20.7777 41.5979 20.2971C39.3447 19.6666 38.1719 18.8729 38.1719 17.2855C38.1719 15.5218 39.4947 14.3401 42.0432 14.3401C44.6888 14.3401 45.8044 15.3631 45.8044 15.3631L44.7241 17.0033C43.9368 16.4582 43.0008 16.1688 42.0432 16.1744C40.9541 16.1744 40.4206 16.558 40.4206 17.1665C40.4206 17.775 40.9365 18.0484 42.493 18.4584C44.9269 19.1066 46.0204 19.9664 46.0204 21.5714C46.0204 23.3086 44.8123 24.702 42.0961 24.702C39.38 24.702 38.0264 23.4277 38.0264 23.4277L39.1331 21.9021ZM56.7923 14.5518H59.1116L55.3549 20.6939V24.4859H53.3487V20.6763L49.6272 14.5518H51.9421L53.9968 18.0131L54.279 18.6436H54.4598L54.7596 18.0131L56.7923 14.5518ZM63.662 21.9021C64.5282 22.4947 65.5453 22.8281 66.5942 22.8633C67.8023 22.8633 68.283 22.3827 68.283 21.7522C68.283 21.1216 67.842 20.7777 66.1312 20.2971C63.8781 19.6666 62.7052 18.8729 62.7052 17.2855C62.7052 15.5218 64.028 14.3401 66.5766 14.3401C69.2221 14.3401 70.3333 15.3631 70.3333 15.3631L69.2795 17.0033C68.4922 16.4582 67.5562 16.1688 66.5986 16.1744C65.5051 16.1744 64.976 16.558 64.976 17.1665C64.976 17.775 65.4875 18.0484 67.0439 18.4584C69.4779 19.1066 70.5714 19.9664 70.5714 21.5714C70.5714 23.3086 69.3632 24.702 66.6471 24.702C63.931 24.702 62.5729 23.4277 62.5729 23.4277L63.662 21.9021ZM83.7596 23.4762C83.7596 23.4762 82.6484 24.702 80.2321 24.702C76.9869 24.702 74.941 22.3827 74.941 19.5211C74.941 16.6594 76.9781 14.3401 80.2321 14.3401C82.6484 14.3401 83.7596 15.5615 83.7596 15.5615L82.6176 17.1004C81.9505 16.589 81.1424 16.295 80.3027 16.2582C79.8712 16.2432 79.4413 16.3176 79.0398 16.4766C78.6384 16.6355 78.2742 16.8757 77.9699 17.182C77.6656 17.4884 77.4279 17.8543 77.2717 18.2567C77.1154 18.6592 77.044 19.0897 77.0619 19.5211C77.0434 19.9532 77.1144 20.3845 77.2703 20.788C77.4262 21.1914 77.6636 21.5584 77.9678 21.8659C78.272 22.1734 78.6364 22.4148 79.0381 22.575C79.4399 22.7353 79.8704 22.8109 80.3027 22.7972C81.1656 22.8117 82.0015 22.4963 82.6396 21.9153L83.7596 23.4762ZM87.6794 19.5078C87.6794 16.6418 89.6857 14.3269 92.9309 14.3269C96.1762 14.3269 98.1912 16.6418 98.1912 19.5078C98.1912 22.3739 96.1762 24.724 92.9309 24.724C89.6857 24.724 87.6794 22.3827 87.6794 19.5211V19.5078ZM96.1409 19.5078C96.1568 19.0783 96.086 18.65 95.9327 18.2485C95.7793 17.847 95.5466 17.4806 95.2484 17.1711C94.9502 16.8616 94.5926 16.6154 94.1971 16.4472C93.8015 16.2791 93.3761 16.1924 92.9464 16.1924C92.5166 16.1924 92.0912 16.2791 91.6956 16.4472C91.3001 16.6154 90.9425 16.8616 90.6443 17.1711C90.3461 17.4806 90.1134 17.847 89.96 18.2485C89.8067 18.65 89.7359 19.0783 89.7518 19.5078C89.7359 19.9373 89.8067 20.3656 89.96 20.7671C90.1134 21.1686 90.3461 21.5351 90.6443 21.8446C90.9425 22.1541 91.3001 22.4003 91.6956 22.5684C92.0912 22.7366 92.5166 22.8233 92.9464 22.8233C93.3761 22.8233 93.8015 22.7366 94.1971 22.5684C94.5926 22.4003 94.9502 22.1541 95.2484 21.8446C95.5466 21.5351 95.7793 21.1686 95.9327 20.7671C96.086 20.3656 96.1568 19.9373 96.1409 19.5078ZM105.277 24.4727H103.275V14.5518H105.277V24.4727ZM120.127 24.4727H119.647L112.993 18.4276V24.4859H110.987V14.5518H111.485L118.139 20.4779V14.5826H120.127V24.4727Z" fill="#1F5EFF"/>
<path fill-rule="evenodd" clip-rule="evenodd" d="M27.8321 27.6339C27.1542 28.2189 26.415 28.729 25.6275 29.1551C25.7774 29.0361 25.3056 28.5422 25.4511 28.4144C29.0138 25.3278 29.8251 21.3286 28.3877 17.832C28.1937 17.3602 28.6037 17.1707 28.6037 16.7341C31.9195 19.825 31.5668 24.4063 27.8321 27.6339Z" fill="#1F5EFF"/>
<path fill-rule="evenodd" clip-rule="evenodd" d="M28.639 16.7211C27.1895 15.4255 25.4436 14.5064 23.5551 14.0447C24.2782 14.2343 24.3311 15.0676 24.8294 15.4909C25.892 16.3728 26.1786 17.5412 26.2888 19.0669C26.452 21.3332 26.4388 23.5732 24.7853 25.5706C23.9129 26.6668 22.7953 27.5427 21.5224 28.128L21.2182 28.2514C21.2036 28.254 21.1887 28.254 21.1741 28.2514C20.5017 28.5192 19.8046 28.72 19.0929 28.8511C16.412 29.3582 12.8581 29.1465 8.56348 27.7796C11.8058 30.3015 15.9157 31.4352 19.9924 30.9323C20.2834 30.9014 20.5656 30.8573 20.8478 30.8088C21.9476 30.6173 23.0238 30.3083 24.0577 29.8873C24.5975 29.6704 25.1233 29.4201 25.6319 29.1377C25.7818 29.0186 25.9317 28.8952 26.0728 28.7673C30.147 25.2707 31.0641 20.4999 28.639 16.7211Z" fill="#1F5EFF"/>
<path fill-rule="evenodd" clip-rule="evenodd" d="M21.2191 28.2513C26.2546 26.2098 26.5103 21.02 20.69 18.1099C16.4483 15.989 18.3222 12.6203 23.5561 14.0534C29.4072 15.5834 27.6788 25.7689 21.2191 28.2513Z" fill="#1F5EFF"/>
<path fill-rule="evenodd" clip-rule="evenodd" d="M29.0271 11.2445C23.5066 9.48078 19.2252 9.63951 16.4165 10.7683H16.3724C12.1968 12.4879 11.3061 16.3461 14.4808 19.2959C13.643 18.6036 12.6906 17.8629 12.2762 16.9281C11.7527 15.6889 11.5877 14.3277 11.8 12.9994C11.9595 12.1183 12.3213 11.2862 12.8569 10.5685C13.3924 9.85085 14.0872 9.26721 14.8865 8.86348C15.7406 8.46736 16.6509 8.20559 17.585 8.08744C19.6061 7.8346 21.6573 7.98332 23.6208 8.52509C25.5843 9.06686 27.4216 9.991 29.0271 11.2445Z" fill="#1F5EFF"/>
<path fill-rule="evenodd" clip-rule="evenodd" d="M15.416 25.2748C15.0545 25.1558 14.6444 25.1029 14.3093 24.9662C10.0455 23.251 7.7703 20.063 7.84966 16.9148C7.91139 14.6793 9.22096 12.4129 11.3771 10.5478C12.0503 10.0156 12.7688 9.54351 13.5244 9.1368C14.5579 8.71522 15.6342 8.40769 16.7344 8.21967C17.021 8.16675 17.312 8.12707 17.6163 8.0918C17.2831 8.14036 16.9532 8.20957 16.6286 8.29903C11.1081 9.79819 10.7818 16.2358 14.4945 19.3223C15.2244 19.9778 16.0421 20.5284 16.924 20.9581C20.7777 22.8629 19.5784 25.8128 15.416 25.2748Z" fill="#1F5EFF"/>
<path fill-rule="evenodd" clip-rule="evenodd" d="M15.4157 25.275C14.954 25.213 14.4972 25.1187 14.0488 24.9928C5.87394 22.7617 4.67462 15.817 9.75413 11.4033C10.8771 10.4473 12.1491 9.68169 13.5197 9.13696C12.8007 9.55756 12.1218 10.0431 11.4914 10.5876C6.08118 15.2879 7.15705 22.5985 15.4157 25.275Z" fill="#1F5EFF"/>
</svg>
