<svg width="69" height="23" viewBox="0 0 69 23" fill="none" xmlns="http://www.w3.org/2000/svg">
<g clip-path="url(#clip0_9816_16316)">
<path d="M7.71647 21.8539H9.94071V19.8608H7.8609C6.1277 19.8608 5.5211 18.9075 5.5211 17.2899V8.76844H10.1429V6.83302H5.5211V2.47119H3.38351V6.08199C3.38351 6.57307 3.06575 6.83302 2.66134 6.83302H0.408203V8.76844H3.23907V17.3188C3.23907 20.3519 4.94337 21.8539 7.71647 21.8539Z" fill="#15166D"/>
<path d="M20.5349 22.2295C24.059 22.2295 26.6876 20.2363 27.5254 17.4343H25.1567C24.4634 19.1964 22.5569 20.1497 20.5637 20.1497C17.4729 20.1497 15.5375 18.1565 15.422 15.1523H27.6698V14.1413C27.6698 9.80834 24.9545 6.45752 20.3904 6.45752C16.2886 6.45752 13.0244 9.54835 13.0244 14.3435C13.0244 18.8498 15.9419 22.2295 20.5349 22.2295ZM15.4797 13.1303C15.7108 10.3572 17.8773 8.53733 20.3904 8.53733C22.9324 8.53733 25.0411 10.1261 25.2433 13.1303H15.4797Z" fill="#15166D"/>
<path d="M33.8278 21.8542H34.9254V19.8322H34.2321C33.51 19.8322 33.1344 19.3989 33.1344 18.6478V0.189453H30.8525V18.6478C30.8525 20.6988 31.9502 21.8542 33.8278 21.8542Z" fill="#15166D"/>
<path d="M62.2258 22.2295C65.7209 22.2295 68.0607 20.323 68.0607 17.4921C68.0607 11.2816 59.0481 14.459 59.0481 10.646C59.0481 9.34617 60.2613 8.4218 62.1389 8.4218C64.132 8.4218 65.201 9.37504 65.4032 10.7905H67.5984C67.3673 8.07516 65.0565 6.45752 62.2834 6.45752C59.1347 6.45752 56.8529 8.10404 56.8529 10.646C56.8529 16.5966 65.8364 13.3902 65.8364 17.6077C65.8364 19.1386 64.5943 20.2363 62.3411 20.2363C60.1458 20.2363 58.8749 19.2831 58.6149 17.4921H56.3906C56.6507 20.2941 58.6725 22.2295 62.2258 22.2295Z" fill="#15166D"/>
<path d="M45.3332 22.1927C49.7338 22.1927 53.3011 18.6254 53.3011 14.2248C53.3011 9.82421 49.7338 6.25684 45.3332 6.25684C40.9326 6.25684 37.3652 9.82421 37.3652 14.2248C37.3652 18.6254 40.9326 22.1927 45.3332 22.1927Z" fill="url(#paint0_linear_9816_16316)"/>
<g filter="url(#filter0_d_9816_16316)">
<path d="M45.3342 22.1923C49.7347 22.1923 53.3021 18.6249 53.3021 14.2243C53.3021 9.82372 49.7347 6.25635 45.3342 6.25635C40.9336 6.25635 37.3662 9.82372 37.3662 14.2243C37.3662 18.6249 40.9336 22.1923 45.3342 22.1923Z" fill="url(#paint1_linear_9816_16316)"/>
</g>
<path d="M45.3316 22.0284C49.6417 22.0284 53.1358 18.5343 53.1358 14.2241C53.1358 9.91399 49.6417 6.41992 45.3316 6.41992C41.0214 6.41992 37.5273 9.91399 37.5273 14.2241C37.5273 18.5343 41.0214 22.0284 45.3316 22.0284Z" stroke="url(#paint2_linear_9816_16316)" stroke-opacity="0.12" stroke-width="0.111586"/>
</g>
<defs>
<filter id="filter0_d_9816_16316" x="35.1345" y="5.36366" width="18.1673" height="17.7212" filterUnits="userSpaceOnUse" color-interpolation-filters="sRGB">
<feFlood flood-opacity="0" result="BackgroundImageFix"/>
<feColorMatrix in="SourceAlpha" type="matrix" values="0 0 0 0 0 0 0 0 0 0 0 0 0 0 0 0 0 0 127 0" result="hardAlpha"/>
<feOffset dx="-1.33903"/>
<feGaussianBlur stdDeviation="0.446344"/>
<feComposite in2="hardAlpha" operator="out"/>
<feColorMatrix type="matrix" values="0 0 0 0 0.682353 0 0 0 0 0.45098 0 0 0 0 0.980392 0 0 0 0.56 0"/>
<feBlend mode="normal" in2="BackgroundImageFix" result="effect1_dropShadow_9816_16316"/>
<feBlend mode="normal" in="SourceGraphic" in2="effect1_dropShadow_9816_16316" result="shape"/>
</filter>
<linearGradient id="paint0_linear_9816_16316" x1="45.3332" y1="6.25684" x2="45.3332" y2="22.1928" gradientUnits="userSpaceOnUse">
<stop stop-color="#130C3F"/>
<stop offset="1" stop-color="#15197B"/>
</linearGradient>
<linearGradient id="paint1_linear_9816_16316" x1="37.3663" y1="14.2243" x2="53.3023" y2="14.2243" gradientUnits="userSpaceOnUse">
<stop stop-color="#AE73FA"/>
<stop offset="1" stop-color="#AE73FA" stop-opacity="0"/>
</linearGradient>
<linearGradient id="paint2_linear_9816_16316" x1="53.2997" y1="14.2241" x2="37.3637" y2="14.2241" gradientUnits="userSpaceOnUse">
<stop stop-color="#AE73FA"/>
<stop offset="1" stop-color="#AE73FA" stop-opacity="0"/>
</linearGradient>
<clipPath id="clip0_9816_16316">
<rect width="67.8443" height="22.0632" fill="white" transform="translate(0.407227 0.189453)"/>
</clipPath>
</defs>
</svg>
