<svg xmlns="http://www.w3.org/2000/svg"  viewBox="0 0 100 100" width="100px" height="100px"><circle cx="77" cy="13" r="1" fill="#f1bc19"/><circle cx="50" cy="50" r="37" fill="#e6edb7"/><circle cx="83" cy="15" r="4" fill="#f1bc19"/><circle cx="87" cy="24" r="2" fill="#88ae45"/><circle cx="81" cy="76" r="2" fill="#fbcd59"/><circle cx="15" cy="63" r="4" fill="#fbcd59"/><circle cx="25" cy="87" r="2" fill="#88ae45"/><circle cx="18.5" cy="51.5" r="2.5" fill="#fff"/><circle cx="79.5" cy="33.5" r="1.5" fill="#fff"/><g><path fill="#605e60" d="M50,47.737c-3.518,0-6.836-1.359-9.343-3.828L27.154,30.518c-0.201-0.2-0.262-0.501-0.154-0.764 c0.108-0.262,0.364-0.434,0.647-0.434h6.489c0.185,0,0.361,0.073,0.492,0.203l10.26,10.153c1.372,1.353,3.189,2.098,5.117,2.098 s3.745-0.745,5.118-2.099l10.247-10.151c0.131-0.13,0.308-0.203,0.492-0.203h6.489c0.283,0,0.539,0.171,0.647,0.434 c0.107,0.262,0.047,0.564-0.154,0.764L59.345,43.907C56.836,46.377,53.518,47.737,50,47.737z"/><path fill="#472b29" d="M72.353,30.021L58.851,43.41c-2.36,2.324-5.539,3.627-8.851,3.627s-6.492-1.303-8.851-3.627 L27.647,30.021h6.49l10.259,10.153c1.495,1.474,3.51,2.301,5.609,2.301c2.099,0,4.114-0.827,5.609-2.301l10.248-10.153H72.353 M72.353,28.621h-6.49c-0.369,0-0.723,0.146-0.985,0.405L54.63,39.179c-1.239,1.222-2.881,1.896-4.624,1.896 s-3.385-0.674-4.626-1.898L35.122,29.026c-0.262-0.259-0.616-0.405-0.985-0.405h-6.49c-0.567,0-1.079,0.342-1.295,0.867 c-0.216,0.525-0.094,1.128,0.309,1.527l13.502,13.389c2.642,2.602,6.134,4.032,9.837,4.032c3.703,0,7.195-1.431,9.834-4.029 l13.505-13.393c0.403-0.399,0.525-1.003,0.309-1.527C73.431,28.963,72.92,28.621,72.353,28.621L72.353,28.621z M72.353,31.421 h0.005H72.353L72.353,31.421z"/><g><path fill="#605e60" d="M65.863,70.679c-0.185,0-0.361-0.073-0.492-0.203L55.123,60.323 c-1.372-1.353-3.189-2.098-5.117-2.098s-3.745,0.745-5.118,2.099L34.629,70.477c-0.131,0.13-0.308,0.203-0.492,0.203h-6.489 c-0.283,0-0.539-0.171-0.647-0.434c-0.107-0.262-0.047-0.564,0.154-0.764l13.501-13.389c2.509-2.47,5.827-3.83,9.345-3.83 s6.836,1.359,9.343,3.828l13.503,13.391c0.201,0.2,0.262,0.501,0.154,0.764c-0.108,0.262-0.364,0.434-0.647,0.434H65.863z"/><path fill="#472b29" d="M50,52.963c3.312,0,6.492,1.303,8.851,3.627l13.501,13.389h-6.49L55.615,59.826 c-1.495-1.474-3.51-2.301-5.609-2.301c-2.1,0-4.114,0.827-5.609,2.301L34.137,69.979h-6.49L41.149,56.59 C43.508,54.266,46.688,52.963,50,52.963 M50,51.563c-3.703,0-7.195,1.431-9.834,4.029L26.661,68.985 c-0.403,0.399-0.525,1.003-0.309,1.527c0.216,0.525,0.727,0.867,1.295,0.867h6.49c0.369,0,0.723-0.146,0.985-0.405l10.259-10.153 c1.239-1.222,2.882-1.896,4.625-1.896s3.385,0.674,4.626,1.898l10.246,10.151c0.262,0.26,0.616,0.405,0.985,0.405h6.49 c0.567,0,1.078-0.342,1.295-0.867c0.216-0.525,0.094-1.128-0.309-1.527L59.837,55.596C57.195,52.994,53.703,51.563,50,51.563 L50,51.563z"/></g></g></svg>